%TF.GenerationSoftware,KiCad,Pcbnew,5.1.10-88a1d61d58~90~ubuntu20.04.1*%
%TF.CreationDate,2022-04-26T10:49:59-05:00*%
%TF.ProjectId,PantallaSerie,50616e74-616c-46c6-9153-657269652e6b,rev?*%
%TF.SameCoordinates,Original*%
%TF.FileFunction,Copper,L2,Bot*%
%TF.FilePolarity,Positive*%
%FSLAX46Y46*%
G04 Gerber Fmt 4.6, Leading zero omitted, Abs format (unit mm)*
G04 Created by KiCad (PCBNEW 5.1.10-88a1d61d58~90~ubuntu20.04.1) date 2022-04-26 10:49:59*
%MOMM*%
%LPD*%
G01*
G04 APERTURE LIST*
%TA.AperFunction,ComponentPad*%
%ADD10R,1.600000X1.600000*%
%TD*%
%TA.AperFunction,ComponentPad*%
%ADD11C,1.600000*%
%TD*%
%TA.AperFunction,ComponentPad*%
%ADD12R,1.200000X1.200000*%
%TD*%
%TA.AperFunction,ComponentPad*%
%ADD13C,1.200000*%
%TD*%
%TA.AperFunction,ComponentPad*%
%ADD14C,0.100000*%
%TD*%
%TA.AperFunction,ComponentPad*%
%ADD15R,1.800000X2.600000*%
%TD*%
%TA.AperFunction,ComponentPad*%
%ADD16O,1.800000X2.600000*%
%TD*%
%TA.AperFunction,ComponentPad*%
%ADD17C,3.000000*%
%TD*%
%TA.AperFunction,ComponentPad*%
%ADD18C,7.000000*%
%TD*%
%TA.AperFunction,ComponentPad*%
%ADD19O,1.905000X2.000000*%
%TD*%
%TA.AperFunction,ComponentPad*%
%ADD20R,1.905000X2.000000*%
%TD*%
%TA.AperFunction,ComponentPad*%
%ADD21O,1.700000X1.700000*%
%TD*%
%TA.AperFunction,ComponentPad*%
%ADD22R,1.700000X1.700000*%
%TD*%
%TA.AperFunction,ComponentPad*%
%ADD23C,1.524000*%
%TD*%
%TA.AperFunction,ComponentPad*%
%ADD24R,1.524000X1.524000*%
%TD*%
%TA.AperFunction,ComponentPad*%
%ADD25C,3.500000*%
%TD*%
%TA.AperFunction,ComponentPad*%
%ADD26O,2.400000X2.400000*%
%TD*%
%TA.AperFunction,ComponentPad*%
%ADD27C,2.400000*%
%TD*%
%TA.AperFunction,ComponentPad*%
%ADD28C,1.440000*%
%TD*%
%TA.AperFunction,Conductor*%
%ADD29C,0.500000*%
%TD*%
%TA.AperFunction,Conductor*%
%ADD30C,2.000000*%
%TD*%
%TA.AperFunction,Conductor*%
%ADD31C,0.254000*%
%TD*%
%TA.AperFunction,Conductor*%
%ADD32C,0.100000*%
%TD*%
G04 APERTURE END LIST*
D10*
%TO.P,U1,1*%
%TO.N,Net-(C1-Pad1)*%
X211404200Y-127381000D03*
D11*
%TO.P,U1,2*%
%TO.N,Net-(C2-Pad1)*%
X211404200Y-124841000D03*
%TO.P,U1,3*%
%TO.N,Net-(C1-Pad2)*%
X211404200Y-122301000D03*
%TO.P,U1,4*%
%TO.N,Net-(C4-Pad1)*%
X211404200Y-119761000D03*
%TO.P,U1,5*%
%TO.N,Net-(C4-Pad2)*%
X211404200Y-117221000D03*
%TO.P,U1,6*%
%TO.N,Net-(C3-Pad2)*%
X211404200Y-114681000D03*
%TO.P,U1,7*%
%TO.N,Net-(J1-Pad3)*%
X211404200Y-112141000D03*
%TO.P,U1,10*%
%TO.N,Net-(U1-Pad10)*%
X203784200Y-112141000D03*
%TO.P,U1,11*%
%TO.N,Net-(U1-Pad11)*%
X203784200Y-114681000D03*
%TO.P,U1,12*%
%TO.N,Net-(U1-Pad12)*%
X203784200Y-117221000D03*
%TO.P,U1,13*%
%TO.N,Net-(U1-Pad13)*%
X203784200Y-119761000D03*
%TO.P,U1,14*%
%TO.N,Net-(U1-Pad14)*%
X203784200Y-122301000D03*
%TO.P,U1,15*%
%TO.N,GND*%
X203784200Y-124841000D03*
%TO.P,U1,16*%
%TO.N,+5V*%
X203784200Y-127381000D03*
%TO.P,U1,8*%
%TO.N,Net-(J1-Pad2)*%
X211404200Y-109601000D03*
%TO.P,U1,9*%
%TO.N,Net-(U1-Pad9)*%
X203784200Y-109601000D03*
%TD*%
D12*
%TO.P,C2,1*%
%TO.N,Net-(C2-Pad1)*%
X216738200Y-121539000D03*
D13*
%TO.P,C2,2*%
%TO.N,GND*%
X216738200Y-119539000D03*
%TD*%
D11*
%TO.P,C5,2*%
%TO.N,GND*%
X216738200Y-131739000D03*
D10*
%TO.P,C5,1*%
%TO.N,+5V*%
X216738200Y-134239000D03*
%TD*%
D13*
%TO.P,C3,2*%
%TO.N,Net-(C3-Pad2)*%
X216738200Y-109887000D03*
D12*
%TO.P,C3,1*%
%TO.N,GND*%
X216738200Y-111887000D03*
%TD*%
D13*
%TO.P,C4,2*%
%TO.N,Net-(C4-Pad2)*%
X216738200Y-114713000D03*
D12*
%TO.P,C4,1*%
%TO.N,Net-(C4-Pad1)*%
X216738200Y-116713000D03*
%TD*%
%TO.P,C1,1*%
%TO.N,Net-(C1-Pad1)*%
X216738200Y-126365000D03*
D13*
%TO.P,C1,2*%
%TO.N,Net-(C1-Pad2)*%
X216738200Y-124365000D03*
%TD*%
%TA.AperFunction,ComponentPad*%
D14*
%TO.P,SW1,1*%
%TO.N,Net-(SW1-Pad1)*%
G36*
X177536600Y-117198200D02*
G01*
X179060600Y-117198200D01*
X179060600Y-120698200D01*
X177536600Y-120698200D01*
X177536600Y-117198200D01*
G37*
%TD.AperFunction*%
%TA.AperFunction,ComponentPad*%
%TO.P,SW1,2*%
%TO.N,GND*%
G36*
X173186600Y-117198200D02*
G01*
X174710600Y-117198200D01*
X174710600Y-120698200D01*
X173186600Y-120698200D01*
X173186600Y-117198200D01*
G37*
%TD.AperFunction*%
%TD*%
%TA.AperFunction,ComponentPad*%
%TO.P,SW2,1*%
%TO.N,Net-(SW2-Pad1)*%
G36*
X191220600Y-120698200D02*
G01*
X189696600Y-120698200D01*
X189696600Y-117198200D01*
X191220600Y-117198200D01*
X191220600Y-120698200D01*
G37*
%TD.AperFunction*%
%TA.AperFunction,ComponentPad*%
%TO.P,SW2,2*%
%TO.N,GND*%
G36*
X195570600Y-120698200D02*
G01*
X194046600Y-120698200D01*
X194046600Y-117198200D01*
X195570600Y-117198200D01*
X195570600Y-120698200D01*
G37*
%TD.AperFunction*%
%TD*%
D15*
%TO.P,U3,1*%
%TO.N,GND*%
X80365600Y-92024200D03*
D16*
%TO.P,U3,2*%
%TO.N,+5V*%
X82905600Y-92024200D03*
%TO.P,U3,3*%
%TO.N,Net-(R_POT_TRIM1-Pad2)*%
X85445600Y-92024200D03*
%TO.P,U3,4*%
%TO.N,Net-(U2-Pad4)*%
X87985600Y-92024200D03*
%TO.P,U3,5*%
%TO.N,GND*%
X90525600Y-92024200D03*
%TO.P,U3,6*%
%TO.N,Net-(U2-Pad5)*%
X93065600Y-92024200D03*
%TO.P,U3,7*%
%TO.N,Net-(U3-Pad7)*%
X95605600Y-92024200D03*
%TO.P,U3,8*%
%TO.N,Net-(U3-Pad8)*%
X98145600Y-92024200D03*
%TO.P,U3,9*%
%TO.N,Net-(U3-Pad9)*%
X100685600Y-92024200D03*
%TO.P,U3,10*%
%TO.N,Net-(U3-Pad10)*%
X103225600Y-92024200D03*
%TO.P,U3,11*%
%TO.N,Net-(U2-Pad6)*%
X105765600Y-92024200D03*
%TO.P,U3,12*%
%TO.N,Net-(U2-Pad28)*%
X108305600Y-92024200D03*
%TO.P,U3,13*%
%TO.N,Net-(U2-Pad27)*%
X110845600Y-92024200D03*
%TO.P,U3,14*%
%TO.N,Net-(U2-Pad26)*%
X113385600Y-92024200D03*
%TO.P,U3,15*%
%TO.N,+5V*%
X115925600Y-92024200D03*
%TO.P,U3,16*%
%TO.N,Net-(R2-Pad1)*%
X118465600Y-92024200D03*
D17*
%TO.P,U3,*%
%TO.N,*%
X74866500Y-92024200D03*
X74866500Y-123024900D03*
X149865080Y-123024900D03*
X149865600Y-92024200D03*
%TD*%
D18*
%TO.P,REF\u002A\u002A,1*%
%TO.N,N/C*%
X240030000Y-133096000D03*
%TD*%
%TO.P,REF\u002A\u002A,1*%
%TO.N,N/C*%
X240030000Y-81026000D03*
%TD*%
%TO.P,REF\u002A\u002A,1*%
%TO.N,N/C*%
X71374000Y-133096000D03*
%TD*%
%TO.P,REF\u002A\u002A,1*%
%TO.N,N/C*%
X71374000Y-81026000D03*
%TD*%
D19*
%TO.P,U4,3*%
%TO.N,+5V*%
X209956400Y-85648800D03*
%TO.P,U4,2*%
%TO.N,GND*%
X212496400Y-85648800D03*
D20*
%TO.P,U4,1*%
%TO.N,+12V*%
X215036400Y-85648800D03*
%TD*%
D21*
%TO.P,J3,3*%
%TO.N,GND*%
X189331600Y-92024200D03*
%TO.P,J3,2*%
%TO.N,Net-(J3-Pad2)*%
X186791600Y-92024200D03*
D22*
%TO.P,J3,1*%
%TO.N,Net-(J3-Pad1)*%
X184251600Y-92024200D03*
%TD*%
D21*
%TO.P,J2,3*%
%TO.N,Net-(J2-Pad3)*%
X178917600Y-92024200D03*
%TO.P,J2,2*%
%TO.N,Net-(J2-Pad2)*%
X176377600Y-92024200D03*
D22*
%TO.P,J2,1*%
%TO.N,+5V*%
X173837600Y-92024200D03*
%TD*%
D23*
%TO.P,J1,4*%
%TO.N,GND*%
X230073200Y-92136200D03*
%TO.P,J1,3*%
%TO.N,Net-(J1-Pad3)*%
X230073200Y-94636200D03*
%TO.P,J1,2*%
%TO.N,Net-(J1-Pad2)*%
X230073200Y-96636200D03*
D24*
%TO.P,J1,1*%
%TO.N,+12V*%
X230073200Y-99136200D03*
D25*
%TO.P,J1,5*%
%TO.N,HT*%
X232783200Y-102206200D03*
X232783200Y-89066200D03*
%TD*%
D26*
%TO.P,R1,2*%
%TO.N,+5V*%
X169519600Y-92024200D03*
D27*
%TO.P,R1,1*%
%TO.N,Net-(J2-Pad2)*%
X156819600Y-92024200D03*
%TD*%
%TO.P,R2,1*%
%TO.N,Net-(R2-Pad1)*%
X118465600Y-85928200D03*
D26*
%TO.P,R2,2*%
%TO.N,GND*%
X105765600Y-85928200D03*
%TD*%
D28*
%TO.P,R_POT_TRIM1,1*%
%TO.N,+5V*%
X82905600Y-85166200D03*
%TO.P,R_POT_TRIM1,2*%
%TO.N,Net-(R_POT_TRIM1-Pad2)*%
X85445600Y-85166200D03*
%TO.P,R_POT_TRIM1,3*%
%TO.N,GND*%
X87985600Y-85166200D03*
%TD*%
D10*
%TO.P,U2,1*%
%TO.N,Net-(J2-Pad2)*%
X158851600Y-108280200D03*
D11*
%TO.P,U2,2*%
%TO.N,Net-(U1-Pad9)*%
X161391600Y-108280200D03*
%TO.P,U2,3*%
%TO.N,Net-(U1-Pad10)*%
X163931600Y-108280200D03*
%TO.P,U2,4*%
%TO.N,Net-(U2-Pad4)*%
X166471600Y-108280200D03*
%TO.P,U2,5*%
%TO.N,Net-(U2-Pad5)*%
X169011600Y-108280200D03*
%TO.P,U2,6*%
%TO.N,Net-(U2-Pad6)*%
X171551600Y-108280200D03*
%TO.P,U2,7*%
%TO.N,+5V*%
X174091600Y-108280200D03*
%TO.P,U2,8*%
%TO.N,GND*%
X176631600Y-108280200D03*
%TO.P,U2,9*%
%TO.N,Net-(U2-Pad9)*%
X179171600Y-108280200D03*
%TO.P,U2,10*%
%TO.N,Net-(U2-Pad10)*%
X181711600Y-108280200D03*
%TO.P,U2,11*%
%TO.N,Net-(U2-Pad11)*%
X184251600Y-108280200D03*
%TO.P,U2,12*%
%TO.N,Net-(U2-Pad12)*%
X186791600Y-108280200D03*
%TO.P,U2,13*%
%TO.N,Net-(SW1-Pad1)*%
X189331600Y-108280200D03*
%TO.P,U2,14*%
%TO.N,Net-(SW2-Pad1)*%
X191871600Y-108280200D03*
%TO.P,U2,15*%
%TO.N,Net-(U2-Pad15)*%
X191871600Y-100660200D03*
%TO.P,U2,16*%
%TO.N,Net-(U2-Pad16)*%
X189331600Y-100660200D03*
%TO.P,U2,17*%
%TO.N,Net-(J3-Pad2)*%
X186791600Y-100660200D03*
%TO.P,U2,18*%
%TO.N,Net-(J3-Pad1)*%
X184251600Y-100660200D03*
%TO.P,U2,19*%
%TO.N,Net-(J2-Pad3)*%
X181711600Y-100660200D03*
%TO.P,U2,20*%
%TO.N,Net-(U2-Pad20)*%
X179171600Y-100660200D03*
%TO.P,U2,21*%
%TO.N,Net-(U2-Pad21)*%
X176631600Y-100660200D03*
%TO.P,U2,22*%
%TO.N,GND*%
X174091600Y-100660200D03*
%TO.P,U2,23*%
%TO.N,Net-(U2-Pad23)*%
X171551600Y-100660200D03*
%TO.P,U2,24*%
%TO.N,Net-(U2-Pad24)*%
X169011600Y-100660200D03*
%TO.P,U2,25*%
%TO.N,Net-(U2-Pad25)*%
X166471600Y-100660200D03*
%TO.P,U2,26*%
%TO.N,Net-(U2-Pad26)*%
X163931600Y-100660200D03*
%TO.P,U2,27*%
%TO.N,Net-(U2-Pad27)*%
X161391600Y-100660200D03*
%TO.P,U2,28*%
%TO.N,Net-(U2-Pad28)*%
X158851600Y-100660200D03*
%TD*%
D29*
%TO.N,GND*%
X194808600Y-115992400D02*
X194808600Y-118948200D01*
X196494400Y-118948200D02*
X194808600Y-118948200D01*
X192786000Y-118948200D02*
X194808600Y-118948200D01*
X194808600Y-118948200D02*
X194808600Y-121700800D01*
X173948600Y-116316000D02*
X173948600Y-118948200D01*
X173948600Y-118948200D02*
X175691800Y-118948200D01*
X173948600Y-118948200D02*
X173948600Y-121529600D01*
X173948600Y-118948200D02*
X172415200Y-118948200D01*
X212496400Y-85648800D02*
X212496400Y-85699600D01*
X212496400Y-85871302D02*
X211220302Y-87147400D01*
X212496400Y-85699600D02*
X212496400Y-85871302D01*
X212496400Y-85648800D02*
X212496400Y-85979000D01*
X212496400Y-85979000D02*
X213766400Y-87249000D01*
%TO.N,+5V*%
X169519600Y-92024200D02*
X173837600Y-92024200D01*
X173837600Y-92024200D02*
X173837600Y-94564200D01*
X173837600Y-94564200D02*
X176377600Y-97104200D01*
X176377600Y-97104200D02*
X192887600Y-97104200D01*
X192887600Y-97104200D02*
X194665600Y-98882200D01*
X194665600Y-98882200D02*
X194665600Y-102946200D01*
X194665600Y-102946200D02*
X192379600Y-105232200D01*
X177139600Y-105232200D02*
X174091600Y-108280200D01*
X192379600Y-105232200D02*
X177139600Y-105232200D01*
X82905600Y-85166200D02*
X82905600Y-92024200D01*
X82905600Y-85166200D02*
X82905600Y-82880200D01*
X82905600Y-82880200D02*
X83921600Y-81864200D01*
X159359600Y-81864200D02*
X169519600Y-92024200D01*
X115925600Y-92024200D02*
X115925600Y-92786200D01*
X83921600Y-81864200D02*
X159359600Y-81864200D01*
X115925600Y-92024200D02*
X112115600Y-95834200D01*
X86715600Y-95834200D02*
X82905600Y-92024200D01*
X112115600Y-95834200D02*
X86715600Y-95834200D01*
X216738200Y-134239000D02*
X210642200Y-134239000D01*
X210642200Y-134239000D02*
X203784200Y-127381000D01*
X209956400Y-85648800D02*
X209956400Y-81813400D01*
X209956400Y-81813400D02*
X206248000Y-78105000D01*
X206248000Y-78105000D02*
X177444400Y-78105000D01*
X173837600Y-81711800D02*
X173837600Y-92024200D01*
X177444400Y-78105000D02*
X173837600Y-81711800D01*
X209956400Y-85648800D02*
X215061800Y-80543400D01*
X215061800Y-80543400D02*
X232791000Y-80543400D01*
X232791000Y-80543400D02*
X242341400Y-90093800D01*
X242341400Y-90093800D02*
X242341400Y-122656600D01*
X230759000Y-134239000D02*
X216738200Y-134239000D01*
X242341400Y-122656600D02*
X230759000Y-134239000D01*
%TO.N,+12V*%
X230073200Y-102752202D02*
X230022400Y-102803002D01*
X230073200Y-99136200D02*
X230073200Y-102752202D01*
X230022400Y-102803002D02*
X230022400Y-104673400D01*
X230022400Y-104673400D02*
X232308400Y-106959400D01*
X232308400Y-106959400D02*
X237972600Y-106959400D01*
X237972600Y-106959400D02*
X240919000Y-104013000D01*
X240919000Y-104013000D02*
X240919000Y-90601800D01*
X240919000Y-90601800D02*
X232333800Y-82016600D01*
X218668600Y-82016600D02*
X215036400Y-85648800D01*
X232333800Y-82016600D02*
X218668600Y-82016600D01*
%TO.N,Net-(SW1-Pad1)*%
X178663600Y-118948200D02*
X178298600Y-118948200D01*
X189331600Y-108280200D02*
X178663600Y-118948200D01*
%TO.N,Net-(SW2-Pad1)*%
X191871600Y-117535200D02*
X190458600Y-118948200D01*
X191871600Y-108280200D02*
X191871600Y-117535200D01*
%TO.N,Net-(U1-Pad10)*%
X203784200Y-112141000D02*
X199212200Y-116713000D01*
X199212200Y-116713000D02*
X199212200Y-127050800D01*
X199212200Y-127050800D02*
X196342000Y-129921000D01*
X196342000Y-129921000D02*
X170840400Y-129921000D01*
X170840400Y-129921000D02*
X155549600Y-114630200D01*
X155549600Y-114630200D02*
X155549600Y-107899200D01*
X155549600Y-107899200D02*
X158496000Y-104952800D01*
X158496000Y-104952800D02*
X162331400Y-104952800D01*
X163931600Y-106553000D02*
X163931600Y-108280200D01*
X162331400Y-104952800D02*
X163931600Y-106553000D01*
%TO.N,Net-(U1-Pad9)*%
X203784200Y-109601000D02*
X201599800Y-109601000D01*
X201599800Y-109601000D02*
X197637400Y-113563400D01*
X197637400Y-113563400D02*
X197637400Y-125577600D01*
X197637400Y-125577600D02*
X195224400Y-127990600D01*
X195224400Y-127990600D02*
X171932600Y-127990600D01*
X161391600Y-117449600D02*
X161391600Y-108280200D01*
X171932600Y-127990600D02*
X161391600Y-117449600D01*
D30*
%TO.N,HT*%
X232783200Y-89066200D02*
X236423200Y-92706200D01*
X236423200Y-98566200D02*
X232783200Y-102206200D01*
X236423200Y-92706200D02*
X236423200Y-98566200D01*
%TD*%
D31*
%TO.N,GND*%
X238071343Y-77361611D02*
X237394091Y-77814136D01*
X236818136Y-78390091D01*
X236365611Y-79067343D01*
X236053906Y-79819865D01*
X235895000Y-80618738D01*
X235895000Y-81433262D01*
X236053906Y-82232135D01*
X236282014Y-82782835D01*
X233447534Y-79948356D01*
X233419817Y-79914583D01*
X233285059Y-79803989D01*
X233131313Y-79721811D01*
X232964490Y-79671205D01*
X232834477Y-79658400D01*
X232834469Y-79658400D01*
X232791000Y-79654119D01*
X232747531Y-79658400D01*
X215105269Y-79658400D01*
X215061800Y-79654119D01*
X215018331Y-79658400D01*
X215018323Y-79658400D01*
X214903106Y-79669748D01*
X214888309Y-79671205D01*
X214837703Y-79686557D01*
X214721487Y-79721811D01*
X214567741Y-79803989D01*
X214466753Y-79886868D01*
X214466751Y-79886870D01*
X214432983Y-79914583D01*
X214405270Y-79948351D01*
X210841400Y-83512222D01*
X210841400Y-81856869D01*
X210845681Y-81813400D01*
X210841400Y-81769931D01*
X210841400Y-81769923D01*
X210828595Y-81639910D01*
X210797775Y-81538311D01*
X210777989Y-81473086D01*
X210695811Y-81319341D01*
X210612932Y-81218353D01*
X210612930Y-81218351D01*
X210585217Y-81184583D01*
X210551449Y-81156870D01*
X206904534Y-77509956D01*
X206876817Y-77476183D01*
X206742059Y-77365589D01*
X206588313Y-77283411D01*
X206421490Y-77232805D01*
X206291477Y-77220000D01*
X206291469Y-77220000D01*
X206248000Y-77215719D01*
X206204531Y-77220000D01*
X177487865Y-77220000D01*
X177444399Y-77215719D01*
X177400933Y-77220000D01*
X177400923Y-77220000D01*
X177270910Y-77232805D01*
X177104087Y-77283411D01*
X176950341Y-77365589D01*
X176950339Y-77365590D01*
X176950340Y-77365590D01*
X176849353Y-77448468D01*
X176849351Y-77448470D01*
X176815583Y-77476183D01*
X176787870Y-77509951D01*
X173242556Y-81055266D01*
X173208783Y-81082983D01*
X173098189Y-81217742D01*
X173016011Y-81371488D01*
X172998747Y-81428400D01*
X172969781Y-81523887D01*
X172965405Y-81538311D01*
X172952600Y-81668324D01*
X172952600Y-81668331D01*
X172948319Y-81711800D01*
X172952600Y-81755269D01*
X172952601Y-90539575D01*
X172863118Y-90548388D01*
X172743420Y-90584698D01*
X172633106Y-90643663D01*
X172536415Y-90723015D01*
X172457063Y-90819706D01*
X172398098Y-90930020D01*
X172361788Y-91049718D01*
X172352975Y-91139200D01*
X171135198Y-91139200D01*
X170944938Y-90854456D01*
X170689344Y-90598862D01*
X170388799Y-90398044D01*
X170054850Y-90259718D01*
X169700332Y-90189200D01*
X169338868Y-90189200D01*
X169002989Y-90256010D01*
X160016134Y-81269156D01*
X159988417Y-81235383D01*
X159853659Y-81124789D01*
X159699913Y-81042611D01*
X159533090Y-80992005D01*
X159403077Y-80979200D01*
X159403069Y-80979200D01*
X159359600Y-80974919D01*
X159316131Y-80979200D01*
X83965069Y-80979200D01*
X83921600Y-80974919D01*
X83878131Y-80979200D01*
X83878123Y-80979200D01*
X83762906Y-80990548D01*
X83748109Y-80992005D01*
X83697503Y-81007357D01*
X83581287Y-81042611D01*
X83427541Y-81124789D01*
X83427539Y-81124790D01*
X83427540Y-81124790D01*
X83326553Y-81207668D01*
X83326551Y-81207670D01*
X83292783Y-81235383D01*
X83265070Y-81269151D01*
X82310551Y-82223671D01*
X82276784Y-82251383D01*
X82249071Y-82285151D01*
X82249068Y-82285154D01*
X82166190Y-82386141D01*
X82084012Y-82539887D01*
X82033405Y-82706710D01*
X82016319Y-82880200D01*
X82020601Y-82923679D01*
X82020600Y-84134941D01*
X81853103Y-84302438D01*
X81704815Y-84524367D01*
X81602672Y-84770961D01*
X81550600Y-85032744D01*
X81550600Y-85299656D01*
X81602672Y-85561439D01*
X81704815Y-85808033D01*
X81853103Y-86029962D01*
X82020600Y-86197459D01*
X82020601Y-90364757D01*
X81860095Y-90496480D01*
X81855102Y-90480020D01*
X81796137Y-90369706D01*
X81716785Y-90273015D01*
X81620094Y-90193663D01*
X81509780Y-90134698D01*
X81390082Y-90098388D01*
X81265600Y-90086128D01*
X80651350Y-90089200D01*
X80492600Y-90247950D01*
X80492600Y-91897200D01*
X80512600Y-91897200D01*
X80512600Y-92151200D01*
X80492600Y-92151200D01*
X80492600Y-93800450D01*
X80651350Y-93959200D01*
X81265600Y-93962272D01*
X81390082Y-93950012D01*
X81509780Y-93913702D01*
X81620094Y-93854737D01*
X81716785Y-93775385D01*
X81796137Y-93678694D01*
X81855102Y-93568380D01*
X81860095Y-93551920D01*
X82048674Y-93706681D01*
X82315340Y-93849217D01*
X82604688Y-93936990D01*
X82905600Y-93966627D01*
X83206513Y-93936990D01*
X83482954Y-93853132D01*
X86059070Y-96429249D01*
X86086783Y-96463017D01*
X86120551Y-96490730D01*
X86120553Y-96490732D01*
X86221541Y-96573611D01*
X86375286Y-96655789D01*
X86542110Y-96706395D01*
X86672123Y-96719200D01*
X86672131Y-96719200D01*
X86715600Y-96723481D01*
X86759069Y-96719200D01*
X112072131Y-96719200D01*
X112115600Y-96723481D01*
X112159069Y-96719200D01*
X112159077Y-96719200D01*
X112289090Y-96706395D01*
X112455913Y-96655789D01*
X112609659Y-96573611D01*
X112744417Y-96463017D01*
X112772134Y-96429244D01*
X115348247Y-93853132D01*
X115624688Y-93936990D01*
X115925600Y-93966627D01*
X116226513Y-93936990D01*
X116515861Y-93849217D01*
X116782527Y-93706681D01*
X117016261Y-93514861D01*
X117195600Y-93296335D01*
X117374939Y-93514861D01*
X117608674Y-93706681D01*
X117875340Y-93849217D01*
X118164688Y-93936990D01*
X118465600Y-93966627D01*
X118766513Y-93936990D01*
X119055861Y-93849217D01*
X119322527Y-93706681D01*
X119556261Y-93514861D01*
X119748081Y-93281127D01*
X119890617Y-93014461D01*
X119978390Y-92725113D01*
X120000600Y-92499607D01*
X120000600Y-91813921D01*
X147730600Y-91813921D01*
X147730600Y-92234479D01*
X147812647Y-92646956D01*
X147973588Y-93035502D01*
X148207237Y-93385183D01*
X148504617Y-93682563D01*
X148854298Y-93916212D01*
X149242844Y-94077153D01*
X149655321Y-94159200D01*
X150075879Y-94159200D01*
X150488356Y-94077153D01*
X150876902Y-93916212D01*
X151226583Y-93682563D01*
X151523963Y-93385183D01*
X151757612Y-93035502D01*
X151918553Y-92646956D01*
X152000600Y-92234479D01*
X152000600Y-91843468D01*
X154984600Y-91843468D01*
X154984600Y-92204932D01*
X155055118Y-92559450D01*
X155193444Y-92893399D01*
X155394262Y-93193944D01*
X155649856Y-93449538D01*
X155950401Y-93650356D01*
X156284350Y-93788682D01*
X156638868Y-93859200D01*
X157000332Y-93859200D01*
X157354850Y-93788682D01*
X157688799Y-93650356D01*
X157989344Y-93449538D01*
X158244938Y-93193944D01*
X158445756Y-92893399D01*
X158584082Y-92559450D01*
X158654600Y-92204932D01*
X158654600Y-91843468D01*
X158584082Y-91488950D01*
X158445756Y-91155001D01*
X158244938Y-90854456D01*
X157989344Y-90598862D01*
X157688799Y-90398044D01*
X157354850Y-90259718D01*
X157000332Y-90189200D01*
X156638868Y-90189200D01*
X156284350Y-90259718D01*
X155950401Y-90398044D01*
X155649856Y-90598862D01*
X155394262Y-90854456D01*
X155193444Y-91155001D01*
X155055118Y-91488950D01*
X154984600Y-91843468D01*
X152000600Y-91843468D01*
X152000600Y-91813921D01*
X151918553Y-91401444D01*
X151757612Y-91012898D01*
X151523963Y-90663217D01*
X151226583Y-90365837D01*
X150876902Y-90132188D01*
X150488356Y-89971247D01*
X150075879Y-89889200D01*
X149655321Y-89889200D01*
X149242844Y-89971247D01*
X148854298Y-90132188D01*
X148504617Y-90365837D01*
X148207237Y-90663217D01*
X147973588Y-91012898D01*
X147812647Y-91401444D01*
X147730600Y-91813921D01*
X120000600Y-91813921D01*
X120000600Y-91548792D01*
X119978390Y-91323287D01*
X119890617Y-91033939D01*
X119748081Y-90767273D01*
X119556261Y-90533539D01*
X119322526Y-90341719D01*
X119055860Y-90199183D01*
X118766512Y-90111410D01*
X118465600Y-90081773D01*
X118164687Y-90111410D01*
X117875339Y-90199183D01*
X117608673Y-90341719D01*
X117374939Y-90533539D01*
X117195600Y-90752065D01*
X117016261Y-90533539D01*
X116782526Y-90341719D01*
X116515860Y-90199183D01*
X116226512Y-90111410D01*
X115925600Y-90081773D01*
X115624687Y-90111410D01*
X115335339Y-90199183D01*
X115068673Y-90341719D01*
X114834939Y-90533539D01*
X114655600Y-90752065D01*
X114476261Y-90533539D01*
X114242526Y-90341719D01*
X113975860Y-90199183D01*
X113686512Y-90111410D01*
X113385600Y-90081773D01*
X113084687Y-90111410D01*
X112795339Y-90199183D01*
X112528673Y-90341719D01*
X112294939Y-90533539D01*
X112115600Y-90752065D01*
X111936261Y-90533539D01*
X111702526Y-90341719D01*
X111435860Y-90199183D01*
X111146512Y-90111410D01*
X110845600Y-90081773D01*
X110544687Y-90111410D01*
X110255339Y-90199183D01*
X109988673Y-90341719D01*
X109754939Y-90533539D01*
X109575600Y-90752065D01*
X109396261Y-90533539D01*
X109162526Y-90341719D01*
X108895860Y-90199183D01*
X108606512Y-90111410D01*
X108305600Y-90081773D01*
X108004687Y-90111410D01*
X107715339Y-90199183D01*
X107448673Y-90341719D01*
X107214939Y-90533539D01*
X107035600Y-90752065D01*
X106856261Y-90533539D01*
X106622526Y-90341719D01*
X106355860Y-90199183D01*
X106066512Y-90111410D01*
X105765600Y-90081773D01*
X105464687Y-90111410D01*
X105175339Y-90199183D01*
X104908673Y-90341719D01*
X104674939Y-90533539D01*
X104495600Y-90752065D01*
X104316261Y-90533539D01*
X104082526Y-90341719D01*
X103815860Y-90199183D01*
X103526512Y-90111410D01*
X103225600Y-90081773D01*
X102924687Y-90111410D01*
X102635339Y-90199183D01*
X102368673Y-90341719D01*
X102134939Y-90533539D01*
X101955600Y-90752065D01*
X101776261Y-90533539D01*
X101542526Y-90341719D01*
X101275860Y-90199183D01*
X100986512Y-90111410D01*
X100685600Y-90081773D01*
X100384687Y-90111410D01*
X100095339Y-90199183D01*
X99828673Y-90341719D01*
X99594939Y-90533539D01*
X99415600Y-90752065D01*
X99236261Y-90533539D01*
X99002526Y-90341719D01*
X98735860Y-90199183D01*
X98446512Y-90111410D01*
X98145600Y-90081773D01*
X97844687Y-90111410D01*
X97555339Y-90199183D01*
X97288673Y-90341719D01*
X97054939Y-90533539D01*
X96875600Y-90752065D01*
X96696261Y-90533539D01*
X96462526Y-90341719D01*
X96195860Y-90199183D01*
X95906512Y-90111410D01*
X95605600Y-90081773D01*
X95304687Y-90111410D01*
X95015339Y-90199183D01*
X94748673Y-90341719D01*
X94514939Y-90533539D01*
X94335600Y-90752065D01*
X94156261Y-90533539D01*
X93922526Y-90341719D01*
X93655860Y-90199183D01*
X93366512Y-90111410D01*
X93065600Y-90081773D01*
X92764687Y-90111410D01*
X92475339Y-90199183D01*
X92208673Y-90341719D01*
X91974939Y-90533539D01*
X91790819Y-90757892D01*
X91731348Y-90665804D01*
X91521206Y-90448990D01*
X91272804Y-90277338D01*
X90995687Y-90157445D01*
X90890340Y-90133164D01*
X90652600Y-90253822D01*
X90652600Y-91897200D01*
X90672600Y-91897200D01*
X90672600Y-92151200D01*
X90652600Y-92151200D01*
X90652600Y-93794578D01*
X90890340Y-93915236D01*
X90995687Y-93890955D01*
X91272804Y-93771062D01*
X91521206Y-93599410D01*
X91731348Y-93382596D01*
X91790819Y-93290509D01*
X91974939Y-93514861D01*
X92208674Y-93706681D01*
X92475340Y-93849217D01*
X92764688Y-93936990D01*
X93065600Y-93966627D01*
X93366513Y-93936990D01*
X93655861Y-93849217D01*
X93922527Y-93706681D01*
X94156261Y-93514861D01*
X94335600Y-93296335D01*
X94514939Y-93514861D01*
X94748674Y-93706681D01*
X95015340Y-93849217D01*
X95304688Y-93936990D01*
X95605600Y-93966627D01*
X95906513Y-93936990D01*
X96195861Y-93849217D01*
X96462527Y-93706681D01*
X96696261Y-93514861D01*
X96875600Y-93296335D01*
X97054939Y-93514861D01*
X97288674Y-93706681D01*
X97555340Y-93849217D01*
X97844688Y-93936990D01*
X98145600Y-93966627D01*
X98446513Y-93936990D01*
X98735861Y-93849217D01*
X99002527Y-93706681D01*
X99236261Y-93514861D01*
X99415600Y-93296335D01*
X99594939Y-93514861D01*
X99828674Y-93706681D01*
X100095340Y-93849217D01*
X100384688Y-93936990D01*
X100685600Y-93966627D01*
X100986513Y-93936990D01*
X101275861Y-93849217D01*
X101542527Y-93706681D01*
X101776261Y-93514861D01*
X101955600Y-93296335D01*
X102134939Y-93514861D01*
X102368674Y-93706681D01*
X102635340Y-93849217D01*
X102924688Y-93936990D01*
X103225600Y-93966627D01*
X103526513Y-93936990D01*
X103815861Y-93849217D01*
X104082527Y-93706681D01*
X104316261Y-93514861D01*
X104495600Y-93296335D01*
X104674939Y-93514861D01*
X104908674Y-93706681D01*
X105175340Y-93849217D01*
X105464688Y-93936990D01*
X105765600Y-93966627D01*
X106066513Y-93936990D01*
X106355861Y-93849217D01*
X106622527Y-93706681D01*
X106856261Y-93514861D01*
X107035600Y-93296335D01*
X107214939Y-93514861D01*
X107448674Y-93706681D01*
X107715340Y-93849217D01*
X108004688Y-93936990D01*
X108305600Y-93966627D01*
X108606513Y-93936990D01*
X108895861Y-93849217D01*
X109162527Y-93706681D01*
X109396261Y-93514861D01*
X109575600Y-93296335D01*
X109754939Y-93514861D01*
X109988674Y-93706681D01*
X110255340Y-93849217D01*
X110544688Y-93936990D01*
X110845600Y-93966627D01*
X111146513Y-93936990D01*
X111435861Y-93849217D01*
X111702527Y-93706681D01*
X111936261Y-93514861D01*
X112115600Y-93296335D01*
X112294939Y-93514861D01*
X112528674Y-93706681D01*
X112795340Y-93849217D01*
X112836514Y-93861707D01*
X111749022Y-94949200D01*
X87082179Y-94949200D01*
X85994686Y-93861707D01*
X86035861Y-93849217D01*
X86302527Y-93706681D01*
X86536261Y-93514861D01*
X86715600Y-93296335D01*
X86894939Y-93514861D01*
X87128674Y-93706681D01*
X87395340Y-93849217D01*
X87684688Y-93936990D01*
X87985600Y-93966627D01*
X88286513Y-93936990D01*
X88575861Y-93849217D01*
X88842527Y-93706681D01*
X89076261Y-93514861D01*
X89260381Y-93290509D01*
X89319852Y-93382596D01*
X89529994Y-93599410D01*
X89778396Y-93771062D01*
X90055513Y-93890955D01*
X90160860Y-93915236D01*
X90398600Y-93794578D01*
X90398600Y-92151200D01*
X90378600Y-92151200D01*
X90378600Y-91897200D01*
X90398600Y-91897200D01*
X90398600Y-90253822D01*
X90160860Y-90133164D01*
X90055513Y-90157445D01*
X89778396Y-90277338D01*
X89529994Y-90448990D01*
X89319852Y-90665804D01*
X89260381Y-90757891D01*
X89076261Y-90533539D01*
X88842526Y-90341719D01*
X88575860Y-90199183D01*
X88286512Y-90111410D01*
X87985600Y-90081773D01*
X87684687Y-90111410D01*
X87395339Y-90199183D01*
X87128673Y-90341719D01*
X86894939Y-90533539D01*
X86715600Y-90752065D01*
X86536261Y-90533539D01*
X86302526Y-90341719D01*
X86035860Y-90199183D01*
X85746512Y-90111410D01*
X85445600Y-90081773D01*
X85144687Y-90111410D01*
X84855339Y-90199183D01*
X84588673Y-90341719D01*
X84354939Y-90533539D01*
X84175600Y-90752065D01*
X83996261Y-90533539D01*
X83790600Y-90364759D01*
X83790600Y-86197459D01*
X83958097Y-86029962D01*
X84106385Y-85808033D01*
X84175600Y-85640934D01*
X84244815Y-85808033D01*
X84393103Y-86029962D01*
X84581838Y-86218697D01*
X84803767Y-86366985D01*
X85050361Y-86469128D01*
X85312144Y-86521200D01*
X85579056Y-86521200D01*
X85840839Y-86469128D01*
X86087433Y-86366985D01*
X86309362Y-86218697D01*
X86426299Y-86101760D01*
X87229645Y-86101760D01*
X87291532Y-86337568D01*
X87533390Y-86450466D01*
X87792627Y-86514011D01*
X88059280Y-86525761D01*
X88323101Y-86485263D01*
X88573953Y-86394075D01*
X88675108Y-86340005D01*
X103977405Y-86340005D01*
X104049979Y-86579266D01*
X104209961Y-86901457D01*
X104429725Y-87186246D01*
X104700826Y-87422689D01*
X105012846Y-87601700D01*
X105353794Y-87716399D01*
X105638600Y-87600054D01*
X105638600Y-86055200D01*
X105892600Y-86055200D01*
X105892600Y-87600054D01*
X106177406Y-87716399D01*
X106518354Y-87601700D01*
X106830374Y-87422689D01*
X107101475Y-87186246D01*
X107321239Y-86901457D01*
X107481221Y-86579266D01*
X107553795Y-86340005D01*
X107437032Y-86055200D01*
X105892600Y-86055200D01*
X105638600Y-86055200D01*
X104094168Y-86055200D01*
X103977405Y-86340005D01*
X88675108Y-86340005D01*
X88679668Y-86337568D01*
X88741555Y-86101760D01*
X87985600Y-85345805D01*
X87229645Y-86101760D01*
X86426299Y-86101760D01*
X86498097Y-86029962D01*
X86646385Y-85808033D01*
X86716038Y-85639876D01*
X86757725Y-85754553D01*
X86814232Y-85860268D01*
X87050040Y-85922155D01*
X87805995Y-85166200D01*
X88165205Y-85166200D01*
X88921160Y-85922155D01*
X89156968Y-85860268D01*
X89269866Y-85618410D01*
X89294872Y-85516395D01*
X103977405Y-85516395D01*
X104094168Y-85801200D01*
X105638600Y-85801200D01*
X105638600Y-84256346D01*
X105892600Y-84256346D01*
X105892600Y-85801200D01*
X107437032Y-85801200D01*
X107459060Y-85747468D01*
X116630600Y-85747468D01*
X116630600Y-86108932D01*
X116701118Y-86463450D01*
X116839444Y-86797399D01*
X117040262Y-87097944D01*
X117295856Y-87353538D01*
X117596401Y-87554356D01*
X117930350Y-87692682D01*
X118284868Y-87763200D01*
X118646332Y-87763200D01*
X119000850Y-87692682D01*
X119334799Y-87554356D01*
X119635344Y-87353538D01*
X119890938Y-87097944D01*
X120091756Y-86797399D01*
X120230082Y-86463450D01*
X120300600Y-86108932D01*
X120300600Y-85747468D01*
X120230082Y-85392950D01*
X120091756Y-85059001D01*
X119890938Y-84758456D01*
X119635344Y-84502862D01*
X119334799Y-84302044D01*
X119000850Y-84163718D01*
X118646332Y-84093200D01*
X118284868Y-84093200D01*
X117930350Y-84163718D01*
X117596401Y-84302044D01*
X117295856Y-84502862D01*
X117040262Y-84758456D01*
X116839444Y-85059001D01*
X116701118Y-85392950D01*
X116630600Y-85747468D01*
X107459060Y-85747468D01*
X107553795Y-85516395D01*
X107481221Y-85277134D01*
X107321239Y-84954943D01*
X107101475Y-84670154D01*
X106830374Y-84433711D01*
X106518354Y-84254700D01*
X106177406Y-84140001D01*
X105892600Y-84256346D01*
X105638600Y-84256346D01*
X105353794Y-84140001D01*
X105012846Y-84254700D01*
X104700826Y-84433711D01*
X104429725Y-84670154D01*
X104209961Y-84954943D01*
X104049979Y-85277134D01*
X103977405Y-85516395D01*
X89294872Y-85516395D01*
X89333411Y-85359173D01*
X89345161Y-85092520D01*
X89304663Y-84828699D01*
X89213475Y-84577847D01*
X89156968Y-84472132D01*
X88921160Y-84410245D01*
X88165205Y-85166200D01*
X87805995Y-85166200D01*
X87050040Y-84410245D01*
X86814232Y-84472132D01*
X86713836Y-84687207D01*
X86646385Y-84524367D01*
X86498097Y-84302438D01*
X86426299Y-84230640D01*
X87229645Y-84230640D01*
X87985600Y-84986595D01*
X88741555Y-84230640D01*
X88679668Y-83994832D01*
X88437810Y-83881934D01*
X88178573Y-83818389D01*
X87911920Y-83806639D01*
X87648099Y-83847137D01*
X87397247Y-83938325D01*
X87291532Y-83994832D01*
X87229645Y-84230640D01*
X86426299Y-84230640D01*
X86309362Y-84113703D01*
X86087433Y-83965415D01*
X85840839Y-83863272D01*
X85579056Y-83811200D01*
X85312144Y-83811200D01*
X85050361Y-83863272D01*
X84803767Y-83965415D01*
X84581838Y-84113703D01*
X84393103Y-84302438D01*
X84244815Y-84524367D01*
X84175600Y-84691466D01*
X84106385Y-84524367D01*
X83958097Y-84302438D01*
X83790600Y-84134941D01*
X83790600Y-83246778D01*
X84288179Y-82749200D01*
X158993022Y-82749200D01*
X167751410Y-91507589D01*
X167684600Y-91843468D01*
X167684600Y-92204932D01*
X167755118Y-92559450D01*
X167893444Y-92893399D01*
X168094262Y-93193944D01*
X168349856Y-93449538D01*
X168650401Y-93650356D01*
X168984350Y-93788682D01*
X169338868Y-93859200D01*
X169700332Y-93859200D01*
X170054850Y-93788682D01*
X170388799Y-93650356D01*
X170689344Y-93449538D01*
X170944938Y-93193944D01*
X171135198Y-92909200D01*
X172352975Y-92909200D01*
X172361788Y-92998682D01*
X172398098Y-93118380D01*
X172457063Y-93228694D01*
X172536415Y-93325385D01*
X172633106Y-93404737D01*
X172743420Y-93463702D01*
X172863118Y-93500012D01*
X172952601Y-93508825D01*
X172952601Y-94520721D01*
X172948319Y-94564200D01*
X172965405Y-94737690D01*
X173016012Y-94904513D01*
X173098190Y-95058259D01*
X173181068Y-95159246D01*
X173181071Y-95159249D01*
X173208784Y-95193017D01*
X173242551Y-95220729D01*
X175721070Y-97699249D01*
X175748783Y-97733017D01*
X175782551Y-97760730D01*
X175782553Y-97760732D01*
X175811756Y-97784698D01*
X175883541Y-97843611D01*
X176037287Y-97925789D01*
X176204110Y-97976395D01*
X176334123Y-97989200D01*
X176334133Y-97989200D01*
X176377599Y-97993481D01*
X176421065Y-97989200D01*
X192521022Y-97989200D01*
X193780600Y-99248779D01*
X193780601Y-102579620D01*
X192013022Y-104347200D01*
X177183069Y-104347200D01*
X177139600Y-104342919D01*
X177096131Y-104347200D01*
X177096123Y-104347200D01*
X176980906Y-104358548D01*
X176966109Y-104360005D01*
X176915503Y-104375357D01*
X176799287Y-104410611D01*
X176645541Y-104492789D01*
X176575155Y-104550554D01*
X176544553Y-104575668D01*
X176544551Y-104575670D01*
X176510783Y-104603383D01*
X176483070Y-104637151D01*
X174268039Y-106852183D01*
X174232935Y-106845200D01*
X173950265Y-106845200D01*
X173673026Y-106900347D01*
X173411873Y-107008520D01*
X173176841Y-107165563D01*
X172976963Y-107365441D01*
X172821600Y-107597959D01*
X172666237Y-107365441D01*
X172466359Y-107165563D01*
X172231327Y-107008520D01*
X171970174Y-106900347D01*
X171692935Y-106845200D01*
X171410265Y-106845200D01*
X171133026Y-106900347D01*
X170871873Y-107008520D01*
X170636841Y-107165563D01*
X170436963Y-107365441D01*
X170281600Y-107597959D01*
X170126237Y-107365441D01*
X169926359Y-107165563D01*
X169691327Y-107008520D01*
X169430174Y-106900347D01*
X169152935Y-106845200D01*
X168870265Y-106845200D01*
X168593026Y-106900347D01*
X168331873Y-107008520D01*
X168096841Y-107165563D01*
X167896963Y-107365441D01*
X167741600Y-107597959D01*
X167586237Y-107365441D01*
X167386359Y-107165563D01*
X167151327Y-107008520D01*
X166890174Y-106900347D01*
X166612935Y-106845200D01*
X166330265Y-106845200D01*
X166053026Y-106900347D01*
X165791873Y-107008520D01*
X165556841Y-107165563D01*
X165356963Y-107365441D01*
X165201600Y-107597959D01*
X165046237Y-107365441D01*
X164846359Y-107165563D01*
X164816600Y-107145679D01*
X164816600Y-106596469D01*
X164820881Y-106553000D01*
X164816600Y-106509531D01*
X164816600Y-106509523D01*
X164803795Y-106379510D01*
X164755404Y-106219989D01*
X164753189Y-106212686D01*
X164671011Y-106058941D01*
X164588132Y-105957953D01*
X164588130Y-105957951D01*
X164560417Y-105924183D01*
X164526650Y-105896471D01*
X162987934Y-104357756D01*
X162960217Y-104323983D01*
X162825459Y-104213389D01*
X162671713Y-104131211D01*
X162504890Y-104080605D01*
X162374877Y-104067800D01*
X162374869Y-104067800D01*
X162331400Y-104063519D01*
X162287931Y-104067800D01*
X158539469Y-104067800D01*
X158496000Y-104063519D01*
X158452531Y-104067800D01*
X158452523Y-104067800D01*
X158322510Y-104080605D01*
X158155687Y-104131211D01*
X158065641Y-104179341D01*
X158001941Y-104213389D01*
X157900953Y-104296268D01*
X157900951Y-104296270D01*
X157867183Y-104323983D01*
X157839470Y-104357751D01*
X154954551Y-107242671D01*
X154920784Y-107270383D01*
X154893071Y-107304151D01*
X154893068Y-107304154D01*
X154810190Y-107405141D01*
X154728012Y-107558887D01*
X154677405Y-107725710D01*
X154660319Y-107899200D01*
X154664601Y-107942679D01*
X154664600Y-114586731D01*
X154660319Y-114630200D01*
X154664600Y-114673669D01*
X154664600Y-114673676D01*
X154677405Y-114803689D01*
X154728011Y-114970512D01*
X154810189Y-115124258D01*
X154920783Y-115259017D01*
X154954556Y-115286734D01*
X170183870Y-130516049D01*
X170211583Y-130549817D01*
X170245351Y-130577530D01*
X170245353Y-130577532D01*
X170346340Y-130660410D01*
X170346341Y-130660411D01*
X170500087Y-130742589D01*
X170666910Y-130793195D01*
X170796923Y-130806000D01*
X170796931Y-130806000D01*
X170840400Y-130810281D01*
X170883869Y-130806000D01*
X196298531Y-130806000D01*
X196342000Y-130810281D01*
X196385469Y-130806000D01*
X196385477Y-130806000D01*
X196515490Y-130793195D01*
X196682313Y-130742589D01*
X196836059Y-130660411D01*
X196970817Y-130549817D01*
X196998534Y-130516044D01*
X199807249Y-127707330D01*
X199841017Y-127679617D01*
X199903837Y-127603072D01*
X199951611Y-127544859D01*
X200031415Y-127395554D01*
X200033789Y-127391113D01*
X200084395Y-127224290D01*
X200097200Y-127094277D01*
X200097200Y-127094269D01*
X200101481Y-127050800D01*
X200097200Y-127007331D01*
X200097200Y-124911512D01*
X202343983Y-124911512D01*
X202385413Y-125191130D01*
X202480597Y-125457292D01*
X202547529Y-125582514D01*
X202791498Y-125654097D01*
X203604595Y-124841000D01*
X203963805Y-124841000D01*
X204776902Y-125654097D01*
X205020871Y-125582514D01*
X205141771Y-125327004D01*
X205210500Y-125052816D01*
X205224417Y-124770488D01*
X205182987Y-124490870D01*
X205087803Y-124224708D01*
X205020871Y-124099486D01*
X204776902Y-124027903D01*
X203963805Y-124841000D01*
X203604595Y-124841000D01*
X202791498Y-124027903D01*
X202547529Y-124099486D01*
X202426629Y-124354996D01*
X202357900Y-124629184D01*
X202343983Y-124911512D01*
X200097200Y-124911512D01*
X200097200Y-117079578D01*
X202350070Y-114826709D01*
X202404347Y-115099574D01*
X202512520Y-115360727D01*
X202669563Y-115595759D01*
X202869441Y-115795637D01*
X203101959Y-115951000D01*
X202869441Y-116106363D01*
X202669563Y-116306241D01*
X202512520Y-116541273D01*
X202404347Y-116802426D01*
X202349200Y-117079665D01*
X202349200Y-117362335D01*
X202404347Y-117639574D01*
X202512520Y-117900727D01*
X202669563Y-118135759D01*
X202869441Y-118335637D01*
X203101959Y-118491000D01*
X202869441Y-118646363D01*
X202669563Y-118846241D01*
X202512520Y-119081273D01*
X202404347Y-119342426D01*
X202349200Y-119619665D01*
X202349200Y-119902335D01*
X202404347Y-120179574D01*
X202512520Y-120440727D01*
X202669563Y-120675759D01*
X202869441Y-120875637D01*
X203101959Y-121031000D01*
X202869441Y-121186363D01*
X202669563Y-121386241D01*
X202512520Y-121621273D01*
X202404347Y-121882426D01*
X202349200Y-122159665D01*
X202349200Y-122442335D01*
X202404347Y-122719574D01*
X202512520Y-122980727D01*
X202669563Y-123215759D01*
X202869441Y-123415637D01*
X203103328Y-123571915D01*
X203042686Y-123604329D01*
X202971103Y-123848298D01*
X203784200Y-124661395D01*
X204597297Y-123848298D01*
X204525714Y-123604329D01*
X204461208Y-123573806D01*
X204463927Y-123572680D01*
X204698959Y-123415637D01*
X204898837Y-123215759D01*
X205055880Y-122980727D01*
X205164053Y-122719574D01*
X205219200Y-122442335D01*
X205219200Y-122159665D01*
X205164053Y-121882426D01*
X205055880Y-121621273D01*
X204898837Y-121386241D01*
X204698959Y-121186363D01*
X204466441Y-121031000D01*
X204698959Y-120875637D01*
X204898837Y-120675759D01*
X205055880Y-120440727D01*
X205164053Y-120179574D01*
X205219200Y-119902335D01*
X205219200Y-119619665D01*
X205164053Y-119342426D01*
X205055880Y-119081273D01*
X204898837Y-118846241D01*
X204698959Y-118646363D01*
X204466441Y-118491000D01*
X204698959Y-118335637D01*
X204898837Y-118135759D01*
X205055880Y-117900727D01*
X205164053Y-117639574D01*
X205219200Y-117362335D01*
X205219200Y-117079665D01*
X205164053Y-116802426D01*
X205055880Y-116541273D01*
X204898837Y-116306241D01*
X204698959Y-116106363D01*
X204466441Y-115951000D01*
X204698959Y-115795637D01*
X204898837Y-115595759D01*
X205055880Y-115360727D01*
X205164053Y-115099574D01*
X205219200Y-114822335D01*
X205219200Y-114539665D01*
X205164053Y-114262426D01*
X205055880Y-114001273D01*
X204898837Y-113766241D01*
X204698959Y-113566363D01*
X204466441Y-113411000D01*
X204698959Y-113255637D01*
X204898837Y-113055759D01*
X205055880Y-112820727D01*
X205164053Y-112559574D01*
X205219200Y-112282335D01*
X205219200Y-111999665D01*
X205164053Y-111722426D01*
X205055880Y-111461273D01*
X204898837Y-111226241D01*
X204698959Y-111026363D01*
X204466441Y-110871000D01*
X204698959Y-110715637D01*
X204898837Y-110515759D01*
X205055880Y-110280727D01*
X205164053Y-110019574D01*
X205219200Y-109742335D01*
X205219200Y-109459665D01*
X205164053Y-109182426D01*
X205055880Y-108921273D01*
X204898837Y-108686241D01*
X204698959Y-108486363D01*
X204463927Y-108329320D01*
X204202774Y-108221147D01*
X203925535Y-108166000D01*
X203642865Y-108166000D01*
X203365626Y-108221147D01*
X203104473Y-108329320D01*
X202869441Y-108486363D01*
X202669563Y-108686241D01*
X202649679Y-108716000D01*
X201643269Y-108716000D01*
X201599800Y-108711719D01*
X201556331Y-108716000D01*
X201556323Y-108716000D01*
X201426310Y-108728805D01*
X201259487Y-108779411D01*
X201105741Y-108861589D01*
X201004753Y-108944468D01*
X201004751Y-108944470D01*
X200970983Y-108972183D01*
X200943270Y-109005951D01*
X197042356Y-112906866D01*
X197008583Y-112934583D01*
X196897989Y-113069342D01*
X196815811Y-113223088D01*
X196765205Y-113389911D01*
X196752400Y-113519924D01*
X196752400Y-113519931D01*
X196748119Y-113563400D01*
X196752400Y-113606869D01*
X196752401Y-125211020D01*
X194857822Y-127105600D01*
X172299179Y-127105600D01*
X162391779Y-117198200D01*
X172548528Y-117198200D01*
X172548528Y-120698200D01*
X172560788Y-120822682D01*
X172597098Y-120942380D01*
X172656063Y-121052694D01*
X172735415Y-121149385D01*
X172832106Y-121228737D01*
X172942420Y-121287702D01*
X173062118Y-121324012D01*
X173186600Y-121336272D01*
X174710600Y-121336272D01*
X174835082Y-121324012D01*
X174954780Y-121287702D01*
X175065094Y-121228737D01*
X175161785Y-121149385D01*
X175241137Y-121052694D01*
X175300102Y-120942380D01*
X175336412Y-120822682D01*
X175348672Y-120698200D01*
X175348672Y-117198200D01*
X175336412Y-117073718D01*
X175300102Y-116954020D01*
X175241137Y-116843706D01*
X175161785Y-116747015D01*
X175065094Y-116667663D01*
X174954780Y-116608698D01*
X174835082Y-116572388D01*
X174710600Y-116560128D01*
X173186600Y-116560128D01*
X173062118Y-116572388D01*
X172942420Y-116608698D01*
X172832106Y-116667663D01*
X172735415Y-116747015D01*
X172656063Y-116843706D01*
X172597098Y-116954020D01*
X172560788Y-117073718D01*
X172548528Y-117198200D01*
X162391779Y-117198200D01*
X162276600Y-117083022D01*
X162276600Y-109414721D01*
X162306359Y-109394837D01*
X162506237Y-109194959D01*
X162661600Y-108962441D01*
X162816963Y-109194959D01*
X163016841Y-109394837D01*
X163251873Y-109551880D01*
X163513026Y-109660053D01*
X163790265Y-109715200D01*
X164072935Y-109715200D01*
X164350174Y-109660053D01*
X164611327Y-109551880D01*
X164846359Y-109394837D01*
X165046237Y-109194959D01*
X165201600Y-108962441D01*
X165356963Y-109194959D01*
X165556841Y-109394837D01*
X165791873Y-109551880D01*
X166053026Y-109660053D01*
X166330265Y-109715200D01*
X166612935Y-109715200D01*
X166890174Y-109660053D01*
X167151327Y-109551880D01*
X167386359Y-109394837D01*
X167586237Y-109194959D01*
X167741600Y-108962441D01*
X167896963Y-109194959D01*
X168096841Y-109394837D01*
X168331873Y-109551880D01*
X168593026Y-109660053D01*
X168870265Y-109715200D01*
X169152935Y-109715200D01*
X169430174Y-109660053D01*
X169691327Y-109551880D01*
X169926359Y-109394837D01*
X170126237Y-109194959D01*
X170281600Y-108962441D01*
X170436963Y-109194959D01*
X170636841Y-109394837D01*
X170871873Y-109551880D01*
X171133026Y-109660053D01*
X171410265Y-109715200D01*
X171692935Y-109715200D01*
X171970174Y-109660053D01*
X172231327Y-109551880D01*
X172466359Y-109394837D01*
X172666237Y-109194959D01*
X172821600Y-108962441D01*
X172976963Y-109194959D01*
X173176841Y-109394837D01*
X173411873Y-109551880D01*
X173673026Y-109660053D01*
X173950265Y-109715200D01*
X174232935Y-109715200D01*
X174510174Y-109660053D01*
X174771327Y-109551880D01*
X175006359Y-109394837D01*
X175128294Y-109272902D01*
X175818503Y-109272902D01*
X175890086Y-109516871D01*
X176145596Y-109637771D01*
X176419784Y-109706500D01*
X176702112Y-109720417D01*
X176981730Y-109678987D01*
X177247892Y-109583803D01*
X177373114Y-109516871D01*
X177444697Y-109272902D01*
X176631600Y-108459805D01*
X175818503Y-109272902D01*
X175128294Y-109272902D01*
X175206237Y-109194959D01*
X175362515Y-108961072D01*
X175394929Y-109021714D01*
X175638898Y-109093297D01*
X176451995Y-108280200D01*
X176811205Y-108280200D01*
X177624302Y-109093297D01*
X177868271Y-109021714D01*
X177898794Y-108957208D01*
X177899920Y-108959927D01*
X178056963Y-109194959D01*
X178256841Y-109394837D01*
X178491873Y-109551880D01*
X178753026Y-109660053D01*
X179030265Y-109715200D01*
X179312935Y-109715200D01*
X179590174Y-109660053D01*
X179851327Y-109551880D01*
X180086359Y-109394837D01*
X180286237Y-109194959D01*
X180441600Y-108962441D01*
X180596963Y-109194959D01*
X180796841Y-109394837D01*
X181031873Y-109551880D01*
X181293026Y-109660053D01*
X181570265Y-109715200D01*
X181852935Y-109715200D01*
X182130174Y-109660053D01*
X182391327Y-109551880D01*
X182626359Y-109394837D01*
X182826237Y-109194959D01*
X182981600Y-108962441D01*
X183136963Y-109194959D01*
X183336841Y-109394837D01*
X183571873Y-109551880D01*
X183833026Y-109660053D01*
X184110265Y-109715200D01*
X184392935Y-109715200D01*
X184670174Y-109660053D01*
X184931327Y-109551880D01*
X185166359Y-109394837D01*
X185366237Y-109194959D01*
X185521600Y-108962441D01*
X185676963Y-109194959D01*
X185876841Y-109394837D01*
X186111873Y-109551880D01*
X186373026Y-109660053D01*
X186645891Y-109714330D01*
X179557501Y-116802721D01*
X179511785Y-116747015D01*
X179415094Y-116667663D01*
X179304780Y-116608698D01*
X179185082Y-116572388D01*
X179060600Y-116560128D01*
X177536600Y-116560128D01*
X177412118Y-116572388D01*
X177292420Y-116608698D01*
X177182106Y-116667663D01*
X177085415Y-116747015D01*
X177006063Y-116843706D01*
X176947098Y-116954020D01*
X176910788Y-117073718D01*
X176898528Y-117198200D01*
X176898528Y-120698200D01*
X176910788Y-120822682D01*
X176947098Y-120942380D01*
X177006063Y-121052694D01*
X177085415Y-121149385D01*
X177182106Y-121228737D01*
X177292420Y-121287702D01*
X177412118Y-121324012D01*
X177536600Y-121336272D01*
X179060600Y-121336272D01*
X179185082Y-121324012D01*
X179304780Y-121287702D01*
X179415094Y-121228737D01*
X179511785Y-121149385D01*
X179591137Y-121052694D01*
X179650102Y-120942380D01*
X179686412Y-120822682D01*
X179698672Y-120698200D01*
X179698672Y-119164706D01*
X189155162Y-109708217D01*
X189190265Y-109715200D01*
X189472935Y-109715200D01*
X189750174Y-109660053D01*
X190011327Y-109551880D01*
X190246359Y-109394837D01*
X190446237Y-109194959D01*
X190601600Y-108962441D01*
X190756963Y-109194959D01*
X190956841Y-109394837D01*
X190986600Y-109414721D01*
X190986601Y-116560128D01*
X189696600Y-116560128D01*
X189572118Y-116572388D01*
X189452420Y-116608698D01*
X189342106Y-116667663D01*
X189245415Y-116747015D01*
X189166063Y-116843706D01*
X189107098Y-116954020D01*
X189070788Y-117073718D01*
X189058528Y-117198200D01*
X189058528Y-120698200D01*
X189070788Y-120822682D01*
X189107098Y-120942380D01*
X189166063Y-121052694D01*
X189245415Y-121149385D01*
X189342106Y-121228737D01*
X189452420Y-121287702D01*
X189572118Y-121324012D01*
X189696600Y-121336272D01*
X191220600Y-121336272D01*
X191345082Y-121324012D01*
X191464780Y-121287702D01*
X191575094Y-121228737D01*
X191671785Y-121149385D01*
X191751137Y-121052694D01*
X191810102Y-120942380D01*
X191846412Y-120822682D01*
X191858672Y-120698200D01*
X191858672Y-118799707D01*
X192466649Y-118191730D01*
X192500417Y-118164017D01*
X192611011Y-118029259D01*
X192693189Y-117875513D01*
X192743795Y-117708690D01*
X192756600Y-117578677D01*
X192756600Y-117578669D01*
X192760881Y-117535200D01*
X192756600Y-117491731D01*
X192756600Y-117198200D01*
X193408528Y-117198200D01*
X193408528Y-120698200D01*
X193420788Y-120822682D01*
X193457098Y-120942380D01*
X193516063Y-121052694D01*
X193595415Y-121149385D01*
X193692106Y-121228737D01*
X193802420Y-121287702D01*
X193922118Y-121324012D01*
X194046600Y-121336272D01*
X195570600Y-121336272D01*
X195695082Y-121324012D01*
X195814780Y-121287702D01*
X195925094Y-121228737D01*
X196021785Y-121149385D01*
X196101137Y-121052694D01*
X196160102Y-120942380D01*
X196196412Y-120822682D01*
X196208672Y-120698200D01*
X196208672Y-117198200D01*
X196196412Y-117073718D01*
X196160102Y-116954020D01*
X196101137Y-116843706D01*
X196021785Y-116747015D01*
X195925094Y-116667663D01*
X195814780Y-116608698D01*
X195695082Y-116572388D01*
X195570600Y-116560128D01*
X194046600Y-116560128D01*
X193922118Y-116572388D01*
X193802420Y-116608698D01*
X193692106Y-116667663D01*
X193595415Y-116747015D01*
X193516063Y-116843706D01*
X193457098Y-116954020D01*
X193420788Y-117073718D01*
X193408528Y-117198200D01*
X192756600Y-117198200D01*
X192756600Y-109414721D01*
X192786359Y-109394837D01*
X192986237Y-109194959D01*
X193143280Y-108959927D01*
X193251453Y-108698774D01*
X193306600Y-108421535D01*
X193306600Y-108138865D01*
X193251453Y-107861626D01*
X193143280Y-107600473D01*
X192986237Y-107365441D01*
X192786359Y-107165563D01*
X192551327Y-107008520D01*
X192290174Y-106900347D01*
X192012935Y-106845200D01*
X191730265Y-106845200D01*
X191453026Y-106900347D01*
X191191873Y-107008520D01*
X190956841Y-107165563D01*
X190756963Y-107365441D01*
X190601600Y-107597959D01*
X190446237Y-107365441D01*
X190246359Y-107165563D01*
X190011327Y-107008520D01*
X189750174Y-106900347D01*
X189472935Y-106845200D01*
X189190265Y-106845200D01*
X188913026Y-106900347D01*
X188651873Y-107008520D01*
X188416841Y-107165563D01*
X188216963Y-107365441D01*
X188061600Y-107597959D01*
X187906237Y-107365441D01*
X187706359Y-107165563D01*
X187471327Y-107008520D01*
X187210174Y-106900347D01*
X186932935Y-106845200D01*
X186650265Y-106845200D01*
X186373026Y-106900347D01*
X186111873Y-107008520D01*
X185876841Y-107165563D01*
X185676963Y-107365441D01*
X185521600Y-107597959D01*
X185366237Y-107365441D01*
X185166359Y-107165563D01*
X184931327Y-107008520D01*
X184670174Y-106900347D01*
X184392935Y-106845200D01*
X184110265Y-106845200D01*
X183833026Y-106900347D01*
X183571873Y-107008520D01*
X183336841Y-107165563D01*
X183136963Y-107365441D01*
X182981600Y-107597959D01*
X182826237Y-107365441D01*
X182626359Y-107165563D01*
X182391327Y-107008520D01*
X182130174Y-106900347D01*
X181852935Y-106845200D01*
X181570265Y-106845200D01*
X181293026Y-106900347D01*
X181031873Y-107008520D01*
X180796841Y-107165563D01*
X180596963Y-107365441D01*
X180441600Y-107597959D01*
X180286237Y-107365441D01*
X180086359Y-107165563D01*
X179851327Y-107008520D01*
X179590174Y-106900347D01*
X179312935Y-106845200D01*
X179030265Y-106845200D01*
X178753026Y-106900347D01*
X178491873Y-107008520D01*
X178256841Y-107165563D01*
X178056963Y-107365441D01*
X177900685Y-107599328D01*
X177868271Y-107538686D01*
X177624302Y-107467103D01*
X176811205Y-108280200D01*
X176451995Y-108280200D01*
X176437853Y-108266058D01*
X176617458Y-108086453D01*
X176631600Y-108100595D01*
X177444697Y-107287498D01*
X177373114Y-107043529D01*
X177117604Y-106922629D01*
X176843416Y-106853900D01*
X176772952Y-106850427D01*
X177506179Y-106117200D01*
X192336131Y-106117200D01*
X192379600Y-106121481D01*
X192423069Y-106117200D01*
X192423077Y-106117200D01*
X192553090Y-106104395D01*
X192719913Y-106053789D01*
X192873659Y-105971611D01*
X193008417Y-105861017D01*
X193036134Y-105827244D01*
X195260649Y-103602730D01*
X195294417Y-103575017D01*
X195362866Y-103491613D01*
X195405010Y-103440260D01*
X195409522Y-103431819D01*
X195487189Y-103286513D01*
X195537795Y-103119690D01*
X195550600Y-102989677D01*
X195550600Y-102989667D01*
X195554881Y-102946201D01*
X195550600Y-102902735D01*
X195550600Y-101213898D01*
X210111400Y-101213898D01*
X210111400Y-101683702D01*
X210203054Y-102144479D01*
X210382840Y-102578521D01*
X210643850Y-102969149D01*
X210976051Y-103301350D01*
X211366679Y-103562360D01*
X211800721Y-103742146D01*
X212261498Y-103833800D01*
X212731302Y-103833800D01*
X213192079Y-103742146D01*
X213626121Y-103562360D01*
X214016749Y-103301350D01*
X214348950Y-102969149D01*
X214609960Y-102578521D01*
X214789746Y-102144479D01*
X214881400Y-101683702D01*
X214881400Y-101213898D01*
X214789746Y-100753121D01*
X214609960Y-100319079D01*
X214348950Y-99928451D01*
X214016749Y-99596250D01*
X213626121Y-99335240D01*
X213192079Y-99155454D01*
X212731302Y-99063800D01*
X212261498Y-99063800D01*
X211800721Y-99155454D01*
X211366679Y-99335240D01*
X210976051Y-99596250D01*
X210643850Y-99928451D01*
X210382840Y-100319079D01*
X210203054Y-100753121D01*
X210111400Y-101213898D01*
X195550600Y-101213898D01*
X195550600Y-98925669D01*
X195554881Y-98882200D01*
X195550600Y-98838731D01*
X195550600Y-98838723D01*
X195537795Y-98708710D01*
X195487189Y-98541887D01*
X195405011Y-98388141D01*
X195294417Y-98253383D01*
X195260650Y-98225671D01*
X193544134Y-96509156D01*
X193516417Y-96475383D01*
X193381659Y-96364789D01*
X193227913Y-96282611D01*
X193061090Y-96232005D01*
X192931077Y-96219200D01*
X192931069Y-96219200D01*
X192887600Y-96214919D01*
X192844131Y-96219200D01*
X176744179Y-96219200D01*
X174722600Y-94197622D01*
X174722600Y-93508825D01*
X174812082Y-93500012D01*
X174931780Y-93463702D01*
X175042094Y-93404737D01*
X175138785Y-93325385D01*
X175218137Y-93228694D01*
X175277102Y-93118380D01*
X175299113Y-93045820D01*
X175430968Y-93177675D01*
X175674189Y-93340190D01*
X175944442Y-93452132D01*
X176231340Y-93509200D01*
X176523860Y-93509200D01*
X176810758Y-93452132D01*
X177081011Y-93340190D01*
X177324232Y-93177675D01*
X177531075Y-92970832D01*
X177647600Y-92796440D01*
X177764125Y-92970832D01*
X177970968Y-93177675D01*
X178214189Y-93340190D01*
X178484442Y-93452132D01*
X178771340Y-93509200D01*
X179063860Y-93509200D01*
X179350758Y-93452132D01*
X179621011Y-93340190D01*
X179864232Y-93177675D01*
X180071075Y-92970832D01*
X180233590Y-92727611D01*
X180345532Y-92457358D01*
X180402600Y-92170460D01*
X180402600Y-91877940D01*
X180345532Y-91591042D01*
X180233590Y-91320789D01*
X180135643Y-91174200D01*
X182763528Y-91174200D01*
X182763528Y-92874200D01*
X182775788Y-92998682D01*
X182812098Y-93118380D01*
X182871063Y-93228694D01*
X182950415Y-93325385D01*
X183047106Y-93404737D01*
X183157420Y-93463702D01*
X183277118Y-93500012D01*
X183401600Y-93512272D01*
X185101600Y-93512272D01*
X185226082Y-93500012D01*
X185345780Y-93463702D01*
X185456094Y-93404737D01*
X185552785Y-93325385D01*
X185632137Y-93228694D01*
X185691102Y-93118380D01*
X185713113Y-93045820D01*
X185844968Y-93177675D01*
X186088189Y-93340190D01*
X186358442Y-93452132D01*
X186645340Y-93509200D01*
X186937860Y-93509200D01*
X187224758Y-93452132D01*
X187495011Y-93340190D01*
X187738232Y-93177675D01*
X187945075Y-92970832D01*
X188066795Y-92788666D01*
X188136422Y-92905555D01*
X188331331Y-93121788D01*
X188564680Y-93295841D01*
X188827501Y-93421025D01*
X188974710Y-93465676D01*
X189204600Y-93344355D01*
X189204600Y-92151200D01*
X189458600Y-92151200D01*
X189458600Y-93344355D01*
X189688490Y-93465676D01*
X189835699Y-93421025D01*
X190098520Y-93295841D01*
X190331869Y-93121788D01*
X190526778Y-92905555D01*
X190675757Y-92655452D01*
X190773081Y-92381091D01*
X190682342Y-92208217D01*
X228671290Y-92208217D01*
X228712278Y-92480333D01*
X228805564Y-92739223D01*
X228867544Y-92855180D01*
X229107635Y-92922160D01*
X229893595Y-92136200D01*
X230252805Y-92136200D01*
X231038765Y-92922160D01*
X231278856Y-92855180D01*
X231395956Y-92606152D01*
X231462223Y-92339065D01*
X231475110Y-92064183D01*
X231434122Y-91792067D01*
X231340836Y-91533177D01*
X231278856Y-91417220D01*
X231038765Y-91350240D01*
X230252805Y-92136200D01*
X229893595Y-92136200D01*
X229107635Y-91350240D01*
X228867544Y-91417220D01*
X228750444Y-91666248D01*
X228684177Y-91933335D01*
X228671290Y-92208217D01*
X190682342Y-92208217D01*
X190652414Y-92151200D01*
X189458600Y-92151200D01*
X189204600Y-92151200D01*
X189184600Y-92151200D01*
X189184600Y-91897200D01*
X189204600Y-91897200D01*
X189204600Y-90704045D01*
X189458600Y-90704045D01*
X189458600Y-91897200D01*
X190652414Y-91897200D01*
X190773081Y-91667309D01*
X190675757Y-91392948D01*
X190543332Y-91170635D01*
X229287240Y-91170635D01*
X230073200Y-91956595D01*
X230859160Y-91170635D01*
X230792180Y-90930544D01*
X230543152Y-90813444D01*
X230276065Y-90747177D01*
X230001183Y-90734290D01*
X229729067Y-90775278D01*
X229470177Y-90868564D01*
X229354220Y-90930544D01*
X229287240Y-91170635D01*
X190543332Y-91170635D01*
X190526778Y-91142845D01*
X190331869Y-90926612D01*
X190098520Y-90752559D01*
X189835699Y-90627375D01*
X189688490Y-90582724D01*
X189458600Y-90704045D01*
X189204600Y-90704045D01*
X188974710Y-90582724D01*
X188827501Y-90627375D01*
X188564680Y-90752559D01*
X188331331Y-90926612D01*
X188136422Y-91142845D01*
X188066795Y-91259734D01*
X187945075Y-91077568D01*
X187738232Y-90870725D01*
X187495011Y-90708210D01*
X187224758Y-90596268D01*
X186937860Y-90539200D01*
X186645340Y-90539200D01*
X186358442Y-90596268D01*
X186088189Y-90708210D01*
X185844968Y-90870725D01*
X185713113Y-91002580D01*
X185691102Y-90930020D01*
X185632137Y-90819706D01*
X185552785Y-90723015D01*
X185456094Y-90643663D01*
X185345780Y-90584698D01*
X185226082Y-90548388D01*
X185101600Y-90536128D01*
X183401600Y-90536128D01*
X183277118Y-90548388D01*
X183157420Y-90584698D01*
X183047106Y-90643663D01*
X182950415Y-90723015D01*
X182871063Y-90819706D01*
X182812098Y-90930020D01*
X182775788Y-91049718D01*
X182763528Y-91174200D01*
X180135643Y-91174200D01*
X180071075Y-91077568D01*
X179864232Y-90870725D01*
X179621011Y-90708210D01*
X179350758Y-90596268D01*
X179063860Y-90539200D01*
X178771340Y-90539200D01*
X178484442Y-90596268D01*
X178214189Y-90708210D01*
X177970968Y-90870725D01*
X177764125Y-91077568D01*
X177647600Y-91251960D01*
X177531075Y-91077568D01*
X177324232Y-90870725D01*
X177081011Y-90708210D01*
X176810758Y-90596268D01*
X176523860Y-90539200D01*
X176231340Y-90539200D01*
X175944442Y-90596268D01*
X175674189Y-90708210D01*
X175430968Y-90870725D01*
X175299113Y-91002580D01*
X175277102Y-90930020D01*
X175218137Y-90819706D01*
X175138785Y-90723015D01*
X175042094Y-90643663D01*
X174931780Y-90584698D01*
X174812082Y-90548388D01*
X174722600Y-90539575D01*
X174722600Y-82078378D01*
X177810979Y-78990000D01*
X205881422Y-78990000D01*
X209071401Y-82179980D01*
X209071400Y-84274295D01*
X209070166Y-84274955D01*
X208828437Y-84473337D01*
X208630055Y-84715065D01*
X208482645Y-84990851D01*
X208391870Y-85290096D01*
X208368900Y-85523314D01*
X208368900Y-85774285D01*
X208391870Y-86007503D01*
X208482645Y-86306748D01*
X208630055Y-86582534D01*
X208828437Y-86824263D01*
X209070165Y-87022645D01*
X209345951Y-87170055D01*
X209645196Y-87260830D01*
X209956400Y-87291481D01*
X210267603Y-87260830D01*
X210566848Y-87170055D01*
X210842634Y-87022645D01*
X211084363Y-86824263D01*
X211231563Y-86644901D01*
X211386963Y-86830115D01*
X211629477Y-87024769D01*
X211905306Y-87168371D01*
X212123420Y-87239363D01*
X212369400Y-87119394D01*
X212369400Y-85775800D01*
X212349400Y-85775800D01*
X212349400Y-85521800D01*
X212369400Y-85521800D01*
X212369400Y-85501800D01*
X212623400Y-85501800D01*
X212623400Y-85521800D01*
X212643400Y-85521800D01*
X212643400Y-85775800D01*
X212623400Y-85775800D01*
X212623400Y-87119394D01*
X212869380Y-87239363D01*
X213087494Y-87168371D01*
X213363323Y-87024769D01*
X213504341Y-86911581D01*
X213553363Y-87003294D01*
X213632715Y-87099985D01*
X213729406Y-87179337D01*
X213839720Y-87238302D01*
X213959418Y-87274612D01*
X214083900Y-87286872D01*
X215988900Y-87286872D01*
X216113382Y-87274612D01*
X216233080Y-87238302D01*
X216343394Y-87179337D01*
X216440085Y-87099985D01*
X216519437Y-87003294D01*
X216578402Y-86892980D01*
X216614712Y-86773282D01*
X216626972Y-86648800D01*
X216626972Y-85309806D01*
X219035179Y-82901600D01*
X231967222Y-82901600D01*
X240034001Y-90968380D01*
X240034000Y-103646421D01*
X237606022Y-106074400D01*
X232674979Y-106074400D01*
X230907400Y-104306822D01*
X230907400Y-103691753D01*
X230930650Y-103726549D01*
X231262851Y-104058750D01*
X231653479Y-104319760D01*
X232087521Y-104499546D01*
X232548298Y-104591200D01*
X233018102Y-104591200D01*
X233478879Y-104499546D01*
X233912921Y-104319760D01*
X234303549Y-104058750D01*
X234635750Y-103726549D01*
X234896760Y-103335921D01*
X235076546Y-102901879D01*
X235168200Y-102441102D01*
X235168200Y-102133438D01*
X237522519Y-99779120D01*
X237584914Y-99727914D01*
X237789231Y-99478952D01*
X237941052Y-99194915D01*
X238034543Y-98886716D01*
X238058200Y-98646522D01*
X238058200Y-98646520D01*
X238066111Y-98566201D01*
X238058200Y-98485881D01*
X238058200Y-92786519D01*
X238066111Y-92706199D01*
X238051657Y-92559450D01*
X238034543Y-92385684D01*
X237941052Y-92077485D01*
X237789231Y-91793448D01*
X237584914Y-91544486D01*
X237522520Y-91493281D01*
X235168200Y-89138962D01*
X235168200Y-88831298D01*
X235076546Y-88370521D01*
X234896760Y-87936479D01*
X234635750Y-87545851D01*
X234303549Y-87213650D01*
X233912921Y-86952640D01*
X233478879Y-86772854D01*
X233018102Y-86681200D01*
X232548298Y-86681200D01*
X232087521Y-86772854D01*
X231653479Y-86952640D01*
X231262851Y-87213650D01*
X230930650Y-87545851D01*
X230669640Y-87936479D01*
X230489854Y-88370521D01*
X230398200Y-88831298D01*
X230398200Y-89301102D01*
X230489854Y-89761879D01*
X230669640Y-90195921D01*
X230930650Y-90586549D01*
X231262851Y-90918750D01*
X231653479Y-91179760D01*
X232087521Y-91359546D01*
X232548298Y-91451200D01*
X232855962Y-91451200D01*
X234788200Y-93383439D01*
X234788201Y-97888960D01*
X232855962Y-99821200D01*
X232548298Y-99821200D01*
X232087521Y-99912854D01*
X231653479Y-100092640D01*
X231307209Y-100324011D01*
X231365737Y-100252694D01*
X231424702Y-100142380D01*
X231461012Y-100022682D01*
X231473272Y-99898200D01*
X231473272Y-98374200D01*
X231461012Y-98249718D01*
X231424702Y-98130020D01*
X231365737Y-98019706D01*
X231286385Y-97923015D01*
X231189694Y-97843663D01*
X231079380Y-97784698D01*
X230959682Y-97748388D01*
X230927908Y-97745259D01*
X230963735Y-97721320D01*
X231158320Y-97526735D01*
X231311205Y-97297927D01*
X231416514Y-97043690D01*
X231470200Y-96773792D01*
X231470200Y-96498608D01*
X231416514Y-96228710D01*
X231311205Y-95974473D01*
X231158320Y-95745665D01*
X231048855Y-95636200D01*
X231158320Y-95526735D01*
X231311205Y-95297927D01*
X231416514Y-95043690D01*
X231470200Y-94773792D01*
X231470200Y-94498608D01*
X231416514Y-94228710D01*
X231311205Y-93974473D01*
X231158320Y-93745665D01*
X230963735Y-93551080D01*
X230734927Y-93398195D01*
X230707799Y-93386958D01*
X230792180Y-93341856D01*
X230859160Y-93101765D01*
X230073200Y-92315805D01*
X229287240Y-93101765D01*
X229354220Y-93341856D01*
X229444733Y-93384418D01*
X229411473Y-93398195D01*
X229182665Y-93551080D01*
X228988080Y-93745665D01*
X228835195Y-93974473D01*
X228729886Y-94228710D01*
X228676200Y-94498608D01*
X228676200Y-94773792D01*
X228729886Y-95043690D01*
X228835195Y-95297927D01*
X228988080Y-95526735D01*
X229097545Y-95636200D01*
X228988080Y-95745665D01*
X228835195Y-95974473D01*
X228729886Y-96228710D01*
X228676200Y-96498608D01*
X228676200Y-96773792D01*
X228729886Y-97043690D01*
X228835195Y-97297927D01*
X228988080Y-97526735D01*
X229182665Y-97721320D01*
X229218492Y-97745259D01*
X229186718Y-97748388D01*
X229067020Y-97784698D01*
X228956706Y-97843663D01*
X228860015Y-97923015D01*
X228780663Y-98019706D01*
X228721698Y-98130020D01*
X228685388Y-98249718D01*
X228673128Y-98374200D01*
X228673128Y-99898200D01*
X228685388Y-100022682D01*
X228721698Y-100142380D01*
X228780663Y-100252694D01*
X228860015Y-100349385D01*
X228956706Y-100428737D01*
X229067020Y-100487702D01*
X229186718Y-100524012D01*
X229188200Y-100524158D01*
X229188201Y-102504259D01*
X229150205Y-102629513D01*
X229137400Y-102759526D01*
X229137400Y-102759533D01*
X229133119Y-102803002D01*
X229137400Y-102846471D01*
X229137401Y-104629921D01*
X229133119Y-104673400D01*
X229150205Y-104846890D01*
X229200812Y-105013713D01*
X229282990Y-105167459D01*
X229365868Y-105268446D01*
X229365871Y-105268449D01*
X229393584Y-105302217D01*
X229427351Y-105329929D01*
X231651870Y-107554449D01*
X231679583Y-107588217D01*
X231713351Y-107615930D01*
X231713353Y-107615932D01*
X231756550Y-107651383D01*
X231814341Y-107698811D01*
X231968087Y-107780989D01*
X232134910Y-107831595D01*
X232264923Y-107844400D01*
X232264933Y-107844400D01*
X232308399Y-107848681D01*
X232351865Y-107844400D01*
X237929131Y-107844400D01*
X237972600Y-107848681D01*
X238016069Y-107844400D01*
X238016077Y-107844400D01*
X238146090Y-107831595D01*
X238312913Y-107780989D01*
X238466659Y-107698811D01*
X238601417Y-107588217D01*
X238629134Y-107554444D01*
X241456400Y-104727179D01*
X241456401Y-122290020D01*
X230392422Y-133354000D01*
X218167901Y-133354000D01*
X218164012Y-133314518D01*
X218127702Y-133194820D01*
X218068737Y-133084506D01*
X217989385Y-132987815D01*
X217892694Y-132908463D01*
X217782380Y-132849498D01*
X217662682Y-132813188D01*
X217538200Y-132800928D01*
X217530985Y-132800928D01*
X217551297Y-132731702D01*
X216738200Y-131918605D01*
X215925103Y-132731702D01*
X215945415Y-132800928D01*
X215938200Y-132800928D01*
X215813718Y-132813188D01*
X215694020Y-132849498D01*
X215583706Y-132908463D01*
X215487015Y-132987815D01*
X215407663Y-133084506D01*
X215348698Y-133194820D01*
X215312388Y-133314518D01*
X215308499Y-133354000D01*
X211008779Y-133354000D01*
X209464291Y-131809512D01*
X215297983Y-131809512D01*
X215339413Y-132089130D01*
X215434597Y-132355292D01*
X215501529Y-132480514D01*
X215745498Y-132552097D01*
X216558595Y-131739000D01*
X216917805Y-131739000D01*
X217730902Y-132552097D01*
X217974871Y-132480514D01*
X218095771Y-132225004D01*
X218164500Y-131950816D01*
X218178417Y-131668488D01*
X218136987Y-131388870D01*
X218041803Y-131122708D01*
X217974871Y-130997486D01*
X217730902Y-130925903D01*
X216917805Y-131739000D01*
X216558595Y-131739000D01*
X215745498Y-130925903D01*
X215501529Y-130997486D01*
X215380629Y-131252996D01*
X215311900Y-131527184D01*
X215297983Y-131809512D01*
X209464291Y-131809512D01*
X208401077Y-130746298D01*
X215925103Y-130746298D01*
X216738200Y-131559395D01*
X217551297Y-130746298D01*
X217479714Y-130502329D01*
X217224204Y-130381429D01*
X216950016Y-130312700D01*
X216667688Y-130298783D01*
X216388070Y-130340213D01*
X216121908Y-130435397D01*
X215996686Y-130502329D01*
X215925103Y-130746298D01*
X208401077Y-130746298D01*
X205212217Y-127557439D01*
X205219200Y-127522335D01*
X205219200Y-127239665D01*
X205164053Y-126962426D01*
X205055880Y-126701273D01*
X204975517Y-126581000D01*
X209966128Y-126581000D01*
X209966128Y-128181000D01*
X209978388Y-128305482D01*
X210014698Y-128425180D01*
X210073663Y-128535494D01*
X210153015Y-128632185D01*
X210249706Y-128711537D01*
X210360020Y-128770502D01*
X210479718Y-128806812D01*
X210604200Y-128819072D01*
X212204200Y-128819072D01*
X212328682Y-128806812D01*
X212448380Y-128770502D01*
X212558694Y-128711537D01*
X212655385Y-128632185D01*
X212734737Y-128535494D01*
X212793702Y-128425180D01*
X212830012Y-128305482D01*
X212842272Y-128181000D01*
X212842272Y-126581000D01*
X212830012Y-126456518D01*
X212793702Y-126336820D01*
X212734737Y-126226506D01*
X212655385Y-126129815D01*
X212558694Y-126050463D01*
X212448380Y-125991498D01*
X212328682Y-125955188D01*
X212320239Y-125954357D01*
X212509596Y-125765000D01*
X215500128Y-125765000D01*
X215500128Y-126965000D01*
X215512388Y-127089482D01*
X215548698Y-127209180D01*
X215607663Y-127319494D01*
X215687015Y-127416185D01*
X215783706Y-127495537D01*
X215894020Y-127554502D01*
X216013718Y-127590812D01*
X216138200Y-127603072D01*
X217338200Y-127603072D01*
X217462682Y-127590812D01*
X217582380Y-127554502D01*
X217692694Y-127495537D01*
X217789385Y-127416185D01*
X217868737Y-127319494D01*
X217927702Y-127209180D01*
X217964012Y-127089482D01*
X217976272Y-126965000D01*
X217976272Y-125765000D01*
X217964012Y-125640518D01*
X217927702Y-125520820D01*
X217868737Y-125410506D01*
X217789385Y-125313815D01*
X217692694Y-125234463D01*
X217642253Y-125207501D01*
X217697487Y-125152267D01*
X217832643Y-124949992D01*
X217925740Y-124725236D01*
X217973200Y-124486637D01*
X217973200Y-124243363D01*
X217925740Y-124004764D01*
X217832643Y-123780008D01*
X217697487Y-123577733D01*
X217525467Y-123405713D01*
X217323192Y-123270557D01*
X217098436Y-123177460D01*
X216859837Y-123130000D01*
X216616563Y-123130000D01*
X216377964Y-123177460D01*
X216153208Y-123270557D01*
X215950933Y-123405713D01*
X215778913Y-123577733D01*
X215643757Y-123780008D01*
X215550660Y-124004764D01*
X215503200Y-124243363D01*
X215503200Y-124486637D01*
X215550660Y-124725236D01*
X215643757Y-124949992D01*
X215778913Y-125152267D01*
X215834147Y-125207501D01*
X215783706Y-125234463D01*
X215687015Y-125313815D01*
X215607663Y-125410506D01*
X215548698Y-125520820D01*
X215512388Y-125640518D01*
X215500128Y-125765000D01*
X212509596Y-125765000D01*
X212518837Y-125755759D01*
X212675880Y-125520727D01*
X212784053Y-125259574D01*
X212839200Y-124982335D01*
X212839200Y-124699665D01*
X212784053Y-124422426D01*
X212675880Y-124161273D01*
X212518837Y-123926241D01*
X212318959Y-123726363D01*
X212086441Y-123571000D01*
X212318959Y-123415637D01*
X212518837Y-123215759D01*
X212675880Y-122980727D01*
X212784053Y-122719574D01*
X212839200Y-122442335D01*
X212839200Y-122159665D01*
X212784053Y-121882426D01*
X212675880Y-121621273D01*
X212518837Y-121386241D01*
X212318959Y-121186363D01*
X212086441Y-121031000D01*
X212318959Y-120875637D01*
X212518837Y-120675759D01*
X212675880Y-120440727D01*
X212784053Y-120179574D01*
X212839200Y-119902335D01*
X212839200Y-119619665D01*
X212838758Y-119617438D01*
X215499705Y-119617438D01*
X215538805Y-119857549D01*
X215623998Y-120085418D01*
X215664852Y-120161852D01*
X215888434Y-120209158D01*
X215771328Y-120326264D01*
X215829206Y-120384142D01*
X215783706Y-120408463D01*
X215687015Y-120487815D01*
X215607663Y-120584506D01*
X215548698Y-120694820D01*
X215512388Y-120814518D01*
X215500128Y-120939000D01*
X215500128Y-122139000D01*
X215512388Y-122263482D01*
X215548698Y-122383180D01*
X215607663Y-122493494D01*
X215687015Y-122590185D01*
X215783706Y-122669537D01*
X215894020Y-122728502D01*
X216013718Y-122764812D01*
X216138200Y-122777072D01*
X217338200Y-122777072D01*
X217462682Y-122764812D01*
X217582380Y-122728502D01*
X217692694Y-122669537D01*
X217789385Y-122590185D01*
X217868737Y-122493494D01*
X217927702Y-122383180D01*
X217964012Y-122263482D01*
X217976272Y-122139000D01*
X217976272Y-120939000D01*
X217964012Y-120814518D01*
X217927702Y-120694820D01*
X217868737Y-120584506D01*
X217789385Y-120487815D01*
X217692694Y-120408463D01*
X217647194Y-120384142D01*
X217705072Y-120326264D01*
X217587966Y-120209158D01*
X217811548Y-120161852D01*
X217912437Y-119940484D01*
X217968200Y-119703687D01*
X217976695Y-119460562D01*
X217937595Y-119220451D01*
X217852402Y-118992582D01*
X217811548Y-118916148D01*
X217587964Y-118868841D01*
X216917805Y-119539000D01*
X216931948Y-119553143D01*
X216752343Y-119732748D01*
X216738200Y-119718605D01*
X216724058Y-119732748D01*
X216544453Y-119553143D01*
X216558595Y-119539000D01*
X215888436Y-118868841D01*
X215664852Y-118916148D01*
X215563963Y-119137516D01*
X215508200Y-119374313D01*
X215499705Y-119617438D01*
X212838758Y-119617438D01*
X212784053Y-119342426D01*
X212675880Y-119081273D01*
X212518837Y-118846241D01*
X212361832Y-118689236D01*
X216068041Y-118689236D01*
X216738200Y-119359395D01*
X217408359Y-118689236D01*
X217361052Y-118465652D01*
X217139684Y-118364763D01*
X216902887Y-118309000D01*
X216659762Y-118300505D01*
X216419651Y-118339605D01*
X216191782Y-118424798D01*
X216115348Y-118465652D01*
X216068041Y-118689236D01*
X212361832Y-118689236D01*
X212318959Y-118646363D01*
X212086441Y-118491000D01*
X212318959Y-118335637D01*
X212518837Y-118135759D01*
X212675880Y-117900727D01*
X212784053Y-117639574D01*
X212839200Y-117362335D01*
X212839200Y-117079665D01*
X212784053Y-116802426D01*
X212675880Y-116541273D01*
X212518837Y-116306241D01*
X212325596Y-116113000D01*
X215500128Y-116113000D01*
X215500128Y-117313000D01*
X215512388Y-117437482D01*
X215548698Y-117557180D01*
X215607663Y-117667494D01*
X215687015Y-117764185D01*
X215783706Y-117843537D01*
X215894020Y-117902502D01*
X216013718Y-117938812D01*
X216138200Y-117951072D01*
X217338200Y-117951072D01*
X217462682Y-117938812D01*
X217582380Y-117902502D01*
X217692694Y-117843537D01*
X217789385Y-117764185D01*
X217868737Y-117667494D01*
X217927702Y-117557180D01*
X217964012Y-117437482D01*
X217976272Y-117313000D01*
X217976272Y-116113000D01*
X217964012Y-115988518D01*
X217927702Y-115868820D01*
X217868737Y-115758506D01*
X217789385Y-115661815D01*
X217692694Y-115582463D01*
X217642253Y-115555501D01*
X217697487Y-115500267D01*
X217832643Y-115297992D01*
X217925740Y-115073236D01*
X217973200Y-114834637D01*
X217973200Y-114591363D01*
X217925740Y-114352764D01*
X217832643Y-114128008D01*
X217697487Y-113925733D01*
X217525467Y-113753713D01*
X217323192Y-113618557D01*
X217098436Y-113525460D01*
X216859837Y-113478000D01*
X216616563Y-113478000D01*
X216377964Y-113525460D01*
X216153208Y-113618557D01*
X215950933Y-113753713D01*
X215778913Y-113925733D01*
X215643757Y-114128008D01*
X215550660Y-114352764D01*
X215503200Y-114591363D01*
X215503200Y-114834637D01*
X215550660Y-115073236D01*
X215643757Y-115297992D01*
X215778913Y-115500267D01*
X215834147Y-115555501D01*
X215783706Y-115582463D01*
X215687015Y-115661815D01*
X215607663Y-115758506D01*
X215548698Y-115868820D01*
X215512388Y-115988518D01*
X215500128Y-116113000D01*
X212325596Y-116113000D01*
X212318959Y-116106363D01*
X212086441Y-115951000D01*
X212318959Y-115795637D01*
X212518837Y-115595759D01*
X212675880Y-115360727D01*
X212784053Y-115099574D01*
X212839200Y-114822335D01*
X212839200Y-114539665D01*
X212784053Y-114262426D01*
X212675880Y-114001273D01*
X212518837Y-113766241D01*
X212318959Y-113566363D01*
X212086441Y-113411000D01*
X212318959Y-113255637D01*
X212518837Y-113055759D01*
X212675880Y-112820727D01*
X212784053Y-112559574D01*
X212798489Y-112487000D01*
X215500128Y-112487000D01*
X215512388Y-112611482D01*
X215548698Y-112731180D01*
X215607663Y-112841494D01*
X215687015Y-112938185D01*
X215783706Y-113017537D01*
X215894020Y-113076502D01*
X216013718Y-113112812D01*
X216138200Y-113125072D01*
X216452450Y-113122000D01*
X216611200Y-112963250D01*
X216611200Y-112014000D01*
X216865200Y-112014000D01*
X216865200Y-112963250D01*
X217023950Y-113122000D01*
X217338200Y-113125072D01*
X217462682Y-113112812D01*
X217582380Y-113076502D01*
X217692694Y-113017537D01*
X217789385Y-112938185D01*
X217868737Y-112841494D01*
X217927702Y-112731180D01*
X217964012Y-112611482D01*
X217976272Y-112487000D01*
X217973200Y-112172750D01*
X217814450Y-112014000D01*
X216865200Y-112014000D01*
X216611200Y-112014000D01*
X215661950Y-112014000D01*
X215503200Y-112172750D01*
X215500128Y-112487000D01*
X212798489Y-112487000D01*
X212839200Y-112282335D01*
X212839200Y-111999665D01*
X212784053Y-111722426D01*
X212675880Y-111461273D01*
X212559435Y-111287000D01*
X215500128Y-111287000D01*
X215503200Y-111601250D01*
X215661950Y-111760000D01*
X216611200Y-111760000D01*
X216611200Y-111740000D01*
X216865200Y-111740000D01*
X216865200Y-111760000D01*
X217814450Y-111760000D01*
X217973200Y-111601250D01*
X217976272Y-111287000D01*
X217964012Y-111162518D01*
X217927702Y-111042820D01*
X217868737Y-110932506D01*
X217789385Y-110835815D01*
X217692694Y-110756463D01*
X217642253Y-110729501D01*
X217697487Y-110674267D01*
X217832643Y-110471992D01*
X217925740Y-110247236D01*
X217973200Y-110008637D01*
X217973200Y-109765363D01*
X217925740Y-109526764D01*
X217832643Y-109302008D01*
X217697487Y-109099733D01*
X217525467Y-108927713D01*
X217323192Y-108792557D01*
X217098436Y-108699460D01*
X216859837Y-108652000D01*
X216616563Y-108652000D01*
X216377964Y-108699460D01*
X216153208Y-108792557D01*
X215950933Y-108927713D01*
X215778913Y-109099733D01*
X215643757Y-109302008D01*
X215550660Y-109526764D01*
X215503200Y-109765363D01*
X215503200Y-110008637D01*
X215550660Y-110247236D01*
X215643757Y-110471992D01*
X215778913Y-110674267D01*
X215834147Y-110729501D01*
X215783706Y-110756463D01*
X215687015Y-110835815D01*
X215607663Y-110932506D01*
X215548698Y-111042820D01*
X215512388Y-111162518D01*
X215500128Y-111287000D01*
X212559435Y-111287000D01*
X212518837Y-111226241D01*
X212318959Y-111026363D01*
X212086441Y-110871000D01*
X212318959Y-110715637D01*
X212518837Y-110515759D01*
X212675880Y-110280727D01*
X212784053Y-110019574D01*
X212839200Y-109742335D01*
X212839200Y-109459665D01*
X212784053Y-109182426D01*
X212675880Y-108921273D01*
X212518837Y-108686241D01*
X212318959Y-108486363D01*
X212083927Y-108329320D01*
X211822774Y-108221147D01*
X211545535Y-108166000D01*
X211262865Y-108166000D01*
X210985626Y-108221147D01*
X210724473Y-108329320D01*
X210489441Y-108486363D01*
X210289563Y-108686241D01*
X210132520Y-108921273D01*
X210024347Y-109182426D01*
X209969200Y-109459665D01*
X209969200Y-109742335D01*
X210024347Y-110019574D01*
X210132520Y-110280727D01*
X210289563Y-110515759D01*
X210489441Y-110715637D01*
X210721959Y-110871000D01*
X210489441Y-111026363D01*
X210289563Y-111226241D01*
X210132520Y-111461273D01*
X210024347Y-111722426D01*
X209969200Y-111999665D01*
X209969200Y-112282335D01*
X210024347Y-112559574D01*
X210132520Y-112820727D01*
X210289563Y-113055759D01*
X210489441Y-113255637D01*
X210721959Y-113411000D01*
X210489441Y-113566363D01*
X210289563Y-113766241D01*
X210132520Y-114001273D01*
X210024347Y-114262426D01*
X209969200Y-114539665D01*
X209969200Y-114822335D01*
X210024347Y-115099574D01*
X210132520Y-115360727D01*
X210289563Y-115595759D01*
X210489441Y-115795637D01*
X210721959Y-115951000D01*
X210489441Y-116106363D01*
X210289563Y-116306241D01*
X210132520Y-116541273D01*
X210024347Y-116802426D01*
X209969200Y-117079665D01*
X209969200Y-117362335D01*
X210024347Y-117639574D01*
X210132520Y-117900727D01*
X210289563Y-118135759D01*
X210489441Y-118335637D01*
X210721959Y-118491000D01*
X210489441Y-118646363D01*
X210289563Y-118846241D01*
X210132520Y-119081273D01*
X210024347Y-119342426D01*
X209969200Y-119619665D01*
X209969200Y-119902335D01*
X210024347Y-120179574D01*
X210132520Y-120440727D01*
X210289563Y-120675759D01*
X210489441Y-120875637D01*
X210721959Y-121031000D01*
X210489441Y-121186363D01*
X210289563Y-121386241D01*
X210132520Y-121621273D01*
X210024347Y-121882426D01*
X209969200Y-122159665D01*
X209969200Y-122442335D01*
X210024347Y-122719574D01*
X210132520Y-122980727D01*
X210289563Y-123215759D01*
X210489441Y-123415637D01*
X210721959Y-123571000D01*
X210489441Y-123726363D01*
X210289563Y-123926241D01*
X210132520Y-124161273D01*
X210024347Y-124422426D01*
X209969200Y-124699665D01*
X209969200Y-124982335D01*
X210024347Y-125259574D01*
X210132520Y-125520727D01*
X210289563Y-125755759D01*
X210488161Y-125954357D01*
X210479718Y-125955188D01*
X210360020Y-125991498D01*
X210249706Y-126050463D01*
X210153015Y-126129815D01*
X210073663Y-126226506D01*
X210014698Y-126336820D01*
X209978388Y-126456518D01*
X209966128Y-126581000D01*
X204975517Y-126581000D01*
X204898837Y-126466241D01*
X204698959Y-126266363D01*
X204465072Y-126110085D01*
X204525714Y-126077671D01*
X204597297Y-125833702D01*
X203784200Y-125020605D01*
X202971103Y-125833702D01*
X203042686Y-126077671D01*
X203107192Y-126108194D01*
X203104473Y-126109320D01*
X202869441Y-126266363D01*
X202669563Y-126466241D01*
X202512520Y-126701273D01*
X202404347Y-126962426D01*
X202349200Y-127239665D01*
X202349200Y-127522335D01*
X202404347Y-127799574D01*
X202512520Y-128060727D01*
X202669563Y-128295759D01*
X202869441Y-128495637D01*
X203104473Y-128652680D01*
X203365626Y-128760853D01*
X203642865Y-128816000D01*
X203925535Y-128816000D01*
X203960639Y-128809017D01*
X209985670Y-134834049D01*
X210013383Y-134867817D01*
X210047151Y-134895530D01*
X210047153Y-134895532D01*
X210148141Y-134978411D01*
X210301886Y-135060589D01*
X210468710Y-135111195D01*
X210598723Y-135124000D01*
X210598731Y-135124000D01*
X210642200Y-135128281D01*
X210685669Y-135124000D01*
X215308499Y-135124000D01*
X215312388Y-135163482D01*
X215348698Y-135283180D01*
X215407663Y-135393494D01*
X215487015Y-135490185D01*
X215583706Y-135569537D01*
X215694020Y-135628502D01*
X215813718Y-135664812D01*
X215938200Y-135677072D01*
X217538200Y-135677072D01*
X217662682Y-135664812D01*
X217782380Y-135628502D01*
X217892694Y-135569537D01*
X217989385Y-135490185D01*
X218068737Y-135393494D01*
X218127702Y-135283180D01*
X218164012Y-135163482D01*
X218167901Y-135124000D01*
X230715531Y-135124000D01*
X230759000Y-135128281D01*
X230802469Y-135124000D01*
X230802477Y-135124000D01*
X230932490Y-135111195D01*
X231099313Y-135060589D01*
X231253059Y-134978411D01*
X231387817Y-134867817D01*
X231415534Y-134834044D01*
X242936449Y-123313130D01*
X242970217Y-123285417D01*
X243027385Y-123215759D01*
X243080810Y-123150660D01*
X243162988Y-122996914D01*
X243162989Y-122996913D01*
X243213595Y-122830090D01*
X243226400Y-122700077D01*
X243226400Y-122700067D01*
X243230681Y-122656601D01*
X243226400Y-122613135D01*
X243226400Y-90137265D01*
X243230681Y-90093799D01*
X243226400Y-90050333D01*
X243226400Y-90050323D01*
X243213595Y-89920310D01*
X243162989Y-89753487D01*
X243080811Y-89599741D01*
X242970217Y-89464983D01*
X242936451Y-89437272D01*
X238273165Y-84773986D01*
X238823865Y-85002094D01*
X239622738Y-85161000D01*
X240437262Y-85161000D01*
X241236135Y-85002094D01*
X241988657Y-84690389D01*
X242665909Y-84237864D01*
X243241864Y-83661909D01*
X243694389Y-82984657D01*
X243942000Y-82386871D01*
X243942001Y-131735131D01*
X243694389Y-131137343D01*
X243241864Y-130460091D01*
X242665909Y-129884136D01*
X241988657Y-129431611D01*
X241236135Y-129119906D01*
X240437262Y-128961000D01*
X239622738Y-128961000D01*
X238823865Y-129119906D01*
X238071343Y-129431611D01*
X237394091Y-129884136D01*
X236818136Y-130460091D01*
X236365611Y-131137343D01*
X236053906Y-131889865D01*
X235895000Y-132688738D01*
X235895000Y-133503262D01*
X236053906Y-134302135D01*
X236365611Y-135054657D01*
X236818136Y-135731909D01*
X237394091Y-136307864D01*
X238061781Y-136754000D01*
X73342219Y-136754000D01*
X74009909Y-136307864D01*
X74585864Y-135731909D01*
X75038389Y-135054657D01*
X75350094Y-134302135D01*
X75509000Y-133503262D01*
X75509000Y-132688738D01*
X75350094Y-131889865D01*
X75038389Y-131137343D01*
X74585864Y-130460091D01*
X74009909Y-129884136D01*
X73332657Y-129431611D01*
X72580135Y-129119906D01*
X71781262Y-128961000D01*
X70966738Y-128961000D01*
X70167865Y-129119906D01*
X69415343Y-129431611D01*
X68738091Y-129884136D01*
X68162136Y-130460091D01*
X67716000Y-131127781D01*
X67716000Y-122814621D01*
X72731500Y-122814621D01*
X72731500Y-123235179D01*
X72813547Y-123647656D01*
X72974488Y-124036202D01*
X73208137Y-124385883D01*
X73505517Y-124683263D01*
X73855198Y-124916912D01*
X74243744Y-125077853D01*
X74656221Y-125159900D01*
X75076779Y-125159900D01*
X75489256Y-125077853D01*
X75877802Y-124916912D01*
X76227483Y-124683263D01*
X76524863Y-124385883D01*
X76758512Y-124036202D01*
X76919453Y-123647656D01*
X77001500Y-123235179D01*
X77001500Y-122814621D01*
X147730080Y-122814621D01*
X147730080Y-123235179D01*
X147812127Y-123647656D01*
X147973068Y-124036202D01*
X148206717Y-124385883D01*
X148504097Y-124683263D01*
X148853778Y-124916912D01*
X149242324Y-125077853D01*
X149654801Y-125159900D01*
X150075359Y-125159900D01*
X150487836Y-125077853D01*
X150876382Y-124916912D01*
X151226063Y-124683263D01*
X151523443Y-124385883D01*
X151757092Y-124036202D01*
X151918033Y-123647656D01*
X152000080Y-123235179D01*
X152000080Y-122814621D01*
X151918033Y-122402144D01*
X151757092Y-122013598D01*
X151523443Y-121663917D01*
X151226063Y-121366537D01*
X150876382Y-121132888D01*
X150487836Y-120971947D01*
X150075359Y-120889900D01*
X149654801Y-120889900D01*
X149242324Y-120971947D01*
X148853778Y-121132888D01*
X148504097Y-121366537D01*
X148206717Y-121663917D01*
X147973068Y-122013598D01*
X147812127Y-122402144D01*
X147730080Y-122814621D01*
X77001500Y-122814621D01*
X76919453Y-122402144D01*
X76758512Y-122013598D01*
X76524863Y-121663917D01*
X76227483Y-121366537D01*
X75877802Y-121132888D01*
X75489256Y-120971947D01*
X75076779Y-120889900D01*
X74656221Y-120889900D01*
X74243744Y-120971947D01*
X73855198Y-121132888D01*
X73505517Y-121366537D01*
X73208137Y-121663917D01*
X72974488Y-122013598D01*
X72813547Y-122402144D01*
X72731500Y-122814621D01*
X67716000Y-122814621D01*
X67716000Y-100518865D01*
X157416600Y-100518865D01*
X157416600Y-100801535D01*
X157471747Y-101078774D01*
X157579920Y-101339927D01*
X157736963Y-101574959D01*
X157936841Y-101774837D01*
X158171873Y-101931880D01*
X158433026Y-102040053D01*
X158710265Y-102095200D01*
X158992935Y-102095200D01*
X159270174Y-102040053D01*
X159531327Y-101931880D01*
X159766359Y-101774837D01*
X159966237Y-101574959D01*
X160121600Y-101342441D01*
X160276963Y-101574959D01*
X160476841Y-101774837D01*
X160711873Y-101931880D01*
X160973026Y-102040053D01*
X161250265Y-102095200D01*
X161532935Y-102095200D01*
X161810174Y-102040053D01*
X162071327Y-101931880D01*
X162306359Y-101774837D01*
X162506237Y-101574959D01*
X162661600Y-101342441D01*
X162816963Y-101574959D01*
X163016841Y-101774837D01*
X163251873Y-101931880D01*
X163513026Y-102040053D01*
X163790265Y-102095200D01*
X164072935Y-102095200D01*
X164350174Y-102040053D01*
X164611327Y-101931880D01*
X164846359Y-101774837D01*
X165046237Y-101574959D01*
X165201600Y-101342441D01*
X165356963Y-101574959D01*
X165556841Y-101774837D01*
X165791873Y-101931880D01*
X166053026Y-102040053D01*
X166330265Y-102095200D01*
X166612935Y-102095200D01*
X166890174Y-102040053D01*
X167151327Y-101931880D01*
X167386359Y-101774837D01*
X167586237Y-101574959D01*
X167741600Y-101342441D01*
X167896963Y-101574959D01*
X168096841Y-101774837D01*
X168331873Y-101931880D01*
X168593026Y-102040053D01*
X168870265Y-102095200D01*
X169152935Y-102095200D01*
X169430174Y-102040053D01*
X169691327Y-101931880D01*
X169926359Y-101774837D01*
X170126237Y-101574959D01*
X170281600Y-101342441D01*
X170436963Y-101574959D01*
X170636841Y-101774837D01*
X170871873Y-101931880D01*
X171133026Y-102040053D01*
X171410265Y-102095200D01*
X171692935Y-102095200D01*
X171970174Y-102040053D01*
X172231327Y-101931880D01*
X172466359Y-101774837D01*
X172588294Y-101652902D01*
X173278503Y-101652902D01*
X173350086Y-101896871D01*
X173605596Y-102017771D01*
X173879784Y-102086500D01*
X174162112Y-102100417D01*
X174441730Y-102058987D01*
X174707892Y-101963803D01*
X174833114Y-101896871D01*
X174904697Y-101652902D01*
X174091600Y-100839805D01*
X173278503Y-101652902D01*
X172588294Y-101652902D01*
X172666237Y-101574959D01*
X172822515Y-101341072D01*
X172854929Y-101401714D01*
X173098898Y-101473297D01*
X173911995Y-100660200D01*
X174271205Y-100660200D01*
X175084302Y-101473297D01*
X175328271Y-101401714D01*
X175358794Y-101337208D01*
X175359920Y-101339927D01*
X175516963Y-101574959D01*
X175716841Y-101774837D01*
X175951873Y-101931880D01*
X176213026Y-102040053D01*
X176490265Y-102095200D01*
X176772935Y-102095200D01*
X177050174Y-102040053D01*
X177311327Y-101931880D01*
X177546359Y-101774837D01*
X177746237Y-101574959D01*
X177901600Y-101342441D01*
X178056963Y-101574959D01*
X178256841Y-101774837D01*
X178491873Y-101931880D01*
X178753026Y-102040053D01*
X179030265Y-102095200D01*
X179312935Y-102095200D01*
X179590174Y-102040053D01*
X179851327Y-101931880D01*
X180086359Y-101774837D01*
X180286237Y-101574959D01*
X180441600Y-101342441D01*
X180596963Y-101574959D01*
X180796841Y-101774837D01*
X181031873Y-101931880D01*
X181293026Y-102040053D01*
X181570265Y-102095200D01*
X181852935Y-102095200D01*
X182130174Y-102040053D01*
X182391327Y-101931880D01*
X182626359Y-101774837D01*
X182826237Y-101574959D01*
X182981600Y-101342441D01*
X183136963Y-101574959D01*
X183336841Y-101774837D01*
X183571873Y-101931880D01*
X183833026Y-102040053D01*
X184110265Y-102095200D01*
X184392935Y-102095200D01*
X184670174Y-102040053D01*
X184931327Y-101931880D01*
X185166359Y-101774837D01*
X185366237Y-101574959D01*
X185521600Y-101342441D01*
X185676963Y-101574959D01*
X185876841Y-101774837D01*
X186111873Y-101931880D01*
X186373026Y-102040053D01*
X186650265Y-102095200D01*
X186932935Y-102095200D01*
X187210174Y-102040053D01*
X187471327Y-101931880D01*
X187706359Y-101774837D01*
X187906237Y-101574959D01*
X188061600Y-101342441D01*
X188216963Y-101574959D01*
X188416841Y-101774837D01*
X188651873Y-101931880D01*
X188913026Y-102040053D01*
X189190265Y-102095200D01*
X189472935Y-102095200D01*
X189750174Y-102040053D01*
X190011327Y-101931880D01*
X190246359Y-101774837D01*
X190446237Y-101574959D01*
X190601600Y-101342441D01*
X190756963Y-101574959D01*
X190956841Y-101774837D01*
X191191873Y-101931880D01*
X191453026Y-102040053D01*
X191730265Y-102095200D01*
X192012935Y-102095200D01*
X192290174Y-102040053D01*
X192551327Y-101931880D01*
X192786359Y-101774837D01*
X192986237Y-101574959D01*
X193143280Y-101339927D01*
X193251453Y-101078774D01*
X193306600Y-100801535D01*
X193306600Y-100518865D01*
X193251453Y-100241626D01*
X193143280Y-99980473D01*
X192986237Y-99745441D01*
X192786359Y-99545563D01*
X192551327Y-99388520D01*
X192290174Y-99280347D01*
X192012935Y-99225200D01*
X191730265Y-99225200D01*
X191453026Y-99280347D01*
X191191873Y-99388520D01*
X190956841Y-99545563D01*
X190756963Y-99745441D01*
X190601600Y-99977959D01*
X190446237Y-99745441D01*
X190246359Y-99545563D01*
X190011327Y-99388520D01*
X189750174Y-99280347D01*
X189472935Y-99225200D01*
X189190265Y-99225200D01*
X188913026Y-99280347D01*
X188651873Y-99388520D01*
X188416841Y-99545563D01*
X188216963Y-99745441D01*
X188061600Y-99977959D01*
X187906237Y-99745441D01*
X187706359Y-99545563D01*
X187471327Y-99388520D01*
X187210174Y-99280347D01*
X186932935Y-99225200D01*
X186650265Y-99225200D01*
X186373026Y-99280347D01*
X186111873Y-99388520D01*
X185876841Y-99545563D01*
X185676963Y-99745441D01*
X185521600Y-99977959D01*
X185366237Y-99745441D01*
X185166359Y-99545563D01*
X184931327Y-99388520D01*
X184670174Y-99280347D01*
X184392935Y-99225200D01*
X184110265Y-99225200D01*
X183833026Y-99280347D01*
X183571873Y-99388520D01*
X183336841Y-99545563D01*
X183136963Y-99745441D01*
X182981600Y-99977959D01*
X182826237Y-99745441D01*
X182626359Y-99545563D01*
X182391327Y-99388520D01*
X182130174Y-99280347D01*
X181852935Y-99225200D01*
X181570265Y-99225200D01*
X181293026Y-99280347D01*
X181031873Y-99388520D01*
X180796841Y-99545563D01*
X180596963Y-99745441D01*
X180441600Y-99977959D01*
X180286237Y-99745441D01*
X180086359Y-99545563D01*
X179851327Y-99388520D01*
X179590174Y-99280347D01*
X179312935Y-99225200D01*
X179030265Y-99225200D01*
X178753026Y-99280347D01*
X178491873Y-99388520D01*
X178256841Y-99545563D01*
X178056963Y-99745441D01*
X177901600Y-99977959D01*
X177746237Y-99745441D01*
X177546359Y-99545563D01*
X177311327Y-99388520D01*
X177050174Y-99280347D01*
X176772935Y-99225200D01*
X176490265Y-99225200D01*
X176213026Y-99280347D01*
X175951873Y-99388520D01*
X175716841Y-99545563D01*
X175516963Y-99745441D01*
X175360685Y-99979328D01*
X175328271Y-99918686D01*
X175084302Y-99847103D01*
X174271205Y-100660200D01*
X173911995Y-100660200D01*
X173098898Y-99847103D01*
X172854929Y-99918686D01*
X172824406Y-99983192D01*
X172823280Y-99980473D01*
X172666237Y-99745441D01*
X172588294Y-99667498D01*
X173278503Y-99667498D01*
X174091600Y-100480595D01*
X174904697Y-99667498D01*
X174833114Y-99423529D01*
X174577604Y-99302629D01*
X174303416Y-99233900D01*
X174021088Y-99219983D01*
X173741470Y-99261413D01*
X173475308Y-99356597D01*
X173350086Y-99423529D01*
X173278503Y-99667498D01*
X172588294Y-99667498D01*
X172466359Y-99545563D01*
X172231327Y-99388520D01*
X171970174Y-99280347D01*
X171692935Y-99225200D01*
X171410265Y-99225200D01*
X171133026Y-99280347D01*
X170871873Y-99388520D01*
X170636841Y-99545563D01*
X170436963Y-99745441D01*
X170281600Y-99977959D01*
X170126237Y-99745441D01*
X169926359Y-99545563D01*
X169691327Y-99388520D01*
X169430174Y-99280347D01*
X169152935Y-99225200D01*
X168870265Y-99225200D01*
X168593026Y-99280347D01*
X168331873Y-99388520D01*
X168096841Y-99545563D01*
X167896963Y-99745441D01*
X167741600Y-99977959D01*
X167586237Y-99745441D01*
X167386359Y-99545563D01*
X167151327Y-99388520D01*
X166890174Y-99280347D01*
X166612935Y-99225200D01*
X166330265Y-99225200D01*
X166053026Y-99280347D01*
X165791873Y-99388520D01*
X165556841Y-99545563D01*
X165356963Y-99745441D01*
X165201600Y-99977959D01*
X165046237Y-99745441D01*
X164846359Y-99545563D01*
X164611327Y-99388520D01*
X164350174Y-99280347D01*
X164072935Y-99225200D01*
X163790265Y-99225200D01*
X163513026Y-99280347D01*
X163251873Y-99388520D01*
X163016841Y-99545563D01*
X162816963Y-99745441D01*
X162661600Y-99977959D01*
X162506237Y-99745441D01*
X162306359Y-99545563D01*
X162071327Y-99388520D01*
X161810174Y-99280347D01*
X161532935Y-99225200D01*
X161250265Y-99225200D01*
X160973026Y-99280347D01*
X160711873Y-99388520D01*
X160476841Y-99545563D01*
X160276963Y-99745441D01*
X160121600Y-99977959D01*
X159966237Y-99745441D01*
X159766359Y-99545563D01*
X159531327Y-99388520D01*
X159270174Y-99280347D01*
X158992935Y-99225200D01*
X158710265Y-99225200D01*
X158433026Y-99280347D01*
X158171873Y-99388520D01*
X157936841Y-99545563D01*
X157736963Y-99745441D01*
X157579920Y-99980473D01*
X157471747Y-100241626D01*
X157416600Y-100518865D01*
X67716000Y-100518865D01*
X67716000Y-91813921D01*
X72731500Y-91813921D01*
X72731500Y-92234479D01*
X72813547Y-92646956D01*
X72974488Y-93035502D01*
X73208137Y-93385183D01*
X73505517Y-93682563D01*
X73855198Y-93916212D01*
X74243744Y-94077153D01*
X74656221Y-94159200D01*
X75076779Y-94159200D01*
X75489256Y-94077153D01*
X75877802Y-93916212D01*
X76227483Y-93682563D01*
X76524863Y-93385183D01*
X76565610Y-93324200D01*
X78827528Y-93324200D01*
X78839788Y-93448682D01*
X78876098Y-93568380D01*
X78935063Y-93678694D01*
X79014415Y-93775385D01*
X79111106Y-93854737D01*
X79221420Y-93913702D01*
X79341118Y-93950012D01*
X79465600Y-93962272D01*
X80079850Y-93959200D01*
X80238600Y-93800450D01*
X80238600Y-92151200D01*
X78989350Y-92151200D01*
X78830600Y-92309950D01*
X78827528Y-93324200D01*
X76565610Y-93324200D01*
X76758512Y-93035502D01*
X76919453Y-92646956D01*
X77001500Y-92234479D01*
X77001500Y-91813921D01*
X76919453Y-91401444D01*
X76758512Y-91012898D01*
X76565611Y-90724200D01*
X78827528Y-90724200D01*
X78830600Y-91738450D01*
X78989350Y-91897200D01*
X80238600Y-91897200D01*
X80238600Y-90247950D01*
X80079850Y-90089200D01*
X79465600Y-90086128D01*
X79341118Y-90098388D01*
X79221420Y-90134698D01*
X79111106Y-90193663D01*
X79014415Y-90273015D01*
X78935063Y-90369706D01*
X78876098Y-90480020D01*
X78839788Y-90599718D01*
X78827528Y-90724200D01*
X76565611Y-90724200D01*
X76524863Y-90663217D01*
X76227483Y-90365837D01*
X75877802Y-90132188D01*
X75489256Y-89971247D01*
X75076779Y-89889200D01*
X74656221Y-89889200D01*
X74243744Y-89971247D01*
X73855198Y-90132188D01*
X73505517Y-90365837D01*
X73208137Y-90663217D01*
X72974488Y-91012898D01*
X72813547Y-91401444D01*
X72731500Y-91813921D01*
X67716000Y-91813921D01*
X67716000Y-82994219D01*
X68162136Y-83661909D01*
X68738091Y-84237864D01*
X69415343Y-84690389D01*
X70167865Y-85002094D01*
X70966738Y-85161000D01*
X71781262Y-85161000D01*
X72580135Y-85002094D01*
X73332657Y-84690389D01*
X74009909Y-84237864D01*
X74585864Y-83661909D01*
X75038389Y-82984657D01*
X75350094Y-82232135D01*
X75509000Y-81433262D01*
X75509000Y-80618738D01*
X75350094Y-79819865D01*
X75038389Y-79067343D01*
X74585864Y-78390091D01*
X74009909Y-77814136D01*
X73332657Y-77361611D01*
X72734872Y-77114000D01*
X238669128Y-77114000D01*
X238071343Y-77361611D01*
%TA.AperFunction,Conductor*%
D32*
G36*
X238071343Y-77361611D02*
G01*
X237394091Y-77814136D01*
X236818136Y-78390091D01*
X236365611Y-79067343D01*
X236053906Y-79819865D01*
X235895000Y-80618738D01*
X235895000Y-81433262D01*
X236053906Y-82232135D01*
X236282014Y-82782835D01*
X233447534Y-79948356D01*
X233419817Y-79914583D01*
X233285059Y-79803989D01*
X233131313Y-79721811D01*
X232964490Y-79671205D01*
X232834477Y-79658400D01*
X232834469Y-79658400D01*
X232791000Y-79654119D01*
X232747531Y-79658400D01*
X215105269Y-79658400D01*
X215061800Y-79654119D01*
X215018331Y-79658400D01*
X215018323Y-79658400D01*
X214903106Y-79669748D01*
X214888309Y-79671205D01*
X214837703Y-79686557D01*
X214721487Y-79721811D01*
X214567741Y-79803989D01*
X214466753Y-79886868D01*
X214466751Y-79886870D01*
X214432983Y-79914583D01*
X214405270Y-79948351D01*
X210841400Y-83512222D01*
X210841400Y-81856869D01*
X210845681Y-81813400D01*
X210841400Y-81769931D01*
X210841400Y-81769923D01*
X210828595Y-81639910D01*
X210797775Y-81538311D01*
X210777989Y-81473086D01*
X210695811Y-81319341D01*
X210612932Y-81218353D01*
X210612930Y-81218351D01*
X210585217Y-81184583D01*
X210551449Y-81156870D01*
X206904534Y-77509956D01*
X206876817Y-77476183D01*
X206742059Y-77365589D01*
X206588313Y-77283411D01*
X206421490Y-77232805D01*
X206291477Y-77220000D01*
X206291469Y-77220000D01*
X206248000Y-77215719D01*
X206204531Y-77220000D01*
X177487865Y-77220000D01*
X177444399Y-77215719D01*
X177400933Y-77220000D01*
X177400923Y-77220000D01*
X177270910Y-77232805D01*
X177104087Y-77283411D01*
X176950341Y-77365589D01*
X176950339Y-77365590D01*
X176950340Y-77365590D01*
X176849353Y-77448468D01*
X176849351Y-77448470D01*
X176815583Y-77476183D01*
X176787870Y-77509951D01*
X173242556Y-81055266D01*
X173208783Y-81082983D01*
X173098189Y-81217742D01*
X173016011Y-81371488D01*
X172998747Y-81428400D01*
X172969781Y-81523887D01*
X172965405Y-81538311D01*
X172952600Y-81668324D01*
X172952600Y-81668331D01*
X172948319Y-81711800D01*
X172952600Y-81755269D01*
X172952601Y-90539575D01*
X172863118Y-90548388D01*
X172743420Y-90584698D01*
X172633106Y-90643663D01*
X172536415Y-90723015D01*
X172457063Y-90819706D01*
X172398098Y-90930020D01*
X172361788Y-91049718D01*
X172352975Y-91139200D01*
X171135198Y-91139200D01*
X170944938Y-90854456D01*
X170689344Y-90598862D01*
X170388799Y-90398044D01*
X170054850Y-90259718D01*
X169700332Y-90189200D01*
X169338868Y-90189200D01*
X169002989Y-90256010D01*
X160016134Y-81269156D01*
X159988417Y-81235383D01*
X159853659Y-81124789D01*
X159699913Y-81042611D01*
X159533090Y-80992005D01*
X159403077Y-80979200D01*
X159403069Y-80979200D01*
X159359600Y-80974919D01*
X159316131Y-80979200D01*
X83965069Y-80979200D01*
X83921600Y-80974919D01*
X83878131Y-80979200D01*
X83878123Y-80979200D01*
X83762906Y-80990548D01*
X83748109Y-80992005D01*
X83697503Y-81007357D01*
X83581287Y-81042611D01*
X83427541Y-81124789D01*
X83427539Y-81124790D01*
X83427540Y-81124790D01*
X83326553Y-81207668D01*
X83326551Y-81207670D01*
X83292783Y-81235383D01*
X83265070Y-81269151D01*
X82310551Y-82223671D01*
X82276784Y-82251383D01*
X82249071Y-82285151D01*
X82249068Y-82285154D01*
X82166190Y-82386141D01*
X82084012Y-82539887D01*
X82033405Y-82706710D01*
X82016319Y-82880200D01*
X82020601Y-82923679D01*
X82020600Y-84134941D01*
X81853103Y-84302438D01*
X81704815Y-84524367D01*
X81602672Y-84770961D01*
X81550600Y-85032744D01*
X81550600Y-85299656D01*
X81602672Y-85561439D01*
X81704815Y-85808033D01*
X81853103Y-86029962D01*
X82020600Y-86197459D01*
X82020601Y-90364757D01*
X81860095Y-90496480D01*
X81855102Y-90480020D01*
X81796137Y-90369706D01*
X81716785Y-90273015D01*
X81620094Y-90193663D01*
X81509780Y-90134698D01*
X81390082Y-90098388D01*
X81265600Y-90086128D01*
X80651350Y-90089200D01*
X80492600Y-90247950D01*
X80492600Y-91897200D01*
X80512600Y-91897200D01*
X80512600Y-92151200D01*
X80492600Y-92151200D01*
X80492600Y-93800450D01*
X80651350Y-93959200D01*
X81265600Y-93962272D01*
X81390082Y-93950012D01*
X81509780Y-93913702D01*
X81620094Y-93854737D01*
X81716785Y-93775385D01*
X81796137Y-93678694D01*
X81855102Y-93568380D01*
X81860095Y-93551920D01*
X82048674Y-93706681D01*
X82315340Y-93849217D01*
X82604688Y-93936990D01*
X82905600Y-93966627D01*
X83206513Y-93936990D01*
X83482954Y-93853132D01*
X86059070Y-96429249D01*
X86086783Y-96463017D01*
X86120551Y-96490730D01*
X86120553Y-96490732D01*
X86221541Y-96573611D01*
X86375286Y-96655789D01*
X86542110Y-96706395D01*
X86672123Y-96719200D01*
X86672131Y-96719200D01*
X86715600Y-96723481D01*
X86759069Y-96719200D01*
X112072131Y-96719200D01*
X112115600Y-96723481D01*
X112159069Y-96719200D01*
X112159077Y-96719200D01*
X112289090Y-96706395D01*
X112455913Y-96655789D01*
X112609659Y-96573611D01*
X112744417Y-96463017D01*
X112772134Y-96429244D01*
X115348247Y-93853132D01*
X115624688Y-93936990D01*
X115925600Y-93966627D01*
X116226513Y-93936990D01*
X116515861Y-93849217D01*
X116782527Y-93706681D01*
X117016261Y-93514861D01*
X117195600Y-93296335D01*
X117374939Y-93514861D01*
X117608674Y-93706681D01*
X117875340Y-93849217D01*
X118164688Y-93936990D01*
X118465600Y-93966627D01*
X118766513Y-93936990D01*
X119055861Y-93849217D01*
X119322527Y-93706681D01*
X119556261Y-93514861D01*
X119748081Y-93281127D01*
X119890617Y-93014461D01*
X119978390Y-92725113D01*
X120000600Y-92499607D01*
X120000600Y-91813921D01*
X147730600Y-91813921D01*
X147730600Y-92234479D01*
X147812647Y-92646956D01*
X147973588Y-93035502D01*
X148207237Y-93385183D01*
X148504617Y-93682563D01*
X148854298Y-93916212D01*
X149242844Y-94077153D01*
X149655321Y-94159200D01*
X150075879Y-94159200D01*
X150488356Y-94077153D01*
X150876902Y-93916212D01*
X151226583Y-93682563D01*
X151523963Y-93385183D01*
X151757612Y-93035502D01*
X151918553Y-92646956D01*
X152000600Y-92234479D01*
X152000600Y-91843468D01*
X154984600Y-91843468D01*
X154984600Y-92204932D01*
X155055118Y-92559450D01*
X155193444Y-92893399D01*
X155394262Y-93193944D01*
X155649856Y-93449538D01*
X155950401Y-93650356D01*
X156284350Y-93788682D01*
X156638868Y-93859200D01*
X157000332Y-93859200D01*
X157354850Y-93788682D01*
X157688799Y-93650356D01*
X157989344Y-93449538D01*
X158244938Y-93193944D01*
X158445756Y-92893399D01*
X158584082Y-92559450D01*
X158654600Y-92204932D01*
X158654600Y-91843468D01*
X158584082Y-91488950D01*
X158445756Y-91155001D01*
X158244938Y-90854456D01*
X157989344Y-90598862D01*
X157688799Y-90398044D01*
X157354850Y-90259718D01*
X157000332Y-90189200D01*
X156638868Y-90189200D01*
X156284350Y-90259718D01*
X155950401Y-90398044D01*
X155649856Y-90598862D01*
X155394262Y-90854456D01*
X155193444Y-91155001D01*
X155055118Y-91488950D01*
X154984600Y-91843468D01*
X152000600Y-91843468D01*
X152000600Y-91813921D01*
X151918553Y-91401444D01*
X151757612Y-91012898D01*
X151523963Y-90663217D01*
X151226583Y-90365837D01*
X150876902Y-90132188D01*
X150488356Y-89971247D01*
X150075879Y-89889200D01*
X149655321Y-89889200D01*
X149242844Y-89971247D01*
X148854298Y-90132188D01*
X148504617Y-90365837D01*
X148207237Y-90663217D01*
X147973588Y-91012898D01*
X147812647Y-91401444D01*
X147730600Y-91813921D01*
X120000600Y-91813921D01*
X120000600Y-91548792D01*
X119978390Y-91323287D01*
X119890617Y-91033939D01*
X119748081Y-90767273D01*
X119556261Y-90533539D01*
X119322526Y-90341719D01*
X119055860Y-90199183D01*
X118766512Y-90111410D01*
X118465600Y-90081773D01*
X118164687Y-90111410D01*
X117875339Y-90199183D01*
X117608673Y-90341719D01*
X117374939Y-90533539D01*
X117195600Y-90752065D01*
X117016261Y-90533539D01*
X116782526Y-90341719D01*
X116515860Y-90199183D01*
X116226512Y-90111410D01*
X115925600Y-90081773D01*
X115624687Y-90111410D01*
X115335339Y-90199183D01*
X115068673Y-90341719D01*
X114834939Y-90533539D01*
X114655600Y-90752065D01*
X114476261Y-90533539D01*
X114242526Y-90341719D01*
X113975860Y-90199183D01*
X113686512Y-90111410D01*
X113385600Y-90081773D01*
X113084687Y-90111410D01*
X112795339Y-90199183D01*
X112528673Y-90341719D01*
X112294939Y-90533539D01*
X112115600Y-90752065D01*
X111936261Y-90533539D01*
X111702526Y-90341719D01*
X111435860Y-90199183D01*
X111146512Y-90111410D01*
X110845600Y-90081773D01*
X110544687Y-90111410D01*
X110255339Y-90199183D01*
X109988673Y-90341719D01*
X109754939Y-90533539D01*
X109575600Y-90752065D01*
X109396261Y-90533539D01*
X109162526Y-90341719D01*
X108895860Y-90199183D01*
X108606512Y-90111410D01*
X108305600Y-90081773D01*
X108004687Y-90111410D01*
X107715339Y-90199183D01*
X107448673Y-90341719D01*
X107214939Y-90533539D01*
X107035600Y-90752065D01*
X106856261Y-90533539D01*
X106622526Y-90341719D01*
X106355860Y-90199183D01*
X106066512Y-90111410D01*
X105765600Y-90081773D01*
X105464687Y-90111410D01*
X105175339Y-90199183D01*
X104908673Y-90341719D01*
X104674939Y-90533539D01*
X104495600Y-90752065D01*
X104316261Y-90533539D01*
X104082526Y-90341719D01*
X103815860Y-90199183D01*
X103526512Y-90111410D01*
X103225600Y-90081773D01*
X102924687Y-90111410D01*
X102635339Y-90199183D01*
X102368673Y-90341719D01*
X102134939Y-90533539D01*
X101955600Y-90752065D01*
X101776261Y-90533539D01*
X101542526Y-90341719D01*
X101275860Y-90199183D01*
X100986512Y-90111410D01*
X100685600Y-90081773D01*
X100384687Y-90111410D01*
X100095339Y-90199183D01*
X99828673Y-90341719D01*
X99594939Y-90533539D01*
X99415600Y-90752065D01*
X99236261Y-90533539D01*
X99002526Y-90341719D01*
X98735860Y-90199183D01*
X98446512Y-90111410D01*
X98145600Y-90081773D01*
X97844687Y-90111410D01*
X97555339Y-90199183D01*
X97288673Y-90341719D01*
X97054939Y-90533539D01*
X96875600Y-90752065D01*
X96696261Y-90533539D01*
X96462526Y-90341719D01*
X96195860Y-90199183D01*
X95906512Y-90111410D01*
X95605600Y-90081773D01*
X95304687Y-90111410D01*
X95015339Y-90199183D01*
X94748673Y-90341719D01*
X94514939Y-90533539D01*
X94335600Y-90752065D01*
X94156261Y-90533539D01*
X93922526Y-90341719D01*
X93655860Y-90199183D01*
X93366512Y-90111410D01*
X93065600Y-90081773D01*
X92764687Y-90111410D01*
X92475339Y-90199183D01*
X92208673Y-90341719D01*
X91974939Y-90533539D01*
X91790819Y-90757892D01*
X91731348Y-90665804D01*
X91521206Y-90448990D01*
X91272804Y-90277338D01*
X90995687Y-90157445D01*
X90890340Y-90133164D01*
X90652600Y-90253822D01*
X90652600Y-91897200D01*
X90672600Y-91897200D01*
X90672600Y-92151200D01*
X90652600Y-92151200D01*
X90652600Y-93794578D01*
X90890340Y-93915236D01*
X90995687Y-93890955D01*
X91272804Y-93771062D01*
X91521206Y-93599410D01*
X91731348Y-93382596D01*
X91790819Y-93290509D01*
X91974939Y-93514861D01*
X92208674Y-93706681D01*
X92475340Y-93849217D01*
X92764688Y-93936990D01*
X93065600Y-93966627D01*
X93366513Y-93936990D01*
X93655861Y-93849217D01*
X93922527Y-93706681D01*
X94156261Y-93514861D01*
X94335600Y-93296335D01*
X94514939Y-93514861D01*
X94748674Y-93706681D01*
X95015340Y-93849217D01*
X95304688Y-93936990D01*
X95605600Y-93966627D01*
X95906513Y-93936990D01*
X96195861Y-93849217D01*
X96462527Y-93706681D01*
X96696261Y-93514861D01*
X96875600Y-93296335D01*
X97054939Y-93514861D01*
X97288674Y-93706681D01*
X97555340Y-93849217D01*
X97844688Y-93936990D01*
X98145600Y-93966627D01*
X98446513Y-93936990D01*
X98735861Y-93849217D01*
X99002527Y-93706681D01*
X99236261Y-93514861D01*
X99415600Y-93296335D01*
X99594939Y-93514861D01*
X99828674Y-93706681D01*
X100095340Y-93849217D01*
X100384688Y-93936990D01*
X100685600Y-93966627D01*
X100986513Y-93936990D01*
X101275861Y-93849217D01*
X101542527Y-93706681D01*
X101776261Y-93514861D01*
X101955600Y-93296335D01*
X102134939Y-93514861D01*
X102368674Y-93706681D01*
X102635340Y-93849217D01*
X102924688Y-93936990D01*
X103225600Y-93966627D01*
X103526513Y-93936990D01*
X103815861Y-93849217D01*
X104082527Y-93706681D01*
X104316261Y-93514861D01*
X104495600Y-93296335D01*
X104674939Y-93514861D01*
X104908674Y-93706681D01*
X105175340Y-93849217D01*
X105464688Y-93936990D01*
X105765600Y-93966627D01*
X106066513Y-93936990D01*
X106355861Y-93849217D01*
X106622527Y-93706681D01*
X106856261Y-93514861D01*
X107035600Y-93296335D01*
X107214939Y-93514861D01*
X107448674Y-93706681D01*
X107715340Y-93849217D01*
X108004688Y-93936990D01*
X108305600Y-93966627D01*
X108606513Y-93936990D01*
X108895861Y-93849217D01*
X109162527Y-93706681D01*
X109396261Y-93514861D01*
X109575600Y-93296335D01*
X109754939Y-93514861D01*
X109988674Y-93706681D01*
X110255340Y-93849217D01*
X110544688Y-93936990D01*
X110845600Y-93966627D01*
X111146513Y-93936990D01*
X111435861Y-93849217D01*
X111702527Y-93706681D01*
X111936261Y-93514861D01*
X112115600Y-93296335D01*
X112294939Y-93514861D01*
X112528674Y-93706681D01*
X112795340Y-93849217D01*
X112836514Y-93861707D01*
X111749022Y-94949200D01*
X87082179Y-94949200D01*
X85994686Y-93861707D01*
X86035861Y-93849217D01*
X86302527Y-93706681D01*
X86536261Y-93514861D01*
X86715600Y-93296335D01*
X86894939Y-93514861D01*
X87128674Y-93706681D01*
X87395340Y-93849217D01*
X87684688Y-93936990D01*
X87985600Y-93966627D01*
X88286513Y-93936990D01*
X88575861Y-93849217D01*
X88842527Y-93706681D01*
X89076261Y-93514861D01*
X89260381Y-93290509D01*
X89319852Y-93382596D01*
X89529994Y-93599410D01*
X89778396Y-93771062D01*
X90055513Y-93890955D01*
X90160860Y-93915236D01*
X90398600Y-93794578D01*
X90398600Y-92151200D01*
X90378600Y-92151200D01*
X90378600Y-91897200D01*
X90398600Y-91897200D01*
X90398600Y-90253822D01*
X90160860Y-90133164D01*
X90055513Y-90157445D01*
X89778396Y-90277338D01*
X89529994Y-90448990D01*
X89319852Y-90665804D01*
X89260381Y-90757891D01*
X89076261Y-90533539D01*
X88842526Y-90341719D01*
X88575860Y-90199183D01*
X88286512Y-90111410D01*
X87985600Y-90081773D01*
X87684687Y-90111410D01*
X87395339Y-90199183D01*
X87128673Y-90341719D01*
X86894939Y-90533539D01*
X86715600Y-90752065D01*
X86536261Y-90533539D01*
X86302526Y-90341719D01*
X86035860Y-90199183D01*
X85746512Y-90111410D01*
X85445600Y-90081773D01*
X85144687Y-90111410D01*
X84855339Y-90199183D01*
X84588673Y-90341719D01*
X84354939Y-90533539D01*
X84175600Y-90752065D01*
X83996261Y-90533539D01*
X83790600Y-90364759D01*
X83790600Y-86197459D01*
X83958097Y-86029962D01*
X84106385Y-85808033D01*
X84175600Y-85640934D01*
X84244815Y-85808033D01*
X84393103Y-86029962D01*
X84581838Y-86218697D01*
X84803767Y-86366985D01*
X85050361Y-86469128D01*
X85312144Y-86521200D01*
X85579056Y-86521200D01*
X85840839Y-86469128D01*
X86087433Y-86366985D01*
X86309362Y-86218697D01*
X86426299Y-86101760D01*
X87229645Y-86101760D01*
X87291532Y-86337568D01*
X87533390Y-86450466D01*
X87792627Y-86514011D01*
X88059280Y-86525761D01*
X88323101Y-86485263D01*
X88573953Y-86394075D01*
X88675108Y-86340005D01*
X103977405Y-86340005D01*
X104049979Y-86579266D01*
X104209961Y-86901457D01*
X104429725Y-87186246D01*
X104700826Y-87422689D01*
X105012846Y-87601700D01*
X105353794Y-87716399D01*
X105638600Y-87600054D01*
X105638600Y-86055200D01*
X105892600Y-86055200D01*
X105892600Y-87600054D01*
X106177406Y-87716399D01*
X106518354Y-87601700D01*
X106830374Y-87422689D01*
X107101475Y-87186246D01*
X107321239Y-86901457D01*
X107481221Y-86579266D01*
X107553795Y-86340005D01*
X107437032Y-86055200D01*
X105892600Y-86055200D01*
X105638600Y-86055200D01*
X104094168Y-86055200D01*
X103977405Y-86340005D01*
X88675108Y-86340005D01*
X88679668Y-86337568D01*
X88741555Y-86101760D01*
X87985600Y-85345805D01*
X87229645Y-86101760D01*
X86426299Y-86101760D01*
X86498097Y-86029962D01*
X86646385Y-85808033D01*
X86716038Y-85639876D01*
X86757725Y-85754553D01*
X86814232Y-85860268D01*
X87050040Y-85922155D01*
X87805995Y-85166200D01*
X88165205Y-85166200D01*
X88921160Y-85922155D01*
X89156968Y-85860268D01*
X89269866Y-85618410D01*
X89294872Y-85516395D01*
X103977405Y-85516395D01*
X104094168Y-85801200D01*
X105638600Y-85801200D01*
X105638600Y-84256346D01*
X105892600Y-84256346D01*
X105892600Y-85801200D01*
X107437032Y-85801200D01*
X107459060Y-85747468D01*
X116630600Y-85747468D01*
X116630600Y-86108932D01*
X116701118Y-86463450D01*
X116839444Y-86797399D01*
X117040262Y-87097944D01*
X117295856Y-87353538D01*
X117596401Y-87554356D01*
X117930350Y-87692682D01*
X118284868Y-87763200D01*
X118646332Y-87763200D01*
X119000850Y-87692682D01*
X119334799Y-87554356D01*
X119635344Y-87353538D01*
X119890938Y-87097944D01*
X120091756Y-86797399D01*
X120230082Y-86463450D01*
X120300600Y-86108932D01*
X120300600Y-85747468D01*
X120230082Y-85392950D01*
X120091756Y-85059001D01*
X119890938Y-84758456D01*
X119635344Y-84502862D01*
X119334799Y-84302044D01*
X119000850Y-84163718D01*
X118646332Y-84093200D01*
X118284868Y-84093200D01*
X117930350Y-84163718D01*
X117596401Y-84302044D01*
X117295856Y-84502862D01*
X117040262Y-84758456D01*
X116839444Y-85059001D01*
X116701118Y-85392950D01*
X116630600Y-85747468D01*
X107459060Y-85747468D01*
X107553795Y-85516395D01*
X107481221Y-85277134D01*
X107321239Y-84954943D01*
X107101475Y-84670154D01*
X106830374Y-84433711D01*
X106518354Y-84254700D01*
X106177406Y-84140001D01*
X105892600Y-84256346D01*
X105638600Y-84256346D01*
X105353794Y-84140001D01*
X105012846Y-84254700D01*
X104700826Y-84433711D01*
X104429725Y-84670154D01*
X104209961Y-84954943D01*
X104049979Y-85277134D01*
X103977405Y-85516395D01*
X89294872Y-85516395D01*
X89333411Y-85359173D01*
X89345161Y-85092520D01*
X89304663Y-84828699D01*
X89213475Y-84577847D01*
X89156968Y-84472132D01*
X88921160Y-84410245D01*
X88165205Y-85166200D01*
X87805995Y-85166200D01*
X87050040Y-84410245D01*
X86814232Y-84472132D01*
X86713836Y-84687207D01*
X86646385Y-84524367D01*
X86498097Y-84302438D01*
X86426299Y-84230640D01*
X87229645Y-84230640D01*
X87985600Y-84986595D01*
X88741555Y-84230640D01*
X88679668Y-83994832D01*
X88437810Y-83881934D01*
X88178573Y-83818389D01*
X87911920Y-83806639D01*
X87648099Y-83847137D01*
X87397247Y-83938325D01*
X87291532Y-83994832D01*
X87229645Y-84230640D01*
X86426299Y-84230640D01*
X86309362Y-84113703D01*
X86087433Y-83965415D01*
X85840839Y-83863272D01*
X85579056Y-83811200D01*
X85312144Y-83811200D01*
X85050361Y-83863272D01*
X84803767Y-83965415D01*
X84581838Y-84113703D01*
X84393103Y-84302438D01*
X84244815Y-84524367D01*
X84175600Y-84691466D01*
X84106385Y-84524367D01*
X83958097Y-84302438D01*
X83790600Y-84134941D01*
X83790600Y-83246778D01*
X84288179Y-82749200D01*
X158993022Y-82749200D01*
X167751410Y-91507589D01*
X167684600Y-91843468D01*
X167684600Y-92204932D01*
X167755118Y-92559450D01*
X167893444Y-92893399D01*
X168094262Y-93193944D01*
X168349856Y-93449538D01*
X168650401Y-93650356D01*
X168984350Y-93788682D01*
X169338868Y-93859200D01*
X169700332Y-93859200D01*
X170054850Y-93788682D01*
X170388799Y-93650356D01*
X170689344Y-93449538D01*
X170944938Y-93193944D01*
X171135198Y-92909200D01*
X172352975Y-92909200D01*
X172361788Y-92998682D01*
X172398098Y-93118380D01*
X172457063Y-93228694D01*
X172536415Y-93325385D01*
X172633106Y-93404737D01*
X172743420Y-93463702D01*
X172863118Y-93500012D01*
X172952601Y-93508825D01*
X172952601Y-94520721D01*
X172948319Y-94564200D01*
X172965405Y-94737690D01*
X173016012Y-94904513D01*
X173098190Y-95058259D01*
X173181068Y-95159246D01*
X173181071Y-95159249D01*
X173208784Y-95193017D01*
X173242551Y-95220729D01*
X175721070Y-97699249D01*
X175748783Y-97733017D01*
X175782551Y-97760730D01*
X175782553Y-97760732D01*
X175811756Y-97784698D01*
X175883541Y-97843611D01*
X176037287Y-97925789D01*
X176204110Y-97976395D01*
X176334123Y-97989200D01*
X176334133Y-97989200D01*
X176377599Y-97993481D01*
X176421065Y-97989200D01*
X192521022Y-97989200D01*
X193780600Y-99248779D01*
X193780601Y-102579620D01*
X192013022Y-104347200D01*
X177183069Y-104347200D01*
X177139600Y-104342919D01*
X177096131Y-104347200D01*
X177096123Y-104347200D01*
X176980906Y-104358548D01*
X176966109Y-104360005D01*
X176915503Y-104375357D01*
X176799287Y-104410611D01*
X176645541Y-104492789D01*
X176575155Y-104550554D01*
X176544553Y-104575668D01*
X176544551Y-104575670D01*
X176510783Y-104603383D01*
X176483070Y-104637151D01*
X174268039Y-106852183D01*
X174232935Y-106845200D01*
X173950265Y-106845200D01*
X173673026Y-106900347D01*
X173411873Y-107008520D01*
X173176841Y-107165563D01*
X172976963Y-107365441D01*
X172821600Y-107597959D01*
X172666237Y-107365441D01*
X172466359Y-107165563D01*
X172231327Y-107008520D01*
X171970174Y-106900347D01*
X171692935Y-106845200D01*
X171410265Y-106845200D01*
X171133026Y-106900347D01*
X170871873Y-107008520D01*
X170636841Y-107165563D01*
X170436963Y-107365441D01*
X170281600Y-107597959D01*
X170126237Y-107365441D01*
X169926359Y-107165563D01*
X169691327Y-107008520D01*
X169430174Y-106900347D01*
X169152935Y-106845200D01*
X168870265Y-106845200D01*
X168593026Y-106900347D01*
X168331873Y-107008520D01*
X168096841Y-107165563D01*
X167896963Y-107365441D01*
X167741600Y-107597959D01*
X167586237Y-107365441D01*
X167386359Y-107165563D01*
X167151327Y-107008520D01*
X166890174Y-106900347D01*
X166612935Y-106845200D01*
X166330265Y-106845200D01*
X166053026Y-106900347D01*
X165791873Y-107008520D01*
X165556841Y-107165563D01*
X165356963Y-107365441D01*
X165201600Y-107597959D01*
X165046237Y-107365441D01*
X164846359Y-107165563D01*
X164816600Y-107145679D01*
X164816600Y-106596469D01*
X164820881Y-106553000D01*
X164816600Y-106509531D01*
X164816600Y-106509523D01*
X164803795Y-106379510D01*
X164755404Y-106219989D01*
X164753189Y-106212686D01*
X164671011Y-106058941D01*
X164588132Y-105957953D01*
X164588130Y-105957951D01*
X164560417Y-105924183D01*
X164526650Y-105896471D01*
X162987934Y-104357756D01*
X162960217Y-104323983D01*
X162825459Y-104213389D01*
X162671713Y-104131211D01*
X162504890Y-104080605D01*
X162374877Y-104067800D01*
X162374869Y-104067800D01*
X162331400Y-104063519D01*
X162287931Y-104067800D01*
X158539469Y-104067800D01*
X158496000Y-104063519D01*
X158452531Y-104067800D01*
X158452523Y-104067800D01*
X158322510Y-104080605D01*
X158155687Y-104131211D01*
X158065641Y-104179341D01*
X158001941Y-104213389D01*
X157900953Y-104296268D01*
X157900951Y-104296270D01*
X157867183Y-104323983D01*
X157839470Y-104357751D01*
X154954551Y-107242671D01*
X154920784Y-107270383D01*
X154893071Y-107304151D01*
X154893068Y-107304154D01*
X154810190Y-107405141D01*
X154728012Y-107558887D01*
X154677405Y-107725710D01*
X154660319Y-107899200D01*
X154664601Y-107942679D01*
X154664600Y-114586731D01*
X154660319Y-114630200D01*
X154664600Y-114673669D01*
X154664600Y-114673676D01*
X154677405Y-114803689D01*
X154728011Y-114970512D01*
X154810189Y-115124258D01*
X154920783Y-115259017D01*
X154954556Y-115286734D01*
X170183870Y-130516049D01*
X170211583Y-130549817D01*
X170245351Y-130577530D01*
X170245353Y-130577532D01*
X170346340Y-130660410D01*
X170346341Y-130660411D01*
X170500087Y-130742589D01*
X170666910Y-130793195D01*
X170796923Y-130806000D01*
X170796931Y-130806000D01*
X170840400Y-130810281D01*
X170883869Y-130806000D01*
X196298531Y-130806000D01*
X196342000Y-130810281D01*
X196385469Y-130806000D01*
X196385477Y-130806000D01*
X196515490Y-130793195D01*
X196682313Y-130742589D01*
X196836059Y-130660411D01*
X196970817Y-130549817D01*
X196998534Y-130516044D01*
X199807249Y-127707330D01*
X199841017Y-127679617D01*
X199903837Y-127603072D01*
X199951611Y-127544859D01*
X200031415Y-127395554D01*
X200033789Y-127391113D01*
X200084395Y-127224290D01*
X200097200Y-127094277D01*
X200097200Y-127094269D01*
X200101481Y-127050800D01*
X200097200Y-127007331D01*
X200097200Y-124911512D01*
X202343983Y-124911512D01*
X202385413Y-125191130D01*
X202480597Y-125457292D01*
X202547529Y-125582514D01*
X202791498Y-125654097D01*
X203604595Y-124841000D01*
X203963805Y-124841000D01*
X204776902Y-125654097D01*
X205020871Y-125582514D01*
X205141771Y-125327004D01*
X205210500Y-125052816D01*
X205224417Y-124770488D01*
X205182987Y-124490870D01*
X205087803Y-124224708D01*
X205020871Y-124099486D01*
X204776902Y-124027903D01*
X203963805Y-124841000D01*
X203604595Y-124841000D01*
X202791498Y-124027903D01*
X202547529Y-124099486D01*
X202426629Y-124354996D01*
X202357900Y-124629184D01*
X202343983Y-124911512D01*
X200097200Y-124911512D01*
X200097200Y-117079578D01*
X202350070Y-114826709D01*
X202404347Y-115099574D01*
X202512520Y-115360727D01*
X202669563Y-115595759D01*
X202869441Y-115795637D01*
X203101959Y-115951000D01*
X202869441Y-116106363D01*
X202669563Y-116306241D01*
X202512520Y-116541273D01*
X202404347Y-116802426D01*
X202349200Y-117079665D01*
X202349200Y-117362335D01*
X202404347Y-117639574D01*
X202512520Y-117900727D01*
X202669563Y-118135759D01*
X202869441Y-118335637D01*
X203101959Y-118491000D01*
X202869441Y-118646363D01*
X202669563Y-118846241D01*
X202512520Y-119081273D01*
X202404347Y-119342426D01*
X202349200Y-119619665D01*
X202349200Y-119902335D01*
X202404347Y-120179574D01*
X202512520Y-120440727D01*
X202669563Y-120675759D01*
X202869441Y-120875637D01*
X203101959Y-121031000D01*
X202869441Y-121186363D01*
X202669563Y-121386241D01*
X202512520Y-121621273D01*
X202404347Y-121882426D01*
X202349200Y-122159665D01*
X202349200Y-122442335D01*
X202404347Y-122719574D01*
X202512520Y-122980727D01*
X202669563Y-123215759D01*
X202869441Y-123415637D01*
X203103328Y-123571915D01*
X203042686Y-123604329D01*
X202971103Y-123848298D01*
X203784200Y-124661395D01*
X204597297Y-123848298D01*
X204525714Y-123604329D01*
X204461208Y-123573806D01*
X204463927Y-123572680D01*
X204698959Y-123415637D01*
X204898837Y-123215759D01*
X205055880Y-122980727D01*
X205164053Y-122719574D01*
X205219200Y-122442335D01*
X205219200Y-122159665D01*
X205164053Y-121882426D01*
X205055880Y-121621273D01*
X204898837Y-121386241D01*
X204698959Y-121186363D01*
X204466441Y-121031000D01*
X204698959Y-120875637D01*
X204898837Y-120675759D01*
X205055880Y-120440727D01*
X205164053Y-120179574D01*
X205219200Y-119902335D01*
X205219200Y-119619665D01*
X205164053Y-119342426D01*
X205055880Y-119081273D01*
X204898837Y-118846241D01*
X204698959Y-118646363D01*
X204466441Y-118491000D01*
X204698959Y-118335637D01*
X204898837Y-118135759D01*
X205055880Y-117900727D01*
X205164053Y-117639574D01*
X205219200Y-117362335D01*
X205219200Y-117079665D01*
X205164053Y-116802426D01*
X205055880Y-116541273D01*
X204898837Y-116306241D01*
X204698959Y-116106363D01*
X204466441Y-115951000D01*
X204698959Y-115795637D01*
X204898837Y-115595759D01*
X205055880Y-115360727D01*
X205164053Y-115099574D01*
X205219200Y-114822335D01*
X205219200Y-114539665D01*
X205164053Y-114262426D01*
X205055880Y-114001273D01*
X204898837Y-113766241D01*
X204698959Y-113566363D01*
X204466441Y-113411000D01*
X204698959Y-113255637D01*
X204898837Y-113055759D01*
X205055880Y-112820727D01*
X205164053Y-112559574D01*
X205219200Y-112282335D01*
X205219200Y-111999665D01*
X205164053Y-111722426D01*
X205055880Y-111461273D01*
X204898837Y-111226241D01*
X204698959Y-111026363D01*
X204466441Y-110871000D01*
X204698959Y-110715637D01*
X204898837Y-110515759D01*
X205055880Y-110280727D01*
X205164053Y-110019574D01*
X205219200Y-109742335D01*
X205219200Y-109459665D01*
X205164053Y-109182426D01*
X205055880Y-108921273D01*
X204898837Y-108686241D01*
X204698959Y-108486363D01*
X204463927Y-108329320D01*
X204202774Y-108221147D01*
X203925535Y-108166000D01*
X203642865Y-108166000D01*
X203365626Y-108221147D01*
X203104473Y-108329320D01*
X202869441Y-108486363D01*
X202669563Y-108686241D01*
X202649679Y-108716000D01*
X201643269Y-108716000D01*
X201599800Y-108711719D01*
X201556331Y-108716000D01*
X201556323Y-108716000D01*
X201426310Y-108728805D01*
X201259487Y-108779411D01*
X201105741Y-108861589D01*
X201004753Y-108944468D01*
X201004751Y-108944470D01*
X200970983Y-108972183D01*
X200943270Y-109005951D01*
X197042356Y-112906866D01*
X197008583Y-112934583D01*
X196897989Y-113069342D01*
X196815811Y-113223088D01*
X196765205Y-113389911D01*
X196752400Y-113519924D01*
X196752400Y-113519931D01*
X196748119Y-113563400D01*
X196752400Y-113606869D01*
X196752401Y-125211020D01*
X194857822Y-127105600D01*
X172299179Y-127105600D01*
X162391779Y-117198200D01*
X172548528Y-117198200D01*
X172548528Y-120698200D01*
X172560788Y-120822682D01*
X172597098Y-120942380D01*
X172656063Y-121052694D01*
X172735415Y-121149385D01*
X172832106Y-121228737D01*
X172942420Y-121287702D01*
X173062118Y-121324012D01*
X173186600Y-121336272D01*
X174710600Y-121336272D01*
X174835082Y-121324012D01*
X174954780Y-121287702D01*
X175065094Y-121228737D01*
X175161785Y-121149385D01*
X175241137Y-121052694D01*
X175300102Y-120942380D01*
X175336412Y-120822682D01*
X175348672Y-120698200D01*
X175348672Y-117198200D01*
X175336412Y-117073718D01*
X175300102Y-116954020D01*
X175241137Y-116843706D01*
X175161785Y-116747015D01*
X175065094Y-116667663D01*
X174954780Y-116608698D01*
X174835082Y-116572388D01*
X174710600Y-116560128D01*
X173186600Y-116560128D01*
X173062118Y-116572388D01*
X172942420Y-116608698D01*
X172832106Y-116667663D01*
X172735415Y-116747015D01*
X172656063Y-116843706D01*
X172597098Y-116954020D01*
X172560788Y-117073718D01*
X172548528Y-117198200D01*
X162391779Y-117198200D01*
X162276600Y-117083022D01*
X162276600Y-109414721D01*
X162306359Y-109394837D01*
X162506237Y-109194959D01*
X162661600Y-108962441D01*
X162816963Y-109194959D01*
X163016841Y-109394837D01*
X163251873Y-109551880D01*
X163513026Y-109660053D01*
X163790265Y-109715200D01*
X164072935Y-109715200D01*
X164350174Y-109660053D01*
X164611327Y-109551880D01*
X164846359Y-109394837D01*
X165046237Y-109194959D01*
X165201600Y-108962441D01*
X165356963Y-109194959D01*
X165556841Y-109394837D01*
X165791873Y-109551880D01*
X166053026Y-109660053D01*
X166330265Y-109715200D01*
X166612935Y-109715200D01*
X166890174Y-109660053D01*
X167151327Y-109551880D01*
X167386359Y-109394837D01*
X167586237Y-109194959D01*
X167741600Y-108962441D01*
X167896963Y-109194959D01*
X168096841Y-109394837D01*
X168331873Y-109551880D01*
X168593026Y-109660053D01*
X168870265Y-109715200D01*
X169152935Y-109715200D01*
X169430174Y-109660053D01*
X169691327Y-109551880D01*
X169926359Y-109394837D01*
X170126237Y-109194959D01*
X170281600Y-108962441D01*
X170436963Y-109194959D01*
X170636841Y-109394837D01*
X170871873Y-109551880D01*
X171133026Y-109660053D01*
X171410265Y-109715200D01*
X171692935Y-109715200D01*
X171970174Y-109660053D01*
X172231327Y-109551880D01*
X172466359Y-109394837D01*
X172666237Y-109194959D01*
X172821600Y-108962441D01*
X172976963Y-109194959D01*
X173176841Y-109394837D01*
X173411873Y-109551880D01*
X173673026Y-109660053D01*
X173950265Y-109715200D01*
X174232935Y-109715200D01*
X174510174Y-109660053D01*
X174771327Y-109551880D01*
X175006359Y-109394837D01*
X175128294Y-109272902D01*
X175818503Y-109272902D01*
X175890086Y-109516871D01*
X176145596Y-109637771D01*
X176419784Y-109706500D01*
X176702112Y-109720417D01*
X176981730Y-109678987D01*
X177247892Y-109583803D01*
X177373114Y-109516871D01*
X177444697Y-109272902D01*
X176631600Y-108459805D01*
X175818503Y-109272902D01*
X175128294Y-109272902D01*
X175206237Y-109194959D01*
X175362515Y-108961072D01*
X175394929Y-109021714D01*
X175638898Y-109093297D01*
X176451995Y-108280200D01*
X176811205Y-108280200D01*
X177624302Y-109093297D01*
X177868271Y-109021714D01*
X177898794Y-108957208D01*
X177899920Y-108959927D01*
X178056963Y-109194959D01*
X178256841Y-109394837D01*
X178491873Y-109551880D01*
X178753026Y-109660053D01*
X179030265Y-109715200D01*
X179312935Y-109715200D01*
X179590174Y-109660053D01*
X179851327Y-109551880D01*
X180086359Y-109394837D01*
X180286237Y-109194959D01*
X180441600Y-108962441D01*
X180596963Y-109194959D01*
X180796841Y-109394837D01*
X181031873Y-109551880D01*
X181293026Y-109660053D01*
X181570265Y-109715200D01*
X181852935Y-109715200D01*
X182130174Y-109660053D01*
X182391327Y-109551880D01*
X182626359Y-109394837D01*
X182826237Y-109194959D01*
X182981600Y-108962441D01*
X183136963Y-109194959D01*
X183336841Y-109394837D01*
X183571873Y-109551880D01*
X183833026Y-109660053D01*
X184110265Y-109715200D01*
X184392935Y-109715200D01*
X184670174Y-109660053D01*
X184931327Y-109551880D01*
X185166359Y-109394837D01*
X185366237Y-109194959D01*
X185521600Y-108962441D01*
X185676963Y-109194959D01*
X185876841Y-109394837D01*
X186111873Y-109551880D01*
X186373026Y-109660053D01*
X186645891Y-109714330D01*
X179557501Y-116802721D01*
X179511785Y-116747015D01*
X179415094Y-116667663D01*
X179304780Y-116608698D01*
X179185082Y-116572388D01*
X179060600Y-116560128D01*
X177536600Y-116560128D01*
X177412118Y-116572388D01*
X177292420Y-116608698D01*
X177182106Y-116667663D01*
X177085415Y-116747015D01*
X177006063Y-116843706D01*
X176947098Y-116954020D01*
X176910788Y-117073718D01*
X176898528Y-117198200D01*
X176898528Y-120698200D01*
X176910788Y-120822682D01*
X176947098Y-120942380D01*
X177006063Y-121052694D01*
X177085415Y-121149385D01*
X177182106Y-121228737D01*
X177292420Y-121287702D01*
X177412118Y-121324012D01*
X177536600Y-121336272D01*
X179060600Y-121336272D01*
X179185082Y-121324012D01*
X179304780Y-121287702D01*
X179415094Y-121228737D01*
X179511785Y-121149385D01*
X179591137Y-121052694D01*
X179650102Y-120942380D01*
X179686412Y-120822682D01*
X179698672Y-120698200D01*
X179698672Y-119164706D01*
X189155162Y-109708217D01*
X189190265Y-109715200D01*
X189472935Y-109715200D01*
X189750174Y-109660053D01*
X190011327Y-109551880D01*
X190246359Y-109394837D01*
X190446237Y-109194959D01*
X190601600Y-108962441D01*
X190756963Y-109194959D01*
X190956841Y-109394837D01*
X190986600Y-109414721D01*
X190986601Y-116560128D01*
X189696600Y-116560128D01*
X189572118Y-116572388D01*
X189452420Y-116608698D01*
X189342106Y-116667663D01*
X189245415Y-116747015D01*
X189166063Y-116843706D01*
X189107098Y-116954020D01*
X189070788Y-117073718D01*
X189058528Y-117198200D01*
X189058528Y-120698200D01*
X189070788Y-120822682D01*
X189107098Y-120942380D01*
X189166063Y-121052694D01*
X189245415Y-121149385D01*
X189342106Y-121228737D01*
X189452420Y-121287702D01*
X189572118Y-121324012D01*
X189696600Y-121336272D01*
X191220600Y-121336272D01*
X191345082Y-121324012D01*
X191464780Y-121287702D01*
X191575094Y-121228737D01*
X191671785Y-121149385D01*
X191751137Y-121052694D01*
X191810102Y-120942380D01*
X191846412Y-120822682D01*
X191858672Y-120698200D01*
X191858672Y-118799707D01*
X192466649Y-118191730D01*
X192500417Y-118164017D01*
X192611011Y-118029259D01*
X192693189Y-117875513D01*
X192743795Y-117708690D01*
X192756600Y-117578677D01*
X192756600Y-117578669D01*
X192760881Y-117535200D01*
X192756600Y-117491731D01*
X192756600Y-117198200D01*
X193408528Y-117198200D01*
X193408528Y-120698200D01*
X193420788Y-120822682D01*
X193457098Y-120942380D01*
X193516063Y-121052694D01*
X193595415Y-121149385D01*
X193692106Y-121228737D01*
X193802420Y-121287702D01*
X193922118Y-121324012D01*
X194046600Y-121336272D01*
X195570600Y-121336272D01*
X195695082Y-121324012D01*
X195814780Y-121287702D01*
X195925094Y-121228737D01*
X196021785Y-121149385D01*
X196101137Y-121052694D01*
X196160102Y-120942380D01*
X196196412Y-120822682D01*
X196208672Y-120698200D01*
X196208672Y-117198200D01*
X196196412Y-117073718D01*
X196160102Y-116954020D01*
X196101137Y-116843706D01*
X196021785Y-116747015D01*
X195925094Y-116667663D01*
X195814780Y-116608698D01*
X195695082Y-116572388D01*
X195570600Y-116560128D01*
X194046600Y-116560128D01*
X193922118Y-116572388D01*
X193802420Y-116608698D01*
X193692106Y-116667663D01*
X193595415Y-116747015D01*
X193516063Y-116843706D01*
X193457098Y-116954020D01*
X193420788Y-117073718D01*
X193408528Y-117198200D01*
X192756600Y-117198200D01*
X192756600Y-109414721D01*
X192786359Y-109394837D01*
X192986237Y-109194959D01*
X193143280Y-108959927D01*
X193251453Y-108698774D01*
X193306600Y-108421535D01*
X193306600Y-108138865D01*
X193251453Y-107861626D01*
X193143280Y-107600473D01*
X192986237Y-107365441D01*
X192786359Y-107165563D01*
X192551327Y-107008520D01*
X192290174Y-106900347D01*
X192012935Y-106845200D01*
X191730265Y-106845200D01*
X191453026Y-106900347D01*
X191191873Y-107008520D01*
X190956841Y-107165563D01*
X190756963Y-107365441D01*
X190601600Y-107597959D01*
X190446237Y-107365441D01*
X190246359Y-107165563D01*
X190011327Y-107008520D01*
X189750174Y-106900347D01*
X189472935Y-106845200D01*
X189190265Y-106845200D01*
X188913026Y-106900347D01*
X188651873Y-107008520D01*
X188416841Y-107165563D01*
X188216963Y-107365441D01*
X188061600Y-107597959D01*
X187906237Y-107365441D01*
X187706359Y-107165563D01*
X187471327Y-107008520D01*
X187210174Y-106900347D01*
X186932935Y-106845200D01*
X186650265Y-106845200D01*
X186373026Y-106900347D01*
X186111873Y-107008520D01*
X185876841Y-107165563D01*
X185676963Y-107365441D01*
X185521600Y-107597959D01*
X185366237Y-107365441D01*
X185166359Y-107165563D01*
X184931327Y-107008520D01*
X184670174Y-106900347D01*
X184392935Y-106845200D01*
X184110265Y-106845200D01*
X183833026Y-106900347D01*
X183571873Y-107008520D01*
X183336841Y-107165563D01*
X183136963Y-107365441D01*
X182981600Y-107597959D01*
X182826237Y-107365441D01*
X182626359Y-107165563D01*
X182391327Y-107008520D01*
X182130174Y-106900347D01*
X181852935Y-106845200D01*
X181570265Y-106845200D01*
X181293026Y-106900347D01*
X181031873Y-107008520D01*
X180796841Y-107165563D01*
X180596963Y-107365441D01*
X180441600Y-107597959D01*
X180286237Y-107365441D01*
X180086359Y-107165563D01*
X179851327Y-107008520D01*
X179590174Y-106900347D01*
X179312935Y-106845200D01*
X179030265Y-106845200D01*
X178753026Y-106900347D01*
X178491873Y-107008520D01*
X178256841Y-107165563D01*
X178056963Y-107365441D01*
X177900685Y-107599328D01*
X177868271Y-107538686D01*
X177624302Y-107467103D01*
X176811205Y-108280200D01*
X176451995Y-108280200D01*
X176437853Y-108266058D01*
X176617458Y-108086453D01*
X176631600Y-108100595D01*
X177444697Y-107287498D01*
X177373114Y-107043529D01*
X177117604Y-106922629D01*
X176843416Y-106853900D01*
X176772952Y-106850427D01*
X177506179Y-106117200D01*
X192336131Y-106117200D01*
X192379600Y-106121481D01*
X192423069Y-106117200D01*
X192423077Y-106117200D01*
X192553090Y-106104395D01*
X192719913Y-106053789D01*
X192873659Y-105971611D01*
X193008417Y-105861017D01*
X193036134Y-105827244D01*
X195260649Y-103602730D01*
X195294417Y-103575017D01*
X195362866Y-103491613D01*
X195405010Y-103440260D01*
X195409522Y-103431819D01*
X195487189Y-103286513D01*
X195537795Y-103119690D01*
X195550600Y-102989677D01*
X195550600Y-102989667D01*
X195554881Y-102946201D01*
X195550600Y-102902735D01*
X195550600Y-101213898D01*
X210111400Y-101213898D01*
X210111400Y-101683702D01*
X210203054Y-102144479D01*
X210382840Y-102578521D01*
X210643850Y-102969149D01*
X210976051Y-103301350D01*
X211366679Y-103562360D01*
X211800721Y-103742146D01*
X212261498Y-103833800D01*
X212731302Y-103833800D01*
X213192079Y-103742146D01*
X213626121Y-103562360D01*
X214016749Y-103301350D01*
X214348950Y-102969149D01*
X214609960Y-102578521D01*
X214789746Y-102144479D01*
X214881400Y-101683702D01*
X214881400Y-101213898D01*
X214789746Y-100753121D01*
X214609960Y-100319079D01*
X214348950Y-99928451D01*
X214016749Y-99596250D01*
X213626121Y-99335240D01*
X213192079Y-99155454D01*
X212731302Y-99063800D01*
X212261498Y-99063800D01*
X211800721Y-99155454D01*
X211366679Y-99335240D01*
X210976051Y-99596250D01*
X210643850Y-99928451D01*
X210382840Y-100319079D01*
X210203054Y-100753121D01*
X210111400Y-101213898D01*
X195550600Y-101213898D01*
X195550600Y-98925669D01*
X195554881Y-98882200D01*
X195550600Y-98838731D01*
X195550600Y-98838723D01*
X195537795Y-98708710D01*
X195487189Y-98541887D01*
X195405011Y-98388141D01*
X195294417Y-98253383D01*
X195260650Y-98225671D01*
X193544134Y-96509156D01*
X193516417Y-96475383D01*
X193381659Y-96364789D01*
X193227913Y-96282611D01*
X193061090Y-96232005D01*
X192931077Y-96219200D01*
X192931069Y-96219200D01*
X192887600Y-96214919D01*
X192844131Y-96219200D01*
X176744179Y-96219200D01*
X174722600Y-94197622D01*
X174722600Y-93508825D01*
X174812082Y-93500012D01*
X174931780Y-93463702D01*
X175042094Y-93404737D01*
X175138785Y-93325385D01*
X175218137Y-93228694D01*
X175277102Y-93118380D01*
X175299113Y-93045820D01*
X175430968Y-93177675D01*
X175674189Y-93340190D01*
X175944442Y-93452132D01*
X176231340Y-93509200D01*
X176523860Y-93509200D01*
X176810758Y-93452132D01*
X177081011Y-93340190D01*
X177324232Y-93177675D01*
X177531075Y-92970832D01*
X177647600Y-92796440D01*
X177764125Y-92970832D01*
X177970968Y-93177675D01*
X178214189Y-93340190D01*
X178484442Y-93452132D01*
X178771340Y-93509200D01*
X179063860Y-93509200D01*
X179350758Y-93452132D01*
X179621011Y-93340190D01*
X179864232Y-93177675D01*
X180071075Y-92970832D01*
X180233590Y-92727611D01*
X180345532Y-92457358D01*
X180402600Y-92170460D01*
X180402600Y-91877940D01*
X180345532Y-91591042D01*
X180233590Y-91320789D01*
X180135643Y-91174200D01*
X182763528Y-91174200D01*
X182763528Y-92874200D01*
X182775788Y-92998682D01*
X182812098Y-93118380D01*
X182871063Y-93228694D01*
X182950415Y-93325385D01*
X183047106Y-93404737D01*
X183157420Y-93463702D01*
X183277118Y-93500012D01*
X183401600Y-93512272D01*
X185101600Y-93512272D01*
X185226082Y-93500012D01*
X185345780Y-93463702D01*
X185456094Y-93404737D01*
X185552785Y-93325385D01*
X185632137Y-93228694D01*
X185691102Y-93118380D01*
X185713113Y-93045820D01*
X185844968Y-93177675D01*
X186088189Y-93340190D01*
X186358442Y-93452132D01*
X186645340Y-93509200D01*
X186937860Y-93509200D01*
X187224758Y-93452132D01*
X187495011Y-93340190D01*
X187738232Y-93177675D01*
X187945075Y-92970832D01*
X188066795Y-92788666D01*
X188136422Y-92905555D01*
X188331331Y-93121788D01*
X188564680Y-93295841D01*
X188827501Y-93421025D01*
X188974710Y-93465676D01*
X189204600Y-93344355D01*
X189204600Y-92151200D01*
X189458600Y-92151200D01*
X189458600Y-93344355D01*
X189688490Y-93465676D01*
X189835699Y-93421025D01*
X190098520Y-93295841D01*
X190331869Y-93121788D01*
X190526778Y-92905555D01*
X190675757Y-92655452D01*
X190773081Y-92381091D01*
X190682342Y-92208217D01*
X228671290Y-92208217D01*
X228712278Y-92480333D01*
X228805564Y-92739223D01*
X228867544Y-92855180D01*
X229107635Y-92922160D01*
X229893595Y-92136200D01*
X230252805Y-92136200D01*
X231038765Y-92922160D01*
X231278856Y-92855180D01*
X231395956Y-92606152D01*
X231462223Y-92339065D01*
X231475110Y-92064183D01*
X231434122Y-91792067D01*
X231340836Y-91533177D01*
X231278856Y-91417220D01*
X231038765Y-91350240D01*
X230252805Y-92136200D01*
X229893595Y-92136200D01*
X229107635Y-91350240D01*
X228867544Y-91417220D01*
X228750444Y-91666248D01*
X228684177Y-91933335D01*
X228671290Y-92208217D01*
X190682342Y-92208217D01*
X190652414Y-92151200D01*
X189458600Y-92151200D01*
X189204600Y-92151200D01*
X189184600Y-92151200D01*
X189184600Y-91897200D01*
X189204600Y-91897200D01*
X189204600Y-90704045D01*
X189458600Y-90704045D01*
X189458600Y-91897200D01*
X190652414Y-91897200D01*
X190773081Y-91667309D01*
X190675757Y-91392948D01*
X190543332Y-91170635D01*
X229287240Y-91170635D01*
X230073200Y-91956595D01*
X230859160Y-91170635D01*
X230792180Y-90930544D01*
X230543152Y-90813444D01*
X230276065Y-90747177D01*
X230001183Y-90734290D01*
X229729067Y-90775278D01*
X229470177Y-90868564D01*
X229354220Y-90930544D01*
X229287240Y-91170635D01*
X190543332Y-91170635D01*
X190526778Y-91142845D01*
X190331869Y-90926612D01*
X190098520Y-90752559D01*
X189835699Y-90627375D01*
X189688490Y-90582724D01*
X189458600Y-90704045D01*
X189204600Y-90704045D01*
X188974710Y-90582724D01*
X188827501Y-90627375D01*
X188564680Y-90752559D01*
X188331331Y-90926612D01*
X188136422Y-91142845D01*
X188066795Y-91259734D01*
X187945075Y-91077568D01*
X187738232Y-90870725D01*
X187495011Y-90708210D01*
X187224758Y-90596268D01*
X186937860Y-90539200D01*
X186645340Y-90539200D01*
X186358442Y-90596268D01*
X186088189Y-90708210D01*
X185844968Y-90870725D01*
X185713113Y-91002580D01*
X185691102Y-90930020D01*
X185632137Y-90819706D01*
X185552785Y-90723015D01*
X185456094Y-90643663D01*
X185345780Y-90584698D01*
X185226082Y-90548388D01*
X185101600Y-90536128D01*
X183401600Y-90536128D01*
X183277118Y-90548388D01*
X183157420Y-90584698D01*
X183047106Y-90643663D01*
X182950415Y-90723015D01*
X182871063Y-90819706D01*
X182812098Y-90930020D01*
X182775788Y-91049718D01*
X182763528Y-91174200D01*
X180135643Y-91174200D01*
X180071075Y-91077568D01*
X179864232Y-90870725D01*
X179621011Y-90708210D01*
X179350758Y-90596268D01*
X179063860Y-90539200D01*
X178771340Y-90539200D01*
X178484442Y-90596268D01*
X178214189Y-90708210D01*
X177970968Y-90870725D01*
X177764125Y-91077568D01*
X177647600Y-91251960D01*
X177531075Y-91077568D01*
X177324232Y-90870725D01*
X177081011Y-90708210D01*
X176810758Y-90596268D01*
X176523860Y-90539200D01*
X176231340Y-90539200D01*
X175944442Y-90596268D01*
X175674189Y-90708210D01*
X175430968Y-90870725D01*
X175299113Y-91002580D01*
X175277102Y-90930020D01*
X175218137Y-90819706D01*
X175138785Y-90723015D01*
X175042094Y-90643663D01*
X174931780Y-90584698D01*
X174812082Y-90548388D01*
X174722600Y-90539575D01*
X174722600Y-82078378D01*
X177810979Y-78990000D01*
X205881422Y-78990000D01*
X209071401Y-82179980D01*
X209071400Y-84274295D01*
X209070166Y-84274955D01*
X208828437Y-84473337D01*
X208630055Y-84715065D01*
X208482645Y-84990851D01*
X208391870Y-85290096D01*
X208368900Y-85523314D01*
X208368900Y-85774285D01*
X208391870Y-86007503D01*
X208482645Y-86306748D01*
X208630055Y-86582534D01*
X208828437Y-86824263D01*
X209070165Y-87022645D01*
X209345951Y-87170055D01*
X209645196Y-87260830D01*
X209956400Y-87291481D01*
X210267603Y-87260830D01*
X210566848Y-87170055D01*
X210842634Y-87022645D01*
X211084363Y-86824263D01*
X211231563Y-86644901D01*
X211386963Y-86830115D01*
X211629477Y-87024769D01*
X211905306Y-87168371D01*
X212123420Y-87239363D01*
X212369400Y-87119394D01*
X212369400Y-85775800D01*
X212349400Y-85775800D01*
X212349400Y-85521800D01*
X212369400Y-85521800D01*
X212369400Y-85501800D01*
X212623400Y-85501800D01*
X212623400Y-85521800D01*
X212643400Y-85521800D01*
X212643400Y-85775800D01*
X212623400Y-85775800D01*
X212623400Y-87119394D01*
X212869380Y-87239363D01*
X213087494Y-87168371D01*
X213363323Y-87024769D01*
X213504341Y-86911581D01*
X213553363Y-87003294D01*
X213632715Y-87099985D01*
X213729406Y-87179337D01*
X213839720Y-87238302D01*
X213959418Y-87274612D01*
X214083900Y-87286872D01*
X215988900Y-87286872D01*
X216113382Y-87274612D01*
X216233080Y-87238302D01*
X216343394Y-87179337D01*
X216440085Y-87099985D01*
X216519437Y-87003294D01*
X216578402Y-86892980D01*
X216614712Y-86773282D01*
X216626972Y-86648800D01*
X216626972Y-85309806D01*
X219035179Y-82901600D01*
X231967222Y-82901600D01*
X240034001Y-90968380D01*
X240034000Y-103646421D01*
X237606022Y-106074400D01*
X232674979Y-106074400D01*
X230907400Y-104306822D01*
X230907400Y-103691753D01*
X230930650Y-103726549D01*
X231262851Y-104058750D01*
X231653479Y-104319760D01*
X232087521Y-104499546D01*
X232548298Y-104591200D01*
X233018102Y-104591200D01*
X233478879Y-104499546D01*
X233912921Y-104319760D01*
X234303549Y-104058750D01*
X234635750Y-103726549D01*
X234896760Y-103335921D01*
X235076546Y-102901879D01*
X235168200Y-102441102D01*
X235168200Y-102133438D01*
X237522519Y-99779120D01*
X237584914Y-99727914D01*
X237789231Y-99478952D01*
X237941052Y-99194915D01*
X238034543Y-98886716D01*
X238058200Y-98646522D01*
X238058200Y-98646520D01*
X238066111Y-98566201D01*
X238058200Y-98485881D01*
X238058200Y-92786519D01*
X238066111Y-92706199D01*
X238051657Y-92559450D01*
X238034543Y-92385684D01*
X237941052Y-92077485D01*
X237789231Y-91793448D01*
X237584914Y-91544486D01*
X237522520Y-91493281D01*
X235168200Y-89138962D01*
X235168200Y-88831298D01*
X235076546Y-88370521D01*
X234896760Y-87936479D01*
X234635750Y-87545851D01*
X234303549Y-87213650D01*
X233912921Y-86952640D01*
X233478879Y-86772854D01*
X233018102Y-86681200D01*
X232548298Y-86681200D01*
X232087521Y-86772854D01*
X231653479Y-86952640D01*
X231262851Y-87213650D01*
X230930650Y-87545851D01*
X230669640Y-87936479D01*
X230489854Y-88370521D01*
X230398200Y-88831298D01*
X230398200Y-89301102D01*
X230489854Y-89761879D01*
X230669640Y-90195921D01*
X230930650Y-90586549D01*
X231262851Y-90918750D01*
X231653479Y-91179760D01*
X232087521Y-91359546D01*
X232548298Y-91451200D01*
X232855962Y-91451200D01*
X234788200Y-93383439D01*
X234788201Y-97888960D01*
X232855962Y-99821200D01*
X232548298Y-99821200D01*
X232087521Y-99912854D01*
X231653479Y-100092640D01*
X231307209Y-100324011D01*
X231365737Y-100252694D01*
X231424702Y-100142380D01*
X231461012Y-100022682D01*
X231473272Y-99898200D01*
X231473272Y-98374200D01*
X231461012Y-98249718D01*
X231424702Y-98130020D01*
X231365737Y-98019706D01*
X231286385Y-97923015D01*
X231189694Y-97843663D01*
X231079380Y-97784698D01*
X230959682Y-97748388D01*
X230927908Y-97745259D01*
X230963735Y-97721320D01*
X231158320Y-97526735D01*
X231311205Y-97297927D01*
X231416514Y-97043690D01*
X231470200Y-96773792D01*
X231470200Y-96498608D01*
X231416514Y-96228710D01*
X231311205Y-95974473D01*
X231158320Y-95745665D01*
X231048855Y-95636200D01*
X231158320Y-95526735D01*
X231311205Y-95297927D01*
X231416514Y-95043690D01*
X231470200Y-94773792D01*
X231470200Y-94498608D01*
X231416514Y-94228710D01*
X231311205Y-93974473D01*
X231158320Y-93745665D01*
X230963735Y-93551080D01*
X230734927Y-93398195D01*
X230707799Y-93386958D01*
X230792180Y-93341856D01*
X230859160Y-93101765D01*
X230073200Y-92315805D01*
X229287240Y-93101765D01*
X229354220Y-93341856D01*
X229444733Y-93384418D01*
X229411473Y-93398195D01*
X229182665Y-93551080D01*
X228988080Y-93745665D01*
X228835195Y-93974473D01*
X228729886Y-94228710D01*
X228676200Y-94498608D01*
X228676200Y-94773792D01*
X228729886Y-95043690D01*
X228835195Y-95297927D01*
X228988080Y-95526735D01*
X229097545Y-95636200D01*
X228988080Y-95745665D01*
X228835195Y-95974473D01*
X228729886Y-96228710D01*
X228676200Y-96498608D01*
X228676200Y-96773792D01*
X228729886Y-97043690D01*
X228835195Y-97297927D01*
X228988080Y-97526735D01*
X229182665Y-97721320D01*
X229218492Y-97745259D01*
X229186718Y-97748388D01*
X229067020Y-97784698D01*
X228956706Y-97843663D01*
X228860015Y-97923015D01*
X228780663Y-98019706D01*
X228721698Y-98130020D01*
X228685388Y-98249718D01*
X228673128Y-98374200D01*
X228673128Y-99898200D01*
X228685388Y-100022682D01*
X228721698Y-100142380D01*
X228780663Y-100252694D01*
X228860015Y-100349385D01*
X228956706Y-100428737D01*
X229067020Y-100487702D01*
X229186718Y-100524012D01*
X229188200Y-100524158D01*
X229188201Y-102504259D01*
X229150205Y-102629513D01*
X229137400Y-102759526D01*
X229137400Y-102759533D01*
X229133119Y-102803002D01*
X229137400Y-102846471D01*
X229137401Y-104629921D01*
X229133119Y-104673400D01*
X229150205Y-104846890D01*
X229200812Y-105013713D01*
X229282990Y-105167459D01*
X229365868Y-105268446D01*
X229365871Y-105268449D01*
X229393584Y-105302217D01*
X229427351Y-105329929D01*
X231651870Y-107554449D01*
X231679583Y-107588217D01*
X231713351Y-107615930D01*
X231713353Y-107615932D01*
X231756550Y-107651383D01*
X231814341Y-107698811D01*
X231968087Y-107780989D01*
X232134910Y-107831595D01*
X232264923Y-107844400D01*
X232264933Y-107844400D01*
X232308399Y-107848681D01*
X232351865Y-107844400D01*
X237929131Y-107844400D01*
X237972600Y-107848681D01*
X238016069Y-107844400D01*
X238016077Y-107844400D01*
X238146090Y-107831595D01*
X238312913Y-107780989D01*
X238466659Y-107698811D01*
X238601417Y-107588217D01*
X238629134Y-107554444D01*
X241456400Y-104727179D01*
X241456401Y-122290020D01*
X230392422Y-133354000D01*
X218167901Y-133354000D01*
X218164012Y-133314518D01*
X218127702Y-133194820D01*
X218068737Y-133084506D01*
X217989385Y-132987815D01*
X217892694Y-132908463D01*
X217782380Y-132849498D01*
X217662682Y-132813188D01*
X217538200Y-132800928D01*
X217530985Y-132800928D01*
X217551297Y-132731702D01*
X216738200Y-131918605D01*
X215925103Y-132731702D01*
X215945415Y-132800928D01*
X215938200Y-132800928D01*
X215813718Y-132813188D01*
X215694020Y-132849498D01*
X215583706Y-132908463D01*
X215487015Y-132987815D01*
X215407663Y-133084506D01*
X215348698Y-133194820D01*
X215312388Y-133314518D01*
X215308499Y-133354000D01*
X211008779Y-133354000D01*
X209464291Y-131809512D01*
X215297983Y-131809512D01*
X215339413Y-132089130D01*
X215434597Y-132355292D01*
X215501529Y-132480514D01*
X215745498Y-132552097D01*
X216558595Y-131739000D01*
X216917805Y-131739000D01*
X217730902Y-132552097D01*
X217974871Y-132480514D01*
X218095771Y-132225004D01*
X218164500Y-131950816D01*
X218178417Y-131668488D01*
X218136987Y-131388870D01*
X218041803Y-131122708D01*
X217974871Y-130997486D01*
X217730902Y-130925903D01*
X216917805Y-131739000D01*
X216558595Y-131739000D01*
X215745498Y-130925903D01*
X215501529Y-130997486D01*
X215380629Y-131252996D01*
X215311900Y-131527184D01*
X215297983Y-131809512D01*
X209464291Y-131809512D01*
X208401077Y-130746298D01*
X215925103Y-130746298D01*
X216738200Y-131559395D01*
X217551297Y-130746298D01*
X217479714Y-130502329D01*
X217224204Y-130381429D01*
X216950016Y-130312700D01*
X216667688Y-130298783D01*
X216388070Y-130340213D01*
X216121908Y-130435397D01*
X215996686Y-130502329D01*
X215925103Y-130746298D01*
X208401077Y-130746298D01*
X205212217Y-127557439D01*
X205219200Y-127522335D01*
X205219200Y-127239665D01*
X205164053Y-126962426D01*
X205055880Y-126701273D01*
X204975517Y-126581000D01*
X209966128Y-126581000D01*
X209966128Y-128181000D01*
X209978388Y-128305482D01*
X210014698Y-128425180D01*
X210073663Y-128535494D01*
X210153015Y-128632185D01*
X210249706Y-128711537D01*
X210360020Y-128770502D01*
X210479718Y-128806812D01*
X210604200Y-128819072D01*
X212204200Y-128819072D01*
X212328682Y-128806812D01*
X212448380Y-128770502D01*
X212558694Y-128711537D01*
X212655385Y-128632185D01*
X212734737Y-128535494D01*
X212793702Y-128425180D01*
X212830012Y-128305482D01*
X212842272Y-128181000D01*
X212842272Y-126581000D01*
X212830012Y-126456518D01*
X212793702Y-126336820D01*
X212734737Y-126226506D01*
X212655385Y-126129815D01*
X212558694Y-126050463D01*
X212448380Y-125991498D01*
X212328682Y-125955188D01*
X212320239Y-125954357D01*
X212509596Y-125765000D01*
X215500128Y-125765000D01*
X215500128Y-126965000D01*
X215512388Y-127089482D01*
X215548698Y-127209180D01*
X215607663Y-127319494D01*
X215687015Y-127416185D01*
X215783706Y-127495537D01*
X215894020Y-127554502D01*
X216013718Y-127590812D01*
X216138200Y-127603072D01*
X217338200Y-127603072D01*
X217462682Y-127590812D01*
X217582380Y-127554502D01*
X217692694Y-127495537D01*
X217789385Y-127416185D01*
X217868737Y-127319494D01*
X217927702Y-127209180D01*
X217964012Y-127089482D01*
X217976272Y-126965000D01*
X217976272Y-125765000D01*
X217964012Y-125640518D01*
X217927702Y-125520820D01*
X217868737Y-125410506D01*
X217789385Y-125313815D01*
X217692694Y-125234463D01*
X217642253Y-125207501D01*
X217697487Y-125152267D01*
X217832643Y-124949992D01*
X217925740Y-124725236D01*
X217973200Y-124486637D01*
X217973200Y-124243363D01*
X217925740Y-124004764D01*
X217832643Y-123780008D01*
X217697487Y-123577733D01*
X217525467Y-123405713D01*
X217323192Y-123270557D01*
X217098436Y-123177460D01*
X216859837Y-123130000D01*
X216616563Y-123130000D01*
X216377964Y-123177460D01*
X216153208Y-123270557D01*
X215950933Y-123405713D01*
X215778913Y-123577733D01*
X215643757Y-123780008D01*
X215550660Y-124004764D01*
X215503200Y-124243363D01*
X215503200Y-124486637D01*
X215550660Y-124725236D01*
X215643757Y-124949992D01*
X215778913Y-125152267D01*
X215834147Y-125207501D01*
X215783706Y-125234463D01*
X215687015Y-125313815D01*
X215607663Y-125410506D01*
X215548698Y-125520820D01*
X215512388Y-125640518D01*
X215500128Y-125765000D01*
X212509596Y-125765000D01*
X212518837Y-125755759D01*
X212675880Y-125520727D01*
X212784053Y-125259574D01*
X212839200Y-124982335D01*
X212839200Y-124699665D01*
X212784053Y-124422426D01*
X212675880Y-124161273D01*
X212518837Y-123926241D01*
X212318959Y-123726363D01*
X212086441Y-123571000D01*
X212318959Y-123415637D01*
X212518837Y-123215759D01*
X212675880Y-122980727D01*
X212784053Y-122719574D01*
X212839200Y-122442335D01*
X212839200Y-122159665D01*
X212784053Y-121882426D01*
X212675880Y-121621273D01*
X212518837Y-121386241D01*
X212318959Y-121186363D01*
X212086441Y-121031000D01*
X212318959Y-120875637D01*
X212518837Y-120675759D01*
X212675880Y-120440727D01*
X212784053Y-120179574D01*
X212839200Y-119902335D01*
X212839200Y-119619665D01*
X212838758Y-119617438D01*
X215499705Y-119617438D01*
X215538805Y-119857549D01*
X215623998Y-120085418D01*
X215664852Y-120161852D01*
X215888434Y-120209158D01*
X215771328Y-120326264D01*
X215829206Y-120384142D01*
X215783706Y-120408463D01*
X215687015Y-120487815D01*
X215607663Y-120584506D01*
X215548698Y-120694820D01*
X215512388Y-120814518D01*
X215500128Y-120939000D01*
X215500128Y-122139000D01*
X215512388Y-122263482D01*
X215548698Y-122383180D01*
X215607663Y-122493494D01*
X215687015Y-122590185D01*
X215783706Y-122669537D01*
X215894020Y-122728502D01*
X216013718Y-122764812D01*
X216138200Y-122777072D01*
X217338200Y-122777072D01*
X217462682Y-122764812D01*
X217582380Y-122728502D01*
X217692694Y-122669537D01*
X217789385Y-122590185D01*
X217868737Y-122493494D01*
X217927702Y-122383180D01*
X217964012Y-122263482D01*
X217976272Y-122139000D01*
X217976272Y-120939000D01*
X217964012Y-120814518D01*
X217927702Y-120694820D01*
X217868737Y-120584506D01*
X217789385Y-120487815D01*
X217692694Y-120408463D01*
X217647194Y-120384142D01*
X217705072Y-120326264D01*
X217587966Y-120209158D01*
X217811548Y-120161852D01*
X217912437Y-119940484D01*
X217968200Y-119703687D01*
X217976695Y-119460562D01*
X217937595Y-119220451D01*
X217852402Y-118992582D01*
X217811548Y-118916148D01*
X217587964Y-118868841D01*
X216917805Y-119539000D01*
X216931948Y-119553143D01*
X216752343Y-119732748D01*
X216738200Y-119718605D01*
X216724058Y-119732748D01*
X216544453Y-119553143D01*
X216558595Y-119539000D01*
X215888436Y-118868841D01*
X215664852Y-118916148D01*
X215563963Y-119137516D01*
X215508200Y-119374313D01*
X215499705Y-119617438D01*
X212838758Y-119617438D01*
X212784053Y-119342426D01*
X212675880Y-119081273D01*
X212518837Y-118846241D01*
X212361832Y-118689236D01*
X216068041Y-118689236D01*
X216738200Y-119359395D01*
X217408359Y-118689236D01*
X217361052Y-118465652D01*
X217139684Y-118364763D01*
X216902887Y-118309000D01*
X216659762Y-118300505D01*
X216419651Y-118339605D01*
X216191782Y-118424798D01*
X216115348Y-118465652D01*
X216068041Y-118689236D01*
X212361832Y-118689236D01*
X212318959Y-118646363D01*
X212086441Y-118491000D01*
X212318959Y-118335637D01*
X212518837Y-118135759D01*
X212675880Y-117900727D01*
X212784053Y-117639574D01*
X212839200Y-117362335D01*
X212839200Y-117079665D01*
X212784053Y-116802426D01*
X212675880Y-116541273D01*
X212518837Y-116306241D01*
X212325596Y-116113000D01*
X215500128Y-116113000D01*
X215500128Y-117313000D01*
X215512388Y-117437482D01*
X215548698Y-117557180D01*
X215607663Y-117667494D01*
X215687015Y-117764185D01*
X215783706Y-117843537D01*
X215894020Y-117902502D01*
X216013718Y-117938812D01*
X216138200Y-117951072D01*
X217338200Y-117951072D01*
X217462682Y-117938812D01*
X217582380Y-117902502D01*
X217692694Y-117843537D01*
X217789385Y-117764185D01*
X217868737Y-117667494D01*
X217927702Y-117557180D01*
X217964012Y-117437482D01*
X217976272Y-117313000D01*
X217976272Y-116113000D01*
X217964012Y-115988518D01*
X217927702Y-115868820D01*
X217868737Y-115758506D01*
X217789385Y-115661815D01*
X217692694Y-115582463D01*
X217642253Y-115555501D01*
X217697487Y-115500267D01*
X217832643Y-115297992D01*
X217925740Y-115073236D01*
X217973200Y-114834637D01*
X217973200Y-114591363D01*
X217925740Y-114352764D01*
X217832643Y-114128008D01*
X217697487Y-113925733D01*
X217525467Y-113753713D01*
X217323192Y-113618557D01*
X217098436Y-113525460D01*
X216859837Y-113478000D01*
X216616563Y-113478000D01*
X216377964Y-113525460D01*
X216153208Y-113618557D01*
X215950933Y-113753713D01*
X215778913Y-113925733D01*
X215643757Y-114128008D01*
X215550660Y-114352764D01*
X215503200Y-114591363D01*
X215503200Y-114834637D01*
X215550660Y-115073236D01*
X215643757Y-115297992D01*
X215778913Y-115500267D01*
X215834147Y-115555501D01*
X215783706Y-115582463D01*
X215687015Y-115661815D01*
X215607663Y-115758506D01*
X215548698Y-115868820D01*
X215512388Y-115988518D01*
X215500128Y-116113000D01*
X212325596Y-116113000D01*
X212318959Y-116106363D01*
X212086441Y-115951000D01*
X212318959Y-115795637D01*
X212518837Y-115595759D01*
X212675880Y-115360727D01*
X212784053Y-115099574D01*
X212839200Y-114822335D01*
X212839200Y-114539665D01*
X212784053Y-114262426D01*
X212675880Y-114001273D01*
X212518837Y-113766241D01*
X212318959Y-113566363D01*
X212086441Y-113411000D01*
X212318959Y-113255637D01*
X212518837Y-113055759D01*
X212675880Y-112820727D01*
X212784053Y-112559574D01*
X212798489Y-112487000D01*
X215500128Y-112487000D01*
X215512388Y-112611482D01*
X215548698Y-112731180D01*
X215607663Y-112841494D01*
X215687015Y-112938185D01*
X215783706Y-113017537D01*
X215894020Y-113076502D01*
X216013718Y-113112812D01*
X216138200Y-113125072D01*
X216452450Y-113122000D01*
X216611200Y-112963250D01*
X216611200Y-112014000D01*
X216865200Y-112014000D01*
X216865200Y-112963250D01*
X217023950Y-113122000D01*
X217338200Y-113125072D01*
X217462682Y-113112812D01*
X217582380Y-113076502D01*
X217692694Y-113017537D01*
X217789385Y-112938185D01*
X217868737Y-112841494D01*
X217927702Y-112731180D01*
X217964012Y-112611482D01*
X217976272Y-112487000D01*
X217973200Y-112172750D01*
X217814450Y-112014000D01*
X216865200Y-112014000D01*
X216611200Y-112014000D01*
X215661950Y-112014000D01*
X215503200Y-112172750D01*
X215500128Y-112487000D01*
X212798489Y-112487000D01*
X212839200Y-112282335D01*
X212839200Y-111999665D01*
X212784053Y-111722426D01*
X212675880Y-111461273D01*
X212559435Y-111287000D01*
X215500128Y-111287000D01*
X215503200Y-111601250D01*
X215661950Y-111760000D01*
X216611200Y-111760000D01*
X216611200Y-111740000D01*
X216865200Y-111740000D01*
X216865200Y-111760000D01*
X217814450Y-111760000D01*
X217973200Y-111601250D01*
X217976272Y-111287000D01*
X217964012Y-111162518D01*
X217927702Y-111042820D01*
X217868737Y-110932506D01*
X217789385Y-110835815D01*
X217692694Y-110756463D01*
X217642253Y-110729501D01*
X217697487Y-110674267D01*
X217832643Y-110471992D01*
X217925740Y-110247236D01*
X217973200Y-110008637D01*
X217973200Y-109765363D01*
X217925740Y-109526764D01*
X217832643Y-109302008D01*
X217697487Y-109099733D01*
X217525467Y-108927713D01*
X217323192Y-108792557D01*
X217098436Y-108699460D01*
X216859837Y-108652000D01*
X216616563Y-108652000D01*
X216377964Y-108699460D01*
X216153208Y-108792557D01*
X215950933Y-108927713D01*
X215778913Y-109099733D01*
X215643757Y-109302008D01*
X215550660Y-109526764D01*
X215503200Y-109765363D01*
X215503200Y-110008637D01*
X215550660Y-110247236D01*
X215643757Y-110471992D01*
X215778913Y-110674267D01*
X215834147Y-110729501D01*
X215783706Y-110756463D01*
X215687015Y-110835815D01*
X215607663Y-110932506D01*
X215548698Y-111042820D01*
X215512388Y-111162518D01*
X215500128Y-111287000D01*
X212559435Y-111287000D01*
X212518837Y-111226241D01*
X212318959Y-111026363D01*
X212086441Y-110871000D01*
X212318959Y-110715637D01*
X212518837Y-110515759D01*
X212675880Y-110280727D01*
X212784053Y-110019574D01*
X212839200Y-109742335D01*
X212839200Y-109459665D01*
X212784053Y-109182426D01*
X212675880Y-108921273D01*
X212518837Y-108686241D01*
X212318959Y-108486363D01*
X212083927Y-108329320D01*
X211822774Y-108221147D01*
X211545535Y-108166000D01*
X211262865Y-108166000D01*
X210985626Y-108221147D01*
X210724473Y-108329320D01*
X210489441Y-108486363D01*
X210289563Y-108686241D01*
X210132520Y-108921273D01*
X210024347Y-109182426D01*
X209969200Y-109459665D01*
X209969200Y-109742335D01*
X210024347Y-110019574D01*
X210132520Y-110280727D01*
X210289563Y-110515759D01*
X210489441Y-110715637D01*
X210721959Y-110871000D01*
X210489441Y-111026363D01*
X210289563Y-111226241D01*
X210132520Y-111461273D01*
X210024347Y-111722426D01*
X209969200Y-111999665D01*
X209969200Y-112282335D01*
X210024347Y-112559574D01*
X210132520Y-112820727D01*
X210289563Y-113055759D01*
X210489441Y-113255637D01*
X210721959Y-113411000D01*
X210489441Y-113566363D01*
X210289563Y-113766241D01*
X210132520Y-114001273D01*
X210024347Y-114262426D01*
X209969200Y-114539665D01*
X209969200Y-114822335D01*
X210024347Y-115099574D01*
X210132520Y-115360727D01*
X210289563Y-115595759D01*
X210489441Y-115795637D01*
X210721959Y-115951000D01*
X210489441Y-116106363D01*
X210289563Y-116306241D01*
X210132520Y-116541273D01*
X210024347Y-116802426D01*
X209969200Y-117079665D01*
X209969200Y-117362335D01*
X210024347Y-117639574D01*
X210132520Y-117900727D01*
X210289563Y-118135759D01*
X210489441Y-118335637D01*
X210721959Y-118491000D01*
X210489441Y-118646363D01*
X210289563Y-118846241D01*
X210132520Y-119081273D01*
X210024347Y-119342426D01*
X209969200Y-119619665D01*
X209969200Y-119902335D01*
X210024347Y-120179574D01*
X210132520Y-120440727D01*
X210289563Y-120675759D01*
X210489441Y-120875637D01*
X210721959Y-121031000D01*
X210489441Y-121186363D01*
X210289563Y-121386241D01*
X210132520Y-121621273D01*
X210024347Y-121882426D01*
X209969200Y-122159665D01*
X209969200Y-122442335D01*
X210024347Y-122719574D01*
X210132520Y-122980727D01*
X210289563Y-123215759D01*
X210489441Y-123415637D01*
X210721959Y-123571000D01*
X210489441Y-123726363D01*
X210289563Y-123926241D01*
X210132520Y-124161273D01*
X210024347Y-124422426D01*
X209969200Y-124699665D01*
X209969200Y-124982335D01*
X210024347Y-125259574D01*
X210132520Y-125520727D01*
X210289563Y-125755759D01*
X210488161Y-125954357D01*
X210479718Y-125955188D01*
X210360020Y-125991498D01*
X210249706Y-126050463D01*
X210153015Y-126129815D01*
X210073663Y-126226506D01*
X210014698Y-126336820D01*
X209978388Y-126456518D01*
X209966128Y-126581000D01*
X204975517Y-126581000D01*
X204898837Y-126466241D01*
X204698959Y-126266363D01*
X204465072Y-126110085D01*
X204525714Y-126077671D01*
X204597297Y-125833702D01*
X203784200Y-125020605D01*
X202971103Y-125833702D01*
X203042686Y-126077671D01*
X203107192Y-126108194D01*
X203104473Y-126109320D01*
X202869441Y-126266363D01*
X202669563Y-126466241D01*
X202512520Y-126701273D01*
X202404347Y-126962426D01*
X202349200Y-127239665D01*
X202349200Y-127522335D01*
X202404347Y-127799574D01*
X202512520Y-128060727D01*
X202669563Y-128295759D01*
X202869441Y-128495637D01*
X203104473Y-128652680D01*
X203365626Y-128760853D01*
X203642865Y-128816000D01*
X203925535Y-128816000D01*
X203960639Y-128809017D01*
X209985670Y-134834049D01*
X210013383Y-134867817D01*
X210047151Y-134895530D01*
X210047153Y-134895532D01*
X210148141Y-134978411D01*
X210301886Y-135060589D01*
X210468710Y-135111195D01*
X210598723Y-135124000D01*
X210598731Y-135124000D01*
X210642200Y-135128281D01*
X210685669Y-135124000D01*
X215308499Y-135124000D01*
X215312388Y-135163482D01*
X215348698Y-135283180D01*
X215407663Y-135393494D01*
X215487015Y-135490185D01*
X215583706Y-135569537D01*
X215694020Y-135628502D01*
X215813718Y-135664812D01*
X215938200Y-135677072D01*
X217538200Y-135677072D01*
X217662682Y-135664812D01*
X217782380Y-135628502D01*
X217892694Y-135569537D01*
X217989385Y-135490185D01*
X218068737Y-135393494D01*
X218127702Y-135283180D01*
X218164012Y-135163482D01*
X218167901Y-135124000D01*
X230715531Y-135124000D01*
X230759000Y-135128281D01*
X230802469Y-135124000D01*
X230802477Y-135124000D01*
X230932490Y-135111195D01*
X231099313Y-135060589D01*
X231253059Y-134978411D01*
X231387817Y-134867817D01*
X231415534Y-134834044D01*
X242936449Y-123313130D01*
X242970217Y-123285417D01*
X243027385Y-123215759D01*
X243080810Y-123150660D01*
X243162988Y-122996914D01*
X243162989Y-122996913D01*
X243213595Y-122830090D01*
X243226400Y-122700077D01*
X243226400Y-122700067D01*
X243230681Y-122656601D01*
X243226400Y-122613135D01*
X243226400Y-90137265D01*
X243230681Y-90093799D01*
X243226400Y-90050333D01*
X243226400Y-90050323D01*
X243213595Y-89920310D01*
X243162989Y-89753487D01*
X243080811Y-89599741D01*
X242970217Y-89464983D01*
X242936451Y-89437272D01*
X238273165Y-84773986D01*
X238823865Y-85002094D01*
X239622738Y-85161000D01*
X240437262Y-85161000D01*
X241236135Y-85002094D01*
X241988657Y-84690389D01*
X242665909Y-84237864D01*
X243241864Y-83661909D01*
X243694389Y-82984657D01*
X243942000Y-82386871D01*
X243942001Y-131735131D01*
X243694389Y-131137343D01*
X243241864Y-130460091D01*
X242665909Y-129884136D01*
X241988657Y-129431611D01*
X241236135Y-129119906D01*
X240437262Y-128961000D01*
X239622738Y-128961000D01*
X238823865Y-129119906D01*
X238071343Y-129431611D01*
X237394091Y-129884136D01*
X236818136Y-130460091D01*
X236365611Y-131137343D01*
X236053906Y-131889865D01*
X235895000Y-132688738D01*
X235895000Y-133503262D01*
X236053906Y-134302135D01*
X236365611Y-135054657D01*
X236818136Y-135731909D01*
X237394091Y-136307864D01*
X238061781Y-136754000D01*
X73342219Y-136754000D01*
X74009909Y-136307864D01*
X74585864Y-135731909D01*
X75038389Y-135054657D01*
X75350094Y-134302135D01*
X75509000Y-133503262D01*
X75509000Y-132688738D01*
X75350094Y-131889865D01*
X75038389Y-131137343D01*
X74585864Y-130460091D01*
X74009909Y-129884136D01*
X73332657Y-129431611D01*
X72580135Y-129119906D01*
X71781262Y-128961000D01*
X70966738Y-128961000D01*
X70167865Y-129119906D01*
X69415343Y-129431611D01*
X68738091Y-129884136D01*
X68162136Y-130460091D01*
X67716000Y-131127781D01*
X67716000Y-122814621D01*
X72731500Y-122814621D01*
X72731500Y-123235179D01*
X72813547Y-123647656D01*
X72974488Y-124036202D01*
X73208137Y-124385883D01*
X73505517Y-124683263D01*
X73855198Y-124916912D01*
X74243744Y-125077853D01*
X74656221Y-125159900D01*
X75076779Y-125159900D01*
X75489256Y-125077853D01*
X75877802Y-124916912D01*
X76227483Y-124683263D01*
X76524863Y-124385883D01*
X76758512Y-124036202D01*
X76919453Y-123647656D01*
X77001500Y-123235179D01*
X77001500Y-122814621D01*
X147730080Y-122814621D01*
X147730080Y-123235179D01*
X147812127Y-123647656D01*
X147973068Y-124036202D01*
X148206717Y-124385883D01*
X148504097Y-124683263D01*
X148853778Y-124916912D01*
X149242324Y-125077853D01*
X149654801Y-125159900D01*
X150075359Y-125159900D01*
X150487836Y-125077853D01*
X150876382Y-124916912D01*
X151226063Y-124683263D01*
X151523443Y-124385883D01*
X151757092Y-124036202D01*
X151918033Y-123647656D01*
X152000080Y-123235179D01*
X152000080Y-122814621D01*
X151918033Y-122402144D01*
X151757092Y-122013598D01*
X151523443Y-121663917D01*
X151226063Y-121366537D01*
X150876382Y-121132888D01*
X150487836Y-120971947D01*
X150075359Y-120889900D01*
X149654801Y-120889900D01*
X149242324Y-120971947D01*
X148853778Y-121132888D01*
X148504097Y-121366537D01*
X148206717Y-121663917D01*
X147973068Y-122013598D01*
X147812127Y-122402144D01*
X147730080Y-122814621D01*
X77001500Y-122814621D01*
X76919453Y-122402144D01*
X76758512Y-122013598D01*
X76524863Y-121663917D01*
X76227483Y-121366537D01*
X75877802Y-121132888D01*
X75489256Y-120971947D01*
X75076779Y-120889900D01*
X74656221Y-120889900D01*
X74243744Y-120971947D01*
X73855198Y-121132888D01*
X73505517Y-121366537D01*
X73208137Y-121663917D01*
X72974488Y-122013598D01*
X72813547Y-122402144D01*
X72731500Y-122814621D01*
X67716000Y-122814621D01*
X67716000Y-100518865D01*
X157416600Y-100518865D01*
X157416600Y-100801535D01*
X157471747Y-101078774D01*
X157579920Y-101339927D01*
X157736963Y-101574959D01*
X157936841Y-101774837D01*
X158171873Y-101931880D01*
X158433026Y-102040053D01*
X158710265Y-102095200D01*
X158992935Y-102095200D01*
X159270174Y-102040053D01*
X159531327Y-101931880D01*
X159766359Y-101774837D01*
X159966237Y-101574959D01*
X160121600Y-101342441D01*
X160276963Y-101574959D01*
X160476841Y-101774837D01*
X160711873Y-101931880D01*
X160973026Y-102040053D01*
X161250265Y-102095200D01*
X161532935Y-102095200D01*
X161810174Y-102040053D01*
X162071327Y-101931880D01*
X162306359Y-101774837D01*
X162506237Y-101574959D01*
X162661600Y-101342441D01*
X162816963Y-101574959D01*
X163016841Y-101774837D01*
X163251873Y-101931880D01*
X163513026Y-102040053D01*
X163790265Y-102095200D01*
X164072935Y-102095200D01*
X164350174Y-102040053D01*
X164611327Y-101931880D01*
X164846359Y-101774837D01*
X165046237Y-101574959D01*
X165201600Y-101342441D01*
X165356963Y-101574959D01*
X165556841Y-101774837D01*
X165791873Y-101931880D01*
X166053026Y-102040053D01*
X166330265Y-102095200D01*
X166612935Y-102095200D01*
X166890174Y-102040053D01*
X167151327Y-101931880D01*
X167386359Y-101774837D01*
X167586237Y-101574959D01*
X167741600Y-101342441D01*
X167896963Y-101574959D01*
X168096841Y-101774837D01*
X168331873Y-101931880D01*
X168593026Y-102040053D01*
X168870265Y-102095200D01*
X169152935Y-102095200D01*
X169430174Y-102040053D01*
X169691327Y-101931880D01*
X169926359Y-101774837D01*
X170126237Y-101574959D01*
X170281600Y-101342441D01*
X170436963Y-101574959D01*
X170636841Y-101774837D01*
X170871873Y-101931880D01*
X171133026Y-102040053D01*
X171410265Y-102095200D01*
X171692935Y-102095200D01*
X171970174Y-102040053D01*
X172231327Y-101931880D01*
X172466359Y-101774837D01*
X172588294Y-101652902D01*
X173278503Y-101652902D01*
X173350086Y-101896871D01*
X173605596Y-102017771D01*
X173879784Y-102086500D01*
X174162112Y-102100417D01*
X174441730Y-102058987D01*
X174707892Y-101963803D01*
X174833114Y-101896871D01*
X174904697Y-101652902D01*
X174091600Y-100839805D01*
X173278503Y-101652902D01*
X172588294Y-101652902D01*
X172666237Y-101574959D01*
X172822515Y-101341072D01*
X172854929Y-101401714D01*
X173098898Y-101473297D01*
X173911995Y-100660200D01*
X174271205Y-100660200D01*
X175084302Y-101473297D01*
X175328271Y-101401714D01*
X175358794Y-101337208D01*
X175359920Y-101339927D01*
X175516963Y-101574959D01*
X175716841Y-101774837D01*
X175951873Y-101931880D01*
X176213026Y-102040053D01*
X176490265Y-102095200D01*
X176772935Y-102095200D01*
X177050174Y-102040053D01*
X177311327Y-101931880D01*
X177546359Y-101774837D01*
X177746237Y-101574959D01*
X177901600Y-101342441D01*
X178056963Y-101574959D01*
X178256841Y-101774837D01*
X178491873Y-101931880D01*
X178753026Y-102040053D01*
X179030265Y-102095200D01*
X179312935Y-102095200D01*
X179590174Y-102040053D01*
X179851327Y-101931880D01*
X180086359Y-101774837D01*
X180286237Y-101574959D01*
X180441600Y-101342441D01*
X180596963Y-101574959D01*
X180796841Y-101774837D01*
X181031873Y-101931880D01*
X181293026Y-102040053D01*
X181570265Y-102095200D01*
X181852935Y-102095200D01*
X182130174Y-102040053D01*
X182391327Y-101931880D01*
X182626359Y-101774837D01*
X182826237Y-101574959D01*
X182981600Y-101342441D01*
X183136963Y-101574959D01*
X183336841Y-101774837D01*
X183571873Y-101931880D01*
X183833026Y-102040053D01*
X184110265Y-102095200D01*
X184392935Y-102095200D01*
X184670174Y-102040053D01*
X184931327Y-101931880D01*
X185166359Y-101774837D01*
X185366237Y-101574959D01*
X185521600Y-101342441D01*
X185676963Y-101574959D01*
X185876841Y-101774837D01*
X186111873Y-101931880D01*
X186373026Y-102040053D01*
X186650265Y-102095200D01*
X186932935Y-102095200D01*
X187210174Y-102040053D01*
X187471327Y-101931880D01*
X187706359Y-101774837D01*
X187906237Y-101574959D01*
X188061600Y-101342441D01*
X188216963Y-101574959D01*
X188416841Y-101774837D01*
X188651873Y-101931880D01*
X188913026Y-102040053D01*
X189190265Y-102095200D01*
X189472935Y-102095200D01*
X189750174Y-102040053D01*
X190011327Y-101931880D01*
X190246359Y-101774837D01*
X190446237Y-101574959D01*
X190601600Y-101342441D01*
X190756963Y-101574959D01*
X190956841Y-101774837D01*
X191191873Y-101931880D01*
X191453026Y-102040053D01*
X191730265Y-102095200D01*
X192012935Y-102095200D01*
X192290174Y-102040053D01*
X192551327Y-101931880D01*
X192786359Y-101774837D01*
X192986237Y-101574959D01*
X193143280Y-101339927D01*
X193251453Y-101078774D01*
X193306600Y-100801535D01*
X193306600Y-100518865D01*
X193251453Y-100241626D01*
X193143280Y-99980473D01*
X192986237Y-99745441D01*
X192786359Y-99545563D01*
X192551327Y-99388520D01*
X192290174Y-99280347D01*
X192012935Y-99225200D01*
X191730265Y-99225200D01*
X191453026Y-99280347D01*
X191191873Y-99388520D01*
X190956841Y-99545563D01*
X190756963Y-99745441D01*
X190601600Y-99977959D01*
X190446237Y-99745441D01*
X190246359Y-99545563D01*
X190011327Y-99388520D01*
X189750174Y-99280347D01*
X189472935Y-99225200D01*
X189190265Y-99225200D01*
X188913026Y-99280347D01*
X188651873Y-99388520D01*
X188416841Y-99545563D01*
X188216963Y-99745441D01*
X188061600Y-99977959D01*
X187906237Y-99745441D01*
X187706359Y-99545563D01*
X187471327Y-99388520D01*
X187210174Y-99280347D01*
X186932935Y-99225200D01*
X186650265Y-99225200D01*
X186373026Y-99280347D01*
X186111873Y-99388520D01*
X185876841Y-99545563D01*
X185676963Y-99745441D01*
X185521600Y-99977959D01*
X185366237Y-99745441D01*
X185166359Y-99545563D01*
X184931327Y-99388520D01*
X184670174Y-99280347D01*
X184392935Y-99225200D01*
X184110265Y-99225200D01*
X183833026Y-99280347D01*
X183571873Y-99388520D01*
X183336841Y-99545563D01*
X183136963Y-99745441D01*
X182981600Y-99977959D01*
X182826237Y-99745441D01*
X182626359Y-99545563D01*
X182391327Y-99388520D01*
X182130174Y-99280347D01*
X181852935Y-99225200D01*
X181570265Y-99225200D01*
X181293026Y-99280347D01*
X181031873Y-99388520D01*
X180796841Y-99545563D01*
X180596963Y-99745441D01*
X180441600Y-99977959D01*
X180286237Y-99745441D01*
X180086359Y-99545563D01*
X179851327Y-99388520D01*
X179590174Y-99280347D01*
X179312935Y-99225200D01*
X179030265Y-99225200D01*
X178753026Y-99280347D01*
X178491873Y-99388520D01*
X178256841Y-99545563D01*
X178056963Y-99745441D01*
X177901600Y-99977959D01*
X177746237Y-99745441D01*
X177546359Y-99545563D01*
X177311327Y-99388520D01*
X177050174Y-99280347D01*
X176772935Y-99225200D01*
X176490265Y-99225200D01*
X176213026Y-99280347D01*
X175951873Y-99388520D01*
X175716841Y-99545563D01*
X175516963Y-99745441D01*
X175360685Y-99979328D01*
X175328271Y-99918686D01*
X175084302Y-99847103D01*
X174271205Y-100660200D01*
X173911995Y-100660200D01*
X173098898Y-99847103D01*
X172854929Y-99918686D01*
X172824406Y-99983192D01*
X172823280Y-99980473D01*
X172666237Y-99745441D01*
X172588294Y-99667498D01*
X173278503Y-99667498D01*
X174091600Y-100480595D01*
X174904697Y-99667498D01*
X174833114Y-99423529D01*
X174577604Y-99302629D01*
X174303416Y-99233900D01*
X174021088Y-99219983D01*
X173741470Y-99261413D01*
X173475308Y-99356597D01*
X173350086Y-99423529D01*
X173278503Y-99667498D01*
X172588294Y-99667498D01*
X172466359Y-99545563D01*
X172231327Y-99388520D01*
X171970174Y-99280347D01*
X171692935Y-99225200D01*
X171410265Y-99225200D01*
X171133026Y-99280347D01*
X170871873Y-99388520D01*
X170636841Y-99545563D01*
X170436963Y-99745441D01*
X170281600Y-99977959D01*
X170126237Y-99745441D01*
X169926359Y-99545563D01*
X169691327Y-99388520D01*
X169430174Y-99280347D01*
X169152935Y-99225200D01*
X168870265Y-99225200D01*
X168593026Y-99280347D01*
X168331873Y-99388520D01*
X168096841Y-99545563D01*
X167896963Y-99745441D01*
X167741600Y-99977959D01*
X167586237Y-99745441D01*
X167386359Y-99545563D01*
X167151327Y-99388520D01*
X166890174Y-99280347D01*
X166612935Y-99225200D01*
X166330265Y-99225200D01*
X166053026Y-99280347D01*
X165791873Y-99388520D01*
X165556841Y-99545563D01*
X165356963Y-99745441D01*
X165201600Y-99977959D01*
X165046237Y-99745441D01*
X164846359Y-99545563D01*
X164611327Y-99388520D01*
X164350174Y-99280347D01*
X164072935Y-99225200D01*
X163790265Y-99225200D01*
X163513026Y-99280347D01*
X163251873Y-99388520D01*
X163016841Y-99545563D01*
X162816963Y-99745441D01*
X162661600Y-99977959D01*
X162506237Y-99745441D01*
X162306359Y-99545563D01*
X162071327Y-99388520D01*
X161810174Y-99280347D01*
X161532935Y-99225200D01*
X161250265Y-99225200D01*
X160973026Y-99280347D01*
X160711873Y-99388520D01*
X160476841Y-99545563D01*
X160276963Y-99745441D01*
X160121600Y-99977959D01*
X159966237Y-99745441D01*
X159766359Y-99545563D01*
X159531327Y-99388520D01*
X159270174Y-99280347D01*
X158992935Y-99225200D01*
X158710265Y-99225200D01*
X158433026Y-99280347D01*
X158171873Y-99388520D01*
X157936841Y-99545563D01*
X157736963Y-99745441D01*
X157579920Y-99980473D01*
X157471747Y-100241626D01*
X157416600Y-100518865D01*
X67716000Y-100518865D01*
X67716000Y-91813921D01*
X72731500Y-91813921D01*
X72731500Y-92234479D01*
X72813547Y-92646956D01*
X72974488Y-93035502D01*
X73208137Y-93385183D01*
X73505517Y-93682563D01*
X73855198Y-93916212D01*
X74243744Y-94077153D01*
X74656221Y-94159200D01*
X75076779Y-94159200D01*
X75489256Y-94077153D01*
X75877802Y-93916212D01*
X76227483Y-93682563D01*
X76524863Y-93385183D01*
X76565610Y-93324200D01*
X78827528Y-93324200D01*
X78839788Y-93448682D01*
X78876098Y-93568380D01*
X78935063Y-93678694D01*
X79014415Y-93775385D01*
X79111106Y-93854737D01*
X79221420Y-93913702D01*
X79341118Y-93950012D01*
X79465600Y-93962272D01*
X80079850Y-93959200D01*
X80238600Y-93800450D01*
X80238600Y-92151200D01*
X78989350Y-92151200D01*
X78830600Y-92309950D01*
X78827528Y-93324200D01*
X76565610Y-93324200D01*
X76758512Y-93035502D01*
X76919453Y-92646956D01*
X77001500Y-92234479D01*
X77001500Y-91813921D01*
X76919453Y-91401444D01*
X76758512Y-91012898D01*
X76565611Y-90724200D01*
X78827528Y-90724200D01*
X78830600Y-91738450D01*
X78989350Y-91897200D01*
X80238600Y-91897200D01*
X80238600Y-90247950D01*
X80079850Y-90089200D01*
X79465600Y-90086128D01*
X79341118Y-90098388D01*
X79221420Y-90134698D01*
X79111106Y-90193663D01*
X79014415Y-90273015D01*
X78935063Y-90369706D01*
X78876098Y-90480020D01*
X78839788Y-90599718D01*
X78827528Y-90724200D01*
X76565611Y-90724200D01*
X76524863Y-90663217D01*
X76227483Y-90365837D01*
X75877802Y-90132188D01*
X75489256Y-89971247D01*
X75076779Y-89889200D01*
X74656221Y-89889200D01*
X74243744Y-89971247D01*
X73855198Y-90132188D01*
X73505517Y-90365837D01*
X73208137Y-90663217D01*
X72974488Y-91012898D01*
X72813547Y-91401444D01*
X72731500Y-91813921D01*
X67716000Y-91813921D01*
X67716000Y-82994219D01*
X68162136Y-83661909D01*
X68738091Y-84237864D01*
X69415343Y-84690389D01*
X70167865Y-85002094D01*
X70966738Y-85161000D01*
X71781262Y-85161000D01*
X72580135Y-85002094D01*
X73332657Y-84690389D01*
X74009909Y-84237864D01*
X74585864Y-83661909D01*
X75038389Y-82984657D01*
X75350094Y-82232135D01*
X75509000Y-81433262D01*
X75509000Y-80618738D01*
X75350094Y-79819865D01*
X75038389Y-79067343D01*
X74585864Y-78390091D01*
X74009909Y-77814136D01*
X73332657Y-77361611D01*
X72734872Y-77114000D01*
X238669128Y-77114000D01*
X238071343Y-77361611D01*
G37*
%TD.AperFunction*%
%TD*%
M02*
