%TF.GenerationSoftware,KiCad,Pcbnew,5.1.10-88a1d61d58~90~ubuntu20.04.1*%
%TF.CreationDate,2022-04-26T10:49:59-05:00*%
%TF.ProjectId,PantallaSerie,50616e74-616c-46c6-9153-657269652e6b,rev?*%
%TF.SameCoordinates,Original*%
%TF.FileFunction,Copper,L1,Top*%
%TF.FilePolarity,Positive*%
%FSLAX46Y46*%
G04 Gerber Fmt 4.6, Leading zero omitted, Abs format (unit mm)*
G04 Created by KiCad (PCBNEW 5.1.10-88a1d61d58~90~ubuntu20.04.1) date 2022-04-26 10:49:59*
%MOMM*%
%LPD*%
G01*
G04 APERTURE LIST*
%TA.AperFunction,ComponentPad*%
%ADD10R,1.600000X1.600000*%
%TD*%
%TA.AperFunction,ComponentPad*%
%ADD11C,1.600000*%
%TD*%
%TA.AperFunction,ComponentPad*%
%ADD12R,1.200000X1.200000*%
%TD*%
%TA.AperFunction,ComponentPad*%
%ADD13C,1.200000*%
%TD*%
%TA.AperFunction,ComponentPad*%
%ADD14C,0.100000*%
%TD*%
%TA.AperFunction,ComponentPad*%
%ADD15R,1.800000X2.600000*%
%TD*%
%TA.AperFunction,ComponentPad*%
%ADD16O,1.800000X2.600000*%
%TD*%
%TA.AperFunction,ComponentPad*%
%ADD17C,3.000000*%
%TD*%
%TA.AperFunction,ComponentPad*%
%ADD18C,7.000000*%
%TD*%
%TA.AperFunction,ComponentPad*%
%ADD19O,1.905000X2.000000*%
%TD*%
%TA.AperFunction,ComponentPad*%
%ADD20R,1.905000X2.000000*%
%TD*%
%TA.AperFunction,ComponentPad*%
%ADD21O,1.700000X1.700000*%
%TD*%
%TA.AperFunction,ComponentPad*%
%ADD22R,1.700000X1.700000*%
%TD*%
%TA.AperFunction,ComponentPad*%
%ADD23C,1.524000*%
%TD*%
%TA.AperFunction,ComponentPad*%
%ADD24R,1.524000X1.524000*%
%TD*%
%TA.AperFunction,ComponentPad*%
%ADD25C,3.500000*%
%TD*%
%TA.AperFunction,ComponentPad*%
%ADD26O,2.400000X2.400000*%
%TD*%
%TA.AperFunction,ComponentPad*%
%ADD27C,2.400000*%
%TD*%
%TA.AperFunction,ComponentPad*%
%ADD28C,1.440000*%
%TD*%
%TA.AperFunction,Conductor*%
%ADD29C,0.500000*%
%TD*%
%TA.AperFunction,Conductor*%
%ADD30C,0.250000*%
%TD*%
G04 APERTURE END LIST*
D10*
%TO.P,U1,1*%
%TO.N,Net-(C1-Pad1)*%
X211404200Y-127381000D03*
D11*
%TO.P,U1,2*%
%TO.N,Net-(C2-Pad1)*%
X211404200Y-124841000D03*
%TO.P,U1,3*%
%TO.N,Net-(C1-Pad2)*%
X211404200Y-122301000D03*
%TO.P,U1,4*%
%TO.N,Net-(C4-Pad1)*%
X211404200Y-119761000D03*
%TO.P,U1,5*%
%TO.N,Net-(C4-Pad2)*%
X211404200Y-117221000D03*
%TO.P,U1,6*%
%TO.N,Net-(C3-Pad2)*%
X211404200Y-114681000D03*
%TO.P,U1,7*%
%TO.N,Net-(J1-Pad3)*%
X211404200Y-112141000D03*
%TO.P,U1,10*%
%TO.N,Net-(U1-Pad10)*%
X203784200Y-112141000D03*
%TO.P,U1,11*%
%TO.N,Net-(U1-Pad11)*%
X203784200Y-114681000D03*
%TO.P,U1,12*%
%TO.N,Net-(U1-Pad12)*%
X203784200Y-117221000D03*
%TO.P,U1,13*%
%TO.N,Net-(U1-Pad13)*%
X203784200Y-119761000D03*
%TO.P,U1,14*%
%TO.N,Net-(U1-Pad14)*%
X203784200Y-122301000D03*
%TO.P,U1,15*%
%TO.N,GND*%
X203784200Y-124841000D03*
%TO.P,U1,16*%
%TO.N,+5V*%
X203784200Y-127381000D03*
%TO.P,U1,8*%
%TO.N,Net-(J1-Pad2)*%
X211404200Y-109601000D03*
%TO.P,U1,9*%
%TO.N,Net-(U1-Pad9)*%
X203784200Y-109601000D03*
%TD*%
D12*
%TO.P,C2,1*%
%TO.N,Net-(C2-Pad1)*%
X216738200Y-121539000D03*
D13*
%TO.P,C2,2*%
%TO.N,GND*%
X216738200Y-119539000D03*
%TD*%
D11*
%TO.P,C5,2*%
%TO.N,GND*%
X216738200Y-131739000D03*
D10*
%TO.P,C5,1*%
%TO.N,+5V*%
X216738200Y-134239000D03*
%TD*%
D13*
%TO.P,C3,2*%
%TO.N,Net-(C3-Pad2)*%
X216738200Y-109887000D03*
D12*
%TO.P,C3,1*%
%TO.N,GND*%
X216738200Y-111887000D03*
%TD*%
D13*
%TO.P,C4,2*%
%TO.N,Net-(C4-Pad2)*%
X216738200Y-114713000D03*
D12*
%TO.P,C4,1*%
%TO.N,Net-(C4-Pad1)*%
X216738200Y-116713000D03*
%TD*%
%TO.P,C1,1*%
%TO.N,Net-(C1-Pad1)*%
X216738200Y-126365000D03*
D13*
%TO.P,C1,2*%
%TO.N,Net-(C1-Pad2)*%
X216738200Y-124365000D03*
%TD*%
%TA.AperFunction,ComponentPad*%
D14*
%TO.P,SW1,1*%
%TO.N,Net-(SW1-Pad1)*%
G36*
X177536600Y-117198200D02*
G01*
X179060600Y-117198200D01*
X179060600Y-120698200D01*
X177536600Y-120698200D01*
X177536600Y-117198200D01*
G37*
%TD.AperFunction*%
%TA.AperFunction,ComponentPad*%
%TO.P,SW1,2*%
%TO.N,GND*%
G36*
X173186600Y-117198200D02*
G01*
X174710600Y-117198200D01*
X174710600Y-120698200D01*
X173186600Y-120698200D01*
X173186600Y-117198200D01*
G37*
%TD.AperFunction*%
%TD*%
%TA.AperFunction,ComponentPad*%
%TO.P,SW2,1*%
%TO.N,Net-(SW2-Pad1)*%
G36*
X191220600Y-120698200D02*
G01*
X189696600Y-120698200D01*
X189696600Y-117198200D01*
X191220600Y-117198200D01*
X191220600Y-120698200D01*
G37*
%TD.AperFunction*%
%TA.AperFunction,ComponentPad*%
%TO.P,SW2,2*%
%TO.N,GND*%
G36*
X195570600Y-120698200D02*
G01*
X194046600Y-120698200D01*
X194046600Y-117198200D01*
X195570600Y-117198200D01*
X195570600Y-120698200D01*
G37*
%TD.AperFunction*%
%TD*%
D15*
%TO.P,U3,1*%
%TO.N,GND*%
X80365600Y-92024200D03*
D16*
%TO.P,U3,2*%
%TO.N,+5V*%
X82905600Y-92024200D03*
%TO.P,U3,3*%
%TO.N,Net-(R_POT_TRIM1-Pad2)*%
X85445600Y-92024200D03*
%TO.P,U3,4*%
%TO.N,Net-(U2-Pad4)*%
X87985600Y-92024200D03*
%TO.P,U3,5*%
%TO.N,GND*%
X90525600Y-92024200D03*
%TO.P,U3,6*%
%TO.N,Net-(U2-Pad5)*%
X93065600Y-92024200D03*
%TO.P,U3,7*%
%TO.N,Net-(U3-Pad7)*%
X95605600Y-92024200D03*
%TO.P,U3,8*%
%TO.N,Net-(U3-Pad8)*%
X98145600Y-92024200D03*
%TO.P,U3,9*%
%TO.N,Net-(U3-Pad9)*%
X100685600Y-92024200D03*
%TO.P,U3,10*%
%TO.N,Net-(U3-Pad10)*%
X103225600Y-92024200D03*
%TO.P,U3,11*%
%TO.N,Net-(U2-Pad6)*%
X105765600Y-92024200D03*
%TO.P,U3,12*%
%TO.N,Net-(U2-Pad28)*%
X108305600Y-92024200D03*
%TO.P,U3,13*%
%TO.N,Net-(U2-Pad27)*%
X110845600Y-92024200D03*
%TO.P,U3,14*%
%TO.N,Net-(U2-Pad26)*%
X113385600Y-92024200D03*
%TO.P,U3,15*%
%TO.N,+5V*%
X115925600Y-92024200D03*
%TO.P,U3,16*%
%TO.N,Net-(R2-Pad1)*%
X118465600Y-92024200D03*
D17*
%TO.P,U3,*%
%TO.N,*%
X74866500Y-92024200D03*
X74866500Y-123024900D03*
X149865080Y-123024900D03*
X149865600Y-92024200D03*
%TD*%
D18*
%TO.P,REF\u002A\u002A,1*%
%TO.N,N/C*%
X240030000Y-133096000D03*
%TD*%
%TO.P,REF\u002A\u002A,1*%
%TO.N,N/C*%
X240030000Y-81026000D03*
%TD*%
%TO.P,REF\u002A\u002A,1*%
%TO.N,N/C*%
X71374000Y-133096000D03*
%TD*%
%TO.P,REF\u002A\u002A,1*%
%TO.N,N/C*%
X71374000Y-81026000D03*
%TD*%
D19*
%TO.P,U4,3*%
%TO.N,+5V*%
X209956400Y-85648800D03*
%TO.P,U4,2*%
%TO.N,GND*%
X212496400Y-85648800D03*
D20*
%TO.P,U4,1*%
%TO.N,+12V*%
X215036400Y-85648800D03*
%TD*%
D21*
%TO.P,J3,3*%
%TO.N,GND*%
X189331600Y-92024200D03*
%TO.P,J3,2*%
%TO.N,Net-(J3-Pad2)*%
X186791600Y-92024200D03*
D22*
%TO.P,J3,1*%
%TO.N,Net-(J3-Pad1)*%
X184251600Y-92024200D03*
%TD*%
D21*
%TO.P,J2,3*%
%TO.N,Net-(J2-Pad3)*%
X178917600Y-92024200D03*
%TO.P,J2,2*%
%TO.N,Net-(J2-Pad2)*%
X176377600Y-92024200D03*
D22*
%TO.P,J2,1*%
%TO.N,+5V*%
X173837600Y-92024200D03*
%TD*%
D23*
%TO.P,J1,4*%
%TO.N,GND*%
X230073200Y-92136200D03*
%TO.P,J1,3*%
%TO.N,Net-(J1-Pad3)*%
X230073200Y-94636200D03*
%TO.P,J1,2*%
%TO.N,Net-(J1-Pad2)*%
X230073200Y-96636200D03*
D24*
%TO.P,J1,1*%
%TO.N,+12V*%
X230073200Y-99136200D03*
D25*
%TO.P,J1,5*%
%TO.N,HT*%
X232783200Y-102206200D03*
X232783200Y-89066200D03*
%TD*%
D26*
%TO.P,R1,2*%
%TO.N,+5V*%
X169519600Y-92024200D03*
D27*
%TO.P,R1,1*%
%TO.N,Net-(J2-Pad2)*%
X156819600Y-92024200D03*
%TD*%
%TO.P,R2,1*%
%TO.N,Net-(R2-Pad1)*%
X118465600Y-85928200D03*
D26*
%TO.P,R2,2*%
%TO.N,GND*%
X105765600Y-85928200D03*
%TD*%
D28*
%TO.P,R_POT_TRIM1,1*%
%TO.N,+5V*%
X82905600Y-85166200D03*
%TO.P,R_POT_TRIM1,2*%
%TO.N,Net-(R_POT_TRIM1-Pad2)*%
X85445600Y-85166200D03*
%TO.P,R_POT_TRIM1,3*%
%TO.N,GND*%
X87985600Y-85166200D03*
%TD*%
D10*
%TO.P,U2,1*%
%TO.N,Net-(J2-Pad2)*%
X158851600Y-108280200D03*
D11*
%TO.P,U2,2*%
%TO.N,Net-(U1-Pad9)*%
X161391600Y-108280200D03*
%TO.P,U2,3*%
%TO.N,Net-(U1-Pad10)*%
X163931600Y-108280200D03*
%TO.P,U2,4*%
%TO.N,Net-(U2-Pad4)*%
X166471600Y-108280200D03*
%TO.P,U2,5*%
%TO.N,Net-(U2-Pad5)*%
X169011600Y-108280200D03*
%TO.P,U2,6*%
%TO.N,Net-(U2-Pad6)*%
X171551600Y-108280200D03*
%TO.P,U2,7*%
%TO.N,+5V*%
X174091600Y-108280200D03*
%TO.P,U2,8*%
%TO.N,GND*%
X176631600Y-108280200D03*
%TO.P,U2,9*%
%TO.N,Net-(U2-Pad9)*%
X179171600Y-108280200D03*
%TO.P,U2,10*%
%TO.N,Net-(U2-Pad10)*%
X181711600Y-108280200D03*
%TO.P,U2,11*%
%TO.N,Net-(U2-Pad11)*%
X184251600Y-108280200D03*
%TO.P,U2,12*%
%TO.N,Net-(U2-Pad12)*%
X186791600Y-108280200D03*
%TO.P,U2,13*%
%TO.N,Net-(SW1-Pad1)*%
X189331600Y-108280200D03*
%TO.P,U2,14*%
%TO.N,Net-(SW2-Pad1)*%
X191871600Y-108280200D03*
%TO.P,U2,15*%
%TO.N,Net-(U2-Pad15)*%
X191871600Y-100660200D03*
%TO.P,U2,16*%
%TO.N,Net-(U2-Pad16)*%
X189331600Y-100660200D03*
%TO.P,U2,17*%
%TO.N,Net-(J3-Pad2)*%
X186791600Y-100660200D03*
%TO.P,U2,18*%
%TO.N,Net-(J3-Pad1)*%
X184251600Y-100660200D03*
%TO.P,U2,19*%
%TO.N,Net-(J2-Pad3)*%
X181711600Y-100660200D03*
%TO.P,U2,20*%
%TO.N,Net-(U2-Pad20)*%
X179171600Y-100660200D03*
%TO.P,U2,21*%
%TO.N,Net-(U2-Pad21)*%
X176631600Y-100660200D03*
%TO.P,U2,22*%
%TO.N,GND*%
X174091600Y-100660200D03*
%TO.P,U2,23*%
%TO.N,Net-(U2-Pad23)*%
X171551600Y-100660200D03*
%TO.P,U2,24*%
%TO.N,Net-(U2-Pad24)*%
X169011600Y-100660200D03*
%TO.P,U2,25*%
%TO.N,Net-(U2-Pad25)*%
X166471600Y-100660200D03*
%TO.P,U2,26*%
%TO.N,Net-(U2-Pad26)*%
X163931600Y-100660200D03*
%TO.P,U2,27*%
%TO.N,Net-(U2-Pad27)*%
X161391600Y-100660200D03*
%TO.P,U2,28*%
%TO.N,Net-(U2-Pad28)*%
X158851600Y-100660200D03*
%TD*%
D29*
%TO.N,Net-(C1-Pad1)*%
X216738200Y-126365000D02*
X212420200Y-126365000D01*
X212420200Y-126365000D02*
X211404200Y-127381000D01*
%TO.N,Net-(C1-Pad2)*%
X217786200Y-124365000D02*
X219024200Y-125603000D01*
X210896200Y-129667000D02*
X209118200Y-127889000D01*
X216992200Y-129667000D02*
X210896200Y-129667000D01*
X219024200Y-127635000D02*
X216992200Y-129667000D01*
X216738200Y-124365000D02*
X217786200Y-124365000D01*
X209118200Y-127889000D02*
X209118200Y-124587000D01*
X219024200Y-125603000D02*
X219024200Y-127635000D01*
X209118200Y-124587000D02*
X211404200Y-122301000D01*
%TO.N,Net-(C2-Pad1)*%
X214706200Y-121539000D02*
X211404200Y-124841000D01*
X216738200Y-121539000D02*
X214706200Y-121539000D01*
D30*
%TO.N,Net-(C3-Pad2)*%
X211404200Y-114173000D02*
X211404200Y-114681000D01*
D29*
X215690200Y-109887000D02*
X211404200Y-114173000D01*
X216738200Y-109887000D02*
X215690200Y-109887000D01*
%TO.N,Net-(C4-Pad2)*%
X213912200Y-114713000D02*
X211404200Y-117221000D01*
X216738200Y-114713000D02*
X213912200Y-114713000D01*
%TO.N,Net-(C4-Pad1)*%
X216738200Y-116713000D02*
X214452200Y-116713000D01*
X214452200Y-116713000D02*
X211404200Y-119761000D01*
D30*
%TO.N,Net-(J1-Pad2)*%
X211388200Y-109585000D02*
X211404200Y-109601000D01*
D29*
X224369000Y-96636200D02*
X211404200Y-109601000D01*
X230073200Y-96636200D02*
X224369000Y-96636200D01*
%TO.N,Net-(J1-Pad3)*%
X230073200Y-94636200D02*
X213440400Y-94636200D01*
X213440400Y-94636200D02*
X207772000Y-100304600D01*
X207772000Y-108508800D02*
X211404200Y-112141000D01*
X207772000Y-100304600D02*
X207772000Y-108508800D01*
%TO.N,Net-(J2-Pad3)*%
X181711600Y-94898200D02*
X178837600Y-92024200D01*
X181711600Y-100660200D02*
X181711600Y-94898200D01*
%TO.N,Net-(J2-Pad2)*%
X176337600Y-92024200D02*
X178623600Y-89738200D01*
X178623600Y-89738200D02*
X191363600Y-89738200D01*
X191363600Y-89738200D02*
X195681600Y-94056200D01*
X195681600Y-94056200D02*
X195681600Y-101930200D01*
X195681600Y-101930200D02*
X192887600Y-104724200D01*
X162407600Y-104724200D02*
X158851600Y-108280200D01*
X192887600Y-104724200D02*
X162407600Y-104724200D01*
X156819600Y-92024200D02*
X159867600Y-95072200D01*
X173289600Y-95072200D02*
X176337600Y-92024200D01*
X159867600Y-95072200D02*
X173289600Y-95072200D01*
%TO.N,Net-(J3-Pad1)*%
X184251600Y-92024200D02*
X184251600Y-100660200D01*
%TO.N,Net-(J3-Pad2)*%
X186751600Y-100620200D02*
X186791600Y-100660200D01*
X186751600Y-92024200D02*
X186751600Y-100620200D01*
%TO.N,Net-(R2-Pad1)*%
X118465600Y-85928200D02*
X118465600Y-92024200D01*
%TO.N,Net-(R_POT_TRIM1-Pad2)*%
X85445600Y-92024200D02*
X85445600Y-85166200D01*
%TO.N,Net-(U2-Pad4)*%
X166471600Y-108280200D02*
X166471600Y-118948200D01*
X166471600Y-118948200D02*
X173329600Y-125806200D01*
X173329600Y-125806200D02*
X195173600Y-125806200D01*
X195173600Y-125806200D02*
X202031600Y-118948200D01*
X202031600Y-118948200D02*
X202031600Y-89738200D01*
X202031600Y-89738200D02*
X191617600Y-79324200D01*
X191617600Y-79324200D02*
X97637600Y-79324200D01*
X87985600Y-88976200D02*
X87985600Y-92024200D01*
X97637600Y-79324200D02*
X87985600Y-88976200D01*
%TO.N,Net-(U2-Pad5)*%
X100177600Y-81356200D02*
X93065600Y-88468200D01*
X199999600Y-118186200D02*
X199999600Y-90500200D01*
X93065600Y-88468200D02*
X93065600Y-92024200D01*
X193903600Y-124282200D02*
X199999600Y-118186200D01*
X174599600Y-124282200D02*
X193903600Y-124282200D01*
X190855600Y-81356200D02*
X100177600Y-81356200D01*
X199999600Y-90500200D02*
X190855600Y-81356200D01*
X169011600Y-118694200D02*
X174599600Y-124282200D01*
X169011600Y-108280200D02*
X169011600Y-118694200D01*
%TO.N,Net-(U2-Pad6)*%
X171551600Y-108280200D02*
X174599600Y-111328200D01*
X174599600Y-111328200D02*
X193649600Y-111328200D01*
X193649600Y-111328200D02*
X198221600Y-106756200D01*
X198221600Y-106756200D02*
X198221600Y-92024200D01*
X198221600Y-92024200D02*
X189077600Y-82880200D01*
X189077600Y-82880200D02*
X112877600Y-82880200D01*
X105765600Y-89992200D02*
X105765600Y-92024200D01*
X112877600Y-82880200D02*
X105765600Y-89992200D01*
%TO.N,Net-(U2-Pad26)*%
X163931600Y-100660200D02*
X161137600Y-97866200D01*
X119227600Y-97866200D02*
X113385600Y-92024200D01*
X161137600Y-97866200D02*
X119227600Y-97866200D01*
%TO.N,Net-(U2-Pad27)*%
X118231599Y-99410199D02*
X110845600Y-92024200D01*
X160141599Y-99410199D02*
X118231599Y-99410199D01*
X161391600Y-100660200D02*
X160141599Y-99410199D01*
%TO.N,Net-(U2-Pad28)*%
X116941600Y-100660200D02*
X108305600Y-92024200D01*
X158851600Y-100660200D02*
X116941600Y-100660200D01*
%TD*%
M02*
