M48
; DRILL file {KiCad 5.1.10-88a1d61d58~90~ubuntu20.04.1} date Tue Apr 26 10:49:55 2022
; FORMAT={-:-/ absolute / inch / decimal}
; #@! TF.CreationDate,2022-04-26T10:49:55-05:00
; #@! TF.GenerationSoftware,Kicad,Pcbnew,5.1.10-88a1d61d58~90~ubuntu20.04.1
; #@! TF.FileFunction,Plated,1,2,PTH
FMAT,2
INCH
T1C0.0236
T2C0.0256
T3C0.0315
T4C0.0362
T5C0.0394
T6C0.0472
T7C0.0906
T8C0.0984
T9C0.1378
%
G90
G05
T1
X8.533Y-4.3263
X8.533Y-4.405
X8.533Y-4.5163
X8.533Y-4.595
X8.533Y-4.7063
X8.533Y-4.785
X8.533Y-4.8963
X8.533Y-4.975
T3
X3.264Y-3.353
X3.364Y-3.353
X3.464Y-3.353
X8.533Y-5.1866
X8.533Y-5.285
T4
X9.058Y-3.6274
X9.058Y-3.7258
X9.058Y-3.8046
X9.058Y-3.903
T5
X6.254Y-3.963
X6.254Y-4.263
X6.354Y-3.963
X6.354Y-4.263
X6.454Y-3.963
X6.454Y-4.263
X6.554Y-3.963
X6.554Y-4.263
X6.654Y-3.963
X6.654Y-4.263
X6.754Y-3.963
X6.754Y-4.263
X6.844Y-3.623
X6.854Y-3.963
X6.854Y-4.263
X6.944Y-3.623
X6.954Y-3.963
X6.954Y-4.263
X7.044Y-3.623
X7.054Y-3.963
X7.054Y-4.263
X7.154Y-3.963
X7.154Y-4.263
X7.254Y-3.623
X7.254Y-3.963
X7.254Y-4.263
X7.354Y-3.623
X7.354Y-3.963
X7.354Y-4.263
X7.454Y-3.623
X7.454Y-3.963
X7.454Y-4.263
X7.554Y-3.963
X7.554Y-4.263
X8.023Y-4.315
X8.023Y-4.415
X8.023Y-4.515
X8.023Y-4.615
X8.023Y-4.715
X8.023Y-4.815
X8.023Y-4.915
X8.023Y-5.015
X8.323Y-4.315
X8.323Y-4.415
X8.323Y-4.515
X8.323Y-4.615
X8.323Y-4.715
X8.323Y-4.815
X8.323Y-4.915
X8.323Y-5.015
T6
X3.164Y-3.623
X3.264Y-3.623
X3.364Y-3.623
X3.464Y-3.623
X3.564Y-3.623
X3.664Y-3.623
X3.764Y-3.623
X3.864Y-3.623
X3.964Y-3.623
X4.064Y-3.623
X4.164Y-3.383
X4.164Y-3.623
X4.264Y-3.623
X4.364Y-3.623
X4.464Y-3.623
X4.564Y-3.623
X4.664Y-3.383
X4.664Y-3.623
X6.174Y-3.623
X6.674Y-3.623
X8.266Y-3.372
X8.366Y-3.372
X8.466Y-3.372
T7
X9.1647Y-3.5065
X9.1647Y-4.0239
T8
X2.9475Y-3.623
X2.9475Y-4.8435
X5.9002Y-4.8435
X5.9002Y-3.623
T9
X2.81Y-3.19
X2.81Y-5.24
X9.45Y-3.19
X9.45Y-5.24
T2
G00X6.8484Y-4.7096
M15
G01X6.8484Y-4.6564
M16
G05
G00X7.0196Y-4.7096
M15
G01X7.0196Y-4.6564
M16
G05
G00X7.4984Y-4.6564
M15
G01X7.4984Y-4.7096
M16
G05
G00X7.6696Y-4.6564
M15
G01X7.6696Y-4.7096
M16
G05
T0
M30
